<svg xmlns:xlink="http://www.w3.org/1999/xlink" width="330" xmlns="http://www.w3.org/2000/svg" height="330" id="screenshot-8cf7a877-b6cf-8028-8001-c1c6a46bca5a" viewBox="-0 -0 330 330" style="-webkit-print-color-adjust: exact;" fill="none" version="1.1"><g id="shape-8cf7a877-b6cf-8028-8001-c1c6a46bca5a" rx="0" ry="0"><g id="shape-8cf7a877-b6cf-8028-8001-c1c6a46bca5b"><g id="fills-8cf7a877-b6cf-8028-8001-c1c6a46bca5b"><rect rx="0" ry="0" x="275.00000001490184" y="1.4378294110883871e-8" transform="matrix(-1,0,0,1,605,0)" width="54.99999997019768" height="54.999999971243355" style="fill: rgb(31, 36, 28); fill-opacity: 0.15;"/></g><g id="strokes-8cf7a877-b6cf-8028-8001-c1c6a46bca5b"><g class="inner-stroke-shape" transform="matrix(-1,0,0,1,605,0)"><defs><clipPath id="inner-stroke-1c620b88-7f86-80b3-8001-c1c708d12580--0"><use href="#stroke-shape-1c620b88-7f86-80b3-8001-c1c708d12580--0"/></clipPath><rect rx="0" ry="0" x="275.00000001490184" y="1.4378294110883871e-8" width="54.99999997019768" height="54.999999971243355" id="stroke-shape-1c620b88-7f86-80b3-8001-c1c708d12580--0" style="fill: none; stroke-width: 12; stroke: rgb(255, 255, 255); stroke-opacity: 1;"/></defs><use href="#stroke-shape-1c620b88-7f86-80b3-8001-c1c708d12580--0" clip-path="url('#inner-stroke-1c620b88-7f86-80b3-8001-c1c708d12580--0')"/></g></g></g><g id="shape-8cf7a877-b6cf-8028-8001-c1c6a46bca5c"><g id="fills-8cf7a877-b6cf-8028-8001-c1c6a46bca5c"><rect rx="0" ry="0" x="275" y="110" transform="matrix(-1,0,0,1,605,0)" width="55" height="55" style="fill: rgb(31, 36, 28); fill-opacity: 0.3;"/></g><g id="strokes-8cf7a877-b6cf-8028-8001-c1c6a46bca5c"><g class="inner-stroke-shape" transform="matrix(-1,0,0,1,605,0)"><defs><clipPath id="inner-stroke-1c620b88-7f86-80b3-8001-c1c708d2c84e--0"><use href="#stroke-shape-1c620b88-7f86-80b3-8001-c1c708d2c84e--0"/></clipPath><rect rx="0" ry="0" x="275" y="110" width="55" height="55" id="stroke-shape-1c620b88-7f86-80b3-8001-c1c708d2c84e--0" style="fill: none; stroke-width: 12; stroke: rgb(255, 255, 255); stroke-opacity: 1;"/></defs><use href="#stroke-shape-1c620b88-7f86-80b3-8001-c1c708d2c84e--0" clip-path="url('#inner-stroke-1c620b88-7f86-80b3-8001-c1c708d2c84e--0')"/></g></g></g><g id="shape-8cf7a877-b6cf-8028-8001-c1c6a46bca5d"><g id="fills-8cf7a877-b6cf-8028-8001-c1c6a46bca5d"><rect rx="0" ry="0" x="165" y="0" transform="matrix(-1,0,0,1,385,0)" width="55" height="55" style="fill: rgb(31, 36, 28); fill-opacity: 0.3;"/></g><g id="strokes-8cf7a877-b6cf-8028-8001-c1c6a46bca5d"><g class="inner-stroke-shape" transform="matrix(-1,0,0,1,385,0)"><defs><clipPath id="inner-stroke-1c620b88-7f86-80b3-8001-c1c708d3d70a--0"><use href="#stroke-shape-1c620b88-7f86-80b3-8001-c1c708d3d70a--0"/></clipPath><rect rx="0" ry="0" x="165" y="0" width="55" height="55" id="stroke-shape-1c620b88-7f86-80b3-8001-c1c708d3d70a--0" style="fill: none; stroke-width: 12; stroke: rgb(255, 255, 255); stroke-opacity: 1;"/></defs><use href="#stroke-shape-1c620b88-7f86-80b3-8001-c1c708d3d70a--0" clip-path="url('#inner-stroke-1c620b88-7f86-80b3-8001-c1c708d3d70a--0')"/></g></g></g><g id="shape-8cf7a877-b6cf-8028-8001-c1c6a46bca5e"><g id="fills-8cf7a877-b6cf-8028-8001-c1c6a46bca5e"><rect rx="0" ry="0" x="220" y="0" transform="matrix(-1,0,0,1,495,0)" width="55" height="55" style="fill: rgb(31, 36, 28); fill-opacity: 0.15;"/></g><g id="strokes-8cf7a877-b6cf-8028-8001-c1c6a46bca5e"><g class="inner-stroke-shape" transform="matrix(-1,0,0,1,495,0)"><defs><clipPath id="inner-stroke-1c620b88-7f86-80b3-8001-c1c708d4438e--0"><use href="#stroke-shape-1c620b88-7f86-80b3-8001-c1c708d4438e--0"/></clipPath><rect rx="0" ry="0" x="220" y="0" width="55" height="55" id="stroke-shape-1c620b88-7f86-80b3-8001-c1c708d4438e--0" style="fill: none; stroke-width: 12; stroke: rgb(255, 255, 255); stroke-opacity: 1;"/></defs><use href="#stroke-shape-1c620b88-7f86-80b3-8001-c1c708d4438e--0" clip-path="url('#inner-stroke-1c620b88-7f86-80b3-8001-c1c708d4438e--0')"/></g></g></g><g id="shape-8cf7a877-b6cf-8028-8001-c1c6a46bca5f"><g id="fills-8cf7a877-b6cf-8028-8001-c1c6a46bca5f"><rect rx="0" ry="0" x="165" y="110" transform="matrix(-1,0,0,1,385,0)" width="55" height="55" style="fill: rgb(31, 36, 28); fill-opacity: 0.9;"/></g><g id="strokes-8cf7a877-b6cf-8028-8001-c1c6a46bca5f"><g class="inner-stroke-shape" transform="matrix(-1,0,0,1,385,0)"><defs><clipPath id="inner-stroke-1c620b88-7f86-80b3-8001-c1c708d51ce9--0"><use href="#stroke-shape-1c620b88-7f86-80b3-8001-c1c708d51ce9--0"/></clipPath><rect rx="0" ry="0" x="165" y="110" width="55" height="55" id="stroke-shape-1c620b88-7f86-80b3-8001-c1c708d51ce9--0" style="fill: none; stroke-width: 4; stroke: rgb(255, 255, 255); stroke-opacity: 1;"/></defs><use href="#stroke-shape-1c620b88-7f86-80b3-8001-c1c708d51ce9--0" clip-path="url('#inner-stroke-1c620b88-7f86-80b3-8001-c1c708d51ce9--0')"/></g></g></g><g id="shape-8cf7a877-b6cf-8028-8001-c1c6a46bca60"><g id="fills-8cf7a877-b6cf-8028-8001-c1c6a46bca60"><rect rx="0" ry="0" x="220" y="110" transform="matrix(-1,0,0,1,495,0)" width="55" height="55" style="fill: rgb(31, 36, 28); fill-opacity: 1;"/></g><g id="strokes-8cf7a877-b6cf-8028-8001-c1c6a46bca60"><g class="inner-stroke-shape" transform="matrix(-1,0,0,1,495,0)"><defs><clipPath id="inner-stroke-1c620b88-7f86-80b3-8001-c1c708d5e9f4--0"><use href="#stroke-shape-1c620b88-7f86-80b3-8001-c1c708d5e9f4--0"/></clipPath><rect rx="0" ry="0" x="220" y="110" width="55" height="55" id="stroke-shape-1c620b88-7f86-80b3-8001-c1c708d5e9f4--0" style="fill: none; stroke-width: 6; stroke: rgb(255, 255, 255); stroke-opacity: 1;"/></defs><use href="#stroke-shape-1c620b88-7f86-80b3-8001-c1c708d5e9f4--0" clip-path="url('#inner-stroke-1c620b88-7f86-80b3-8001-c1c708d5e9f4--0')"/></g></g></g><g id="shape-8cf7a877-b6cf-8028-8001-c1c6a46bca61"><g id="fills-8cf7a877-b6cf-8028-8001-c1c6a46bca61"><rect rx="0" ry="0" x="110" y="0" transform="matrix(-1,0,0,1,275,0)" width="55" height="55" style="fill: rgb(31, 36, 28); fill-opacity: 1;"/></g><g id="strokes-8cf7a877-b6cf-8028-8001-c1c6a46bca61"><g class="inner-stroke-shape" transform="matrix(-1,0,0,1,275,0)"><defs><clipPath id="inner-stroke-1c620b88-7f86-80b3-8001-c1c708d650c7--0"><use href="#stroke-shape-1c620b88-7f86-80b3-8001-c1c708d650c7--0"/></clipPath><rect rx="0" ry="0" x="110" y="0" width="55" height="55" id="stroke-shape-1c620b88-7f86-80b3-8001-c1c708d650c7--0" style="fill: none; stroke-width: 6; stroke: rgb(255, 255, 255); stroke-opacity: 1;"/></defs><use href="#stroke-shape-1c620b88-7f86-80b3-8001-c1c708d650c7--0" clip-path="url('#inner-stroke-1c620b88-7f86-80b3-8001-c1c708d650c7--0')"/></g></g></g><g id="shape-8cf7a877-b6cf-8028-8001-c1c6a46bca62"><g id="fills-8cf7a877-b6cf-8028-8001-c1c6a46bca62"><rect rx="0" ry="0" x="55" y="0" transform="matrix(-1,0,0,1,165,0)" width="55" height="55" style="fill: rgb(31, 36, 28); fill-opacity: 0.9;"/></g><g id="strokes-8cf7a877-b6cf-8028-8001-c1c6a46bca62"><g class="inner-stroke-shape" transform="matrix(-1,0,0,1,165,0)"><defs><clipPath id="inner-stroke-1c620b88-7f86-80b3-8001-c1c708d6e178--0"><use href="#stroke-shape-1c620b88-7f86-80b3-8001-c1c708d6e178--0"/></clipPath><rect rx="0" ry="0" x="55" y="0" width="55" height="55" id="stroke-shape-1c620b88-7f86-80b3-8001-c1c708d6e178--0" style="fill: none; stroke-width: 4; stroke: rgb(255, 255, 255); stroke-opacity: 1;"/></defs><use href="#stroke-shape-1c620b88-7f86-80b3-8001-c1c708d6e178--0" clip-path="url('#inner-stroke-1c620b88-7f86-80b3-8001-c1c708d6e178--0')"/></g></g></g><g id="shape-8cf7a877-b6cf-8028-8001-c1c6a46bca63"><g id="fills-8cf7a877-b6cf-8028-8001-c1c6a46bca63"><rect rx="0" ry="0" x="0" y="0" transform="matrix(-1,0,0,1,55,0)" width="55" height="55" style="fill: rgb(31, 36, 28); fill-opacity: 1;"/></g><g id="strokes-8cf7a877-b6cf-8028-8001-c1c6a46bca63"><g class="inner-stroke-shape" transform="matrix(-1,0,0,1,55,0)"><defs><clipPath id="inner-stroke-1c620b88-7f86-80b3-8001-c1c708d745db--0"><use href="#stroke-shape-1c620b88-7f86-80b3-8001-c1c708d745db--0"/></clipPath><rect rx="0" ry="0" x="0" y="0" width="55" height="55" id="stroke-shape-1c620b88-7f86-80b3-8001-c1c708d745db--0" style="fill: none; stroke-width: 2; stroke: rgb(255, 255, 255); stroke-opacity: 1;"/></defs><use href="#stroke-shape-1c620b88-7f86-80b3-8001-c1c708d745db--0" clip-path="url('#inner-stroke-1c620b88-7f86-80b3-8001-c1c708d745db--0')"/></g></g></g><g id="shape-8cf7a877-b6cf-8028-8001-c1c6a46bca64"><g id="fills-8cf7a877-b6cf-8028-8001-c1c6a46bca64"><rect rx="0" ry="0" x="275" y="55" transform="matrix(-1,0,0,1,605,0)" width="55" height="55" style="fill: rgb(31, 36, 28); fill-opacity: 0.15;"/></g><g id="strokes-8cf7a877-b6cf-8028-8001-c1c6a46bca64"><g class="inner-stroke-shape" transform="matrix(-1,0,0,1,605,0)"><defs><clipPath id="inner-stroke-1c620b88-7f86-80b3-8001-c1c708d82b7d--0"><use href="#stroke-shape-1c620b88-7f86-80b3-8001-c1c708d82b7d--0"/></clipPath><rect rx="0" ry="0" x="275" y="55" width="55" height="55" id="stroke-shape-1c620b88-7f86-80b3-8001-c1c708d82b7d--0" style="fill: none; stroke-width: 12; stroke: rgb(255, 255, 255); stroke-opacity: 1;"/></defs><use href="#stroke-shape-1c620b88-7f86-80b3-8001-c1c708d82b7d--0" clip-path="url('#inner-stroke-1c620b88-7f86-80b3-8001-c1c708d82b7d--0')"/></g></g></g><g id="shape-8cf7a877-b6cf-8028-8001-c1c6a46bca65"><g id="fills-8cf7a877-b6cf-8028-8001-c1c6a46bca65"><rect rx="0" ry="0" x="220" y="55" transform="matrix(-1,0,0,1,495,0)" width="55" height="55" style="fill: rgb(31, 36, 28); fill-opacity: 0.3;"/></g><g id="strokes-8cf7a877-b6cf-8028-8001-c1c6a46bca65"><g class="inner-stroke-shape" transform="matrix(-1,0,0,1,495,0)"><defs><clipPath id="inner-stroke-1c620b88-7f86-80b3-8001-c1c708d8a177--0"><use href="#stroke-shape-1c620b88-7f86-80b3-8001-c1c708d8a177--0"/></clipPath><rect rx="0" ry="0" x="220" y="55" width="55" height="55" id="stroke-shape-1c620b88-7f86-80b3-8001-c1c708d8a177--0" style="fill: none; stroke-width: 12; stroke: rgb(255, 255, 255); stroke-opacity: 1;"/></defs><use href="#stroke-shape-1c620b88-7f86-80b3-8001-c1c708d8a177--0" clip-path="url('#inner-stroke-1c620b88-7f86-80b3-8001-c1c708d8a177--0')"/></g></g></g><g id="shape-8cf7a877-b6cf-8028-8001-c1c6a46bca66"><g id="fills-8cf7a877-b6cf-8028-8001-c1c6a46bca66"><rect rx="0" ry="0" x="110" y="110" transform="matrix(-1,0,0,1,275,0)" width="55" height="55" style="fill: rgb(31, 36, 28); fill-opacity: 1;"/></g><g id="strokes-8cf7a877-b6cf-8028-8001-c1c6a46bca66"><g class="inner-stroke-shape" transform="matrix(-1,0,0,1,275,0)"><defs><clipPath id="inner-stroke-1c620b88-7f86-80b3-8001-c1c708d908ec--0"><use href="#stroke-shape-1c620b88-7f86-80b3-8001-c1c708d908ec--0"/></clipPath><rect rx="0" ry="0" x="110" y="110" width="55" height="55" id="stroke-shape-1c620b88-7f86-80b3-8001-c1c708d908ec--0" style="fill: none; stroke-width: 2; stroke: rgb(255, 255, 255); stroke-opacity: 1;"/></defs><use href="#stroke-shape-1c620b88-7f86-80b3-8001-c1c708d908ec--0" clip-path="url('#inner-stroke-1c620b88-7f86-80b3-8001-c1c708d908ec--0')"/></g></g></g><g id="shape-8cf7a877-b6cf-8028-8001-c1c6a46bca67"><g id="fills-8cf7a877-b6cf-8028-8001-c1c6a46bca67"><rect rx="0" ry="0" x="275" y="165" transform="matrix(-1,0,0,1,605,0)" width="55" height="55" style="fill: rgb(31, 36, 28); fill-opacity: 1;"/></g><g id="strokes-8cf7a877-b6cf-8028-8001-c1c6a46bca67"><g class="inner-stroke-shape" transform="matrix(-1,0,0,1,605,0)"><defs><clipPath id="inner-stroke-1c620b88-7f86-80b3-8001-c1c708d99db4--0"><use href="#stroke-shape-1c620b88-7f86-80b3-8001-c1c708d99db4--0"/></clipPath><rect rx="0" ry="0" x="275" y="165" width="55" height="55" id="stroke-shape-1c620b88-7f86-80b3-8001-c1c708d99db4--0" style="fill: none; stroke-width: 6; stroke: rgb(255, 255, 255); stroke-opacity: 1;"/></defs><use href="#stroke-shape-1c620b88-7f86-80b3-8001-c1c708d99db4--0" clip-path="url('#inner-stroke-1c620b88-7f86-80b3-8001-c1c708d99db4--0')"/></g></g></g><g id="shape-8cf7a877-b6cf-8028-8001-c1c6a46bca68"><g id="fills-8cf7a877-b6cf-8028-8001-c1c6a46bca68"><rect rx="0" ry="0" x="275" y="220" transform="matrix(-1,0,0,1,605,0)" width="55" height="55" style="fill: rgb(31, 36, 28); fill-opacity: 0.9;"/></g><g id="strokes-8cf7a877-b6cf-8028-8001-c1c6a46bca68"><g class="inner-stroke-shape" transform="matrix(-1,0,0,1,605,0)"><defs><clipPath id="inner-stroke-1c620b88-7f86-80b3-8001-c1c708da3306--0"><use href="#stroke-shape-1c620b88-7f86-80b3-8001-c1c708da3306--0"/></clipPath><rect rx="0" ry="0" x="275" y="220" width="55" height="55" id="stroke-shape-1c620b88-7f86-80b3-8001-c1c708da3306--0" style="fill: none; stroke-width: 4; stroke: rgb(255, 255, 255); stroke-opacity: 1;"/></defs><use href="#stroke-shape-1c620b88-7f86-80b3-8001-c1c708da3306--0" clip-path="url('#inner-stroke-1c620b88-7f86-80b3-8001-c1c708da3306--0')"/></g></g></g><g id="shape-8cf7a877-b6cf-8028-8001-c1c6a46bca69"><g id="fills-8cf7a877-b6cf-8028-8001-c1c6a46bca69"><rect rx="0" ry="0" x="165" y="55" transform="matrix(-1,0,0,1,385,0)" width="55" height="55" style="fill: rgb(31, 36, 28); fill-opacity: 1;"/></g><g id="strokes-8cf7a877-b6cf-8028-8001-c1c6a46bca69"><g class="inner-stroke-shape" transform="matrix(-1,0,0,1,385,0)"><defs><clipPath id="inner-stroke-1c620b88-7f86-80b3-8001-c1c708db5dbb--0"><use href="#stroke-shape-1c620b88-7f86-80b3-8001-c1c708db5dbb--0"/></clipPath><rect rx="0" ry="0" x="165" y="55" width="55" height="55" id="stroke-shape-1c620b88-7f86-80b3-8001-c1c708db5dbb--0" style="fill: none; stroke-width: 6; stroke: rgb(255, 255, 255); stroke-opacity: 1;"/></defs><use href="#stroke-shape-1c620b88-7f86-80b3-8001-c1c708db5dbb--0" clip-path="url('#inner-stroke-1c620b88-7f86-80b3-8001-c1c708db5dbb--0')"/></g></g></g><g id="shape-8cf7a877-b6cf-8028-8001-c1c6a46bca6a"><g id="fills-8cf7a877-b6cf-8028-8001-c1c6a46bca6a"><rect rx="0" ry="0" x="110" y="55" transform="matrix(-1,0,0,1,275,0)" width="55" height="55" style="fill: rgb(31, 36, 28); fill-opacity: 0.9;"/></g><g id="strokes-8cf7a877-b6cf-8028-8001-c1c6a46bca6a"><g class="inner-stroke-shape" transform="matrix(-1,0,0,1,275,0)"><defs><clipPath id="inner-stroke-1c620b88-7f86-80b3-8001-c1c708dba4e2--0"><use href="#stroke-shape-1c620b88-7f86-80b3-8001-c1c708dba4e2--0"/></clipPath><rect rx="0" ry="0" x="110" y="55" width="55" height="55" id="stroke-shape-1c620b88-7f86-80b3-8001-c1c708dba4e2--0" style="fill: none; stroke-width: 4; stroke: rgb(255, 255, 255); stroke-opacity: 1;"/></defs><use href="#stroke-shape-1c620b88-7f86-80b3-8001-c1c708dba4e2--0" clip-path="url('#inner-stroke-1c620b88-7f86-80b3-8001-c1c708dba4e2--0')"/></g></g></g><g id="shape-8cf7a877-b6cf-8028-8001-c1c6a46bca6b"><g id="fills-8cf7a877-b6cf-8028-8001-c1c6a46bca6b"><rect rx="0" ry="0" x="55" y="55" transform="matrix(-1,0,0,1,165,0)" width="55" height="55" style="fill: rgb(31, 36, 28); fill-opacity: 1;"/></g><g id="strokes-8cf7a877-b6cf-8028-8001-c1c6a46bca6b"><g class="inner-stroke-shape" transform="matrix(-1,0,0,1,165,0)"><defs><clipPath id="inner-stroke-1c620b88-7f86-80b3-8001-c1c708dc2689--0"><use href="#stroke-shape-1c620b88-7f86-80b3-8001-c1c708dc2689--0"/></clipPath><rect rx="0" ry="0" x="55" y="55" width="55" height="55" id="stroke-shape-1c620b88-7f86-80b3-8001-c1c708dc2689--0" style="fill: none; stroke-width: 2; stroke: rgb(255, 255, 255); stroke-opacity: 1;"/></defs><use href="#stroke-shape-1c620b88-7f86-80b3-8001-c1c708dc2689--0" clip-path="url('#inner-stroke-1c620b88-7f86-80b3-8001-c1c708dc2689--0')"/></g></g></g><g id="shape-8cf7a877-b6cf-8028-8001-c1c6a46bca6c"><g id="fills-8cf7a877-b6cf-8028-8001-c1c6a46bca6c"><rect rx="0" ry="0" x="275" y="275" transform="matrix(-1,0,0,1,605,0)" width="55" height="55" style="fill: rgb(31, 36, 28); fill-opacity: 1;"/></g><g id="strokes-8cf7a877-b6cf-8028-8001-c1c6a46bca6c"><g class="inner-stroke-shape" transform="matrix(-1,0,0,1,605,0)"><defs><clipPath id="inner-stroke-1c620b88-7f86-80b3-8001-c1c708dcb9ae--0"><use href="#stroke-shape-1c620b88-7f86-80b3-8001-c1c708dcb9ae--0"/></clipPath><rect rx="0" ry="0" x="275" y="275" width="55" height="55" id="stroke-shape-1c620b88-7f86-80b3-8001-c1c708dcb9ae--0" style="fill: none; stroke-width: 2; stroke: rgb(255, 255, 255); stroke-opacity: 1;"/></defs><use href="#stroke-shape-1c620b88-7f86-80b3-8001-c1c708dcb9ae--0" clip-path="url('#inner-stroke-1c620b88-7f86-80b3-8001-c1c708dcb9ae--0')"/></g></g></g><g id="shape-8cf7a877-b6cf-8028-8001-c1c6a46bca6d"><g id="fills-8cf7a877-b6cf-8028-8001-c1c6a46bca6d"><rect rx="0" ry="0" x="220" y="165" transform="matrix(-1,0,0,1,495,0)" width="55" height="55" style="fill: rgb(31, 36, 28); fill-opacity: 0.9;"/></g><g id="strokes-8cf7a877-b6cf-8028-8001-c1c6a46bca6d"><g class="inner-stroke-shape" transform="matrix(-1,0,0,1,495,0)"><defs><clipPath id="inner-stroke-1c620b88-7f86-80b3-8001-c1c708dcff67--0"><use href="#stroke-shape-1c620b88-7f86-80b3-8001-c1c708dcff67--0"/></clipPath><rect rx="0" ry="0" x="220" y="165" width="55" height="55" id="stroke-shape-1c620b88-7f86-80b3-8001-c1c708dcff67--0" style="fill: none; stroke-width: 4; stroke: rgb(255, 255, 255); stroke-opacity: 1;"/></defs><use href="#stroke-shape-1c620b88-7f86-80b3-8001-c1c708dcff67--0" clip-path="url('#inner-stroke-1c620b88-7f86-80b3-8001-c1c708dcff67--0')"/></g></g></g><g id="shape-8cf7a877-b6cf-8028-8001-c1c6a46bca6e"><g id="fills-8cf7a877-b6cf-8028-8001-c1c6a46bca6e"><rect rx="0" ry="0" x="220" y="220" transform="matrix(-1,0,0,1,495,0)" width="55" height="55" style="fill: rgb(31, 36, 28); fill-opacity: 1;"/></g><g id="strokes-8cf7a877-b6cf-8028-8001-c1c6a46bca6e"><g class="inner-stroke-shape" transform="matrix(-1,0,0,1,495,0)"><defs><clipPath id="inner-stroke-1c620b88-7f86-80b3-8001-c1c708dd624f--0"><use href="#stroke-shape-1c620b88-7f86-80b3-8001-c1c708dd624f--0"/></clipPath><rect rx="0" ry="0" x="220" y="220" width="55" height="55" id="stroke-shape-1c620b88-7f86-80b3-8001-c1c708dd624f--0" style="fill: none; stroke-width: 2; stroke: rgb(255, 255, 255); stroke-opacity: 1;"/></defs><use href="#stroke-shape-1c620b88-7f86-80b3-8001-c1c708dd624f--0" clip-path="url('#inner-stroke-1c620b88-7f86-80b3-8001-c1c708dd624f--0')"/></g></g></g><g id="shape-8cf7a877-b6cf-8028-8001-c1c6a46bca6f"><g id="fills-8cf7a877-b6cf-8028-8001-c1c6a46bca6f"><rect rx="0" ry="0" x="165" y="165" transform="matrix(-1,0,0,1,385,0)" width="55" height="55" style="fill: rgb(31, 36, 28); fill-opacity: 1;"/></g><g id="strokes-8cf7a877-b6cf-8028-8001-c1c6a46bca6f"><g class="inner-stroke-shape" transform="matrix(-1,0,0,1,385,0)"><defs><clipPath id="inner-stroke-1c620b88-7f86-80b3-8001-c1c708dd822b--0"><use href="#stroke-shape-1c620b88-7f86-80b3-8001-c1c708dd822b--0"/></clipPath><rect rx="0" ry="0" x="165" y="165" width="55" height="55" id="stroke-shape-1c620b88-7f86-80b3-8001-c1c708dd822b--0" style="fill: none; stroke-width: 2; stroke: rgb(255, 255, 255); stroke-opacity: 1;"/></defs><use href="#stroke-shape-1c620b88-7f86-80b3-8001-c1c708dd822b--0" clip-path="url('#inner-stroke-1c620b88-7f86-80b3-8001-c1c708dd822b--0')"/></g></g></g></g></svg>