<svg xmlns="http://www.w3.org/2000/svg" id="b" data-name="Calque 2" viewBox="0 0 311.97 200"><g id="c" data-name="Calque 1"><path d="m100,0h100v100c0,55.19-44.81,100-100,100h0C44.81,200,0,155.19,0,100H0C0,44.81,44.81,0,100,0Z" style="fill: #F27244; opacity: 1;"></path><g><path d="m77.83,96.38c1.56-2.73,3.69-4.86,6.39-6.39,2.7-1.53,5.73-2.29,9.08-2.29,3.92,0,7.36,1.01,10.31,3.02,2.95,2.01,5.01,4.8,6.19,8.35h-8.1c-.8-1.68-1.94-2.93-3.4-3.77-1.46-.84-3.15-1.26-5.06-1.26-2.05,0-3.87.48-5.46,1.43-1.59.96-2.83,2.31-3.72,4.05-.89,1.74-1.33,3.79-1.33,6.14s.44,4.35,1.33,6.11c.89,1.76,2.13,3.12,3.72,4.08,1.59.96,3.41,1.43,5.46,1.43,1.91,0,3.6-.43,5.06-1.28s2.59-2.12,3.4-3.8h8.1c-1.17,3.59-3.23,6.38-6.16,8.38-2.94,2-6.38,2.99-10.34,2.99-3.35,0-6.38-.76-9.08-2.29-2.7-1.53-4.83-3.65-6.39-6.37-1.56-2.72-2.34-5.8-2.34-9.26s.78-6.55,2.34-9.28Z" style="fill: #007375;"></path><path d="m121.36,122.37c-1.96-.84-3.51-2.05-4.65-3.62-1.14-1.58-1.73-3.44-1.76-5.58h7.55c.1,1.44.61,2.58,1.53,3.42.92.84,2.19,1.26,3.8,1.26s2.94-.39,3.87-1.18c.94-.79,1.41-1.82,1.41-3.09,0-1.04-.32-1.89-.96-2.57-.64-.67-1.43-1.2-2.39-1.58-.96-.38-2.27-.81-3.95-1.28-2.28-.67-4.13-1.33-5.56-1.99-1.43-.65-2.65-1.64-3.67-2.97-1.02-1.32-1.53-3.09-1.53-5.31,0-2.08.52-3.89,1.56-5.43,1.04-1.54,2.5-2.73,4.38-3.55,1.88-.82,4.02-1.23,6.44-1.23,3.62,0,6.57.88,8.83,2.64,2.26,1.76,3.51,4.22,3.75,7.37h-7.75c-.07-1.21-.58-2.21-1.53-2.99s-2.22-1.18-3.8-1.18c-1.38,0-2.47.35-3.3,1.06-.82.7-1.23,1.73-1.23,3.07,0,.94.31,1.72.93,2.34.62.62,1.39,1.12,2.31,1.51.92.39,2.22.83,3.9,1.33,2.28.67,4.14,1.34,5.58,2.01,1.44.67,2.68,1.68,3.72,3.02,1.04,1.34,1.56,3.1,1.56,5.28,0,1.88-.49,3.62-1.46,5.23-.97,1.61-2.4,2.89-4.28,3.85-1.88.96-4.11,1.43-6.69,1.43-2.45,0-4.65-.42-6.62-1.26Z" style="fill: #007375;"></path><path d="m153.53,93.84v8.81h11.82v5.59h-11.82v9.31h13.33v5.74h-20.38v-35.17h20.38v5.74h-13.33Z" style="fill: #007375;"></path><path d="m206.76,116.58h-13.99l-2.31,6.69h-7.4l12.63-35.17h8.2l12.63,35.17h-7.45l-2.31-6.69Zm-1.91-5.63l-5.08-14.69-5.08,14.69h10.16Z" style="fill: #007375;"></path><path d="m242.94,88.15v5.69h-14.64v9.01h11.22v5.59h-11.22v14.84h-7.04v-35.12h21.69Z" style="fill: #007375;"></path><path d="m272.2,104.3c-.89,1.64-2.28,2.97-4.18,3.97-1.9,1.01-4.29,1.51-7.17,1.51h-5.89v13.48h-7.04v-35.12h12.93c2.72,0,5.03.47,6.94,1.41,1.91.94,3.35,2.23,4.3,3.87.96,1.64,1.43,3.51,1.43,5.58,0,1.88-.44,3.64-1.33,5.28Zm-7.32-1.54c.94-.89,1.41-2.14,1.41-3.75,0-3.42-1.91-5.13-5.74-5.13h-5.58v10.21h5.58c1.95,0,3.39-.44,4.33-1.33Z" style="fill: #007375;"></path><path d="m300.05,116.58h-13.99l-2.32,6.69h-7.4l12.63-35.17h8.2l12.63,35.17h-7.45l-2.31-6.69Zm-1.91-5.63l-5.08-14.69-5.08,14.69h10.16Z" style="fill: #007375;"></path><path d="m105.43,143.65c-1.01-2.31-2.54-4.13-4.6-5.46s-4.49-1.99-7.27-1.99c-2.62,0-4.96.6-7.04,1.81-2.08,1.21-3.72,2.93-4.93,5.16s-1.81,4.82-1.81,7.77.6,5.55,1.81,7.8c1.21,2.25,2.85,3.97,4.93,5.18,2.08,1.21,4.43,1.81,7.04,1.81,2.45,0,4.65-.53,6.62-1.58,1.96-1.06,3.54-2.57,4.73-4.53,1.19-1.96,1.87-4.25,2.04-6.87h-14.79v-2.87h18.52v2.57c-.17,3.09-1.01,5.88-2.52,8.38-1.51,2.5-3.53,4.47-6.06,5.91-2.53,1.44-5.38,2.16-8.53,2.16s-6.21-.76-8.86-2.29c-2.65-1.53-4.74-3.66-6.26-6.39-1.53-2.73-2.29-5.83-2.29-9.28s.76-6.55,2.29-9.28c1.53-2.73,3.61-4.86,6.26-6.39,2.65-1.53,5.6-2.29,8.86-2.29,3.76,0,7.04.94,9.86,2.82s4.86,4.5,6.14,7.85h-4.13Z" style="fill: #007375;"></path><path d="m124.17,141.99c1.59-.94,3.55-1.41,5.86-1.41v3.67h-.96c-2.55,0-4.6.69-6.14,2.06-1.54,1.38-2.31,3.67-2.31,6.89v15.35h-3.52v-27.47h3.52v4.88c.77-1.71,1.95-3.04,3.55-3.97Z" style="fill: #007375;"></path><path d="m135.39,147.35c1.12-2.13,2.68-3.77,4.68-4.93,2-1.16,4.25-1.74,6.77-1.74s4.87.6,6.77,1.81c1.89,1.21,3.26,2.75,4.1,4.63v-6.04h3.52v27.47h-3.52v-6.09c-.87,1.88-2.26,3.43-4.15,4.65-1.9,1.22-4.15,1.84-6.77,1.84s-4.72-.59-6.72-1.76c-2-1.17-3.56-2.83-4.68-4.98-1.12-2.15-1.69-4.63-1.69-7.45s.56-5.29,1.69-7.42Zm20.96,1.64c-.91-1.68-2.14-2.97-3.7-3.88-1.56-.91-3.28-1.36-5.16-1.36s-3.69.44-5.23,1.31c-1.54.87-2.76,2.14-3.65,3.8-.89,1.66-1.33,3.63-1.33,5.91s.44,4.22,1.33,5.91c.89,1.69,2.1,2.99,3.65,3.87,1.54.89,3.29,1.33,5.23,1.33s3.6-.45,5.16-1.36c1.56-.91,2.79-2.2,3.7-3.87.91-1.68,1.36-3.62,1.36-5.84s-.45-4.16-1.36-5.84Z" style="fill: #007375;"></path><path d="m190.21,143.63c2.08,2.03,3.12,4.97,3.12,8.83v16.1h-3.47v-15.7c0-2.99-.75-5.27-2.24-6.84-1.49-1.58-3.53-2.37-6.11-2.37s-4.76.84-6.34,2.52c-1.58,1.68-2.36,4.14-2.36,7.4v14.99h-3.52v-27.47h3.52v4.68c.87-1.68,2.13-2.96,3.77-3.85,1.64-.89,3.5-1.33,5.58-1.33,3.29,0,5.97,1.02,8.05,3.04Z" style="fill: #007375;"></path><path d="m201.23,147.35c1.14-2.13,2.71-3.77,4.7-4.93,2-1.16,4.25-1.74,6.77-1.74s4.6.59,6.54,1.76,3.37,2.7,4.28,4.58v-15.7h3.52v37.23h-3.52v-6.14c-.84,1.91-2.21,3.48-4.13,4.71-1.91,1.22-4.16,1.84-6.74,1.84s-4.77-.59-6.77-1.76c-2-1.17-3.56-2.83-4.68-4.98-1.12-2.15-1.69-4.63-1.69-7.45s.57-5.29,1.71-7.42Zm20.93,1.64c-.91-1.68-2.14-2.97-3.7-3.88-1.56-.91-3.28-1.36-5.16-1.36s-3.69.44-5.23,1.31c-1.54.87-2.76,2.14-3.65,3.8-.89,1.66-1.33,3.63-1.33,5.91s.44,4.22,1.33,5.91c.89,1.69,2.1,2.99,3.65,3.87,1.54.89,3.29,1.33,5.23,1.33s3.6-.45,5.16-1.36c1.56-.91,2.79-2.2,3.7-3.87.91-1.68,1.36-3.62,1.36-5.84s-.45-4.16-1.36-5.84Z" style="fill: #007375;"></path><path d="m252.4,136.25v13.13h13.33v2.92h-13.33v13.33h14.84v2.92h-18.37v-35.22h18.37v2.92h-14.84Z" style="fill: #007375;"></path><path d="m275.92,166.77c-2-1.46-3.11-3.45-3.35-5.96h3.62c.17,1.54.9,2.79,2.19,3.75,1.29.96,3.03,1.43,5.21,1.43,1.91,0,3.41-.45,4.5-1.36,1.09-.91,1.63-2.03,1.63-3.37,0-.94-.3-1.71-.91-2.31s-1.37-1.08-2.29-1.43c-.92-.35-2.17-.73-3.75-1.13-2.05-.54-3.71-1.07-4.98-1.61-1.27-.54-2.36-1.33-3.25-2.39s-1.33-2.47-1.33-4.25c0-1.34.4-2.58,1.21-3.72.81-1.14,1.95-2.05,3.42-2.72,1.48-.67,3.15-1.01,5.03-1.01,2.95,0,5.33.75,7.15,2.24,1.81,1.49,2.78,3.55,2.92,6.16h-3.52c-.1-1.61-.73-2.91-1.89-3.9s-2.74-1.48-4.75-1.48c-1.78,0-3.22.42-4.33,1.26-1.11.84-1.66,1.88-1.66,3.12,0,1.07.33,1.96.98,2.64.65.69,1.47,1.22,2.44,1.61.97.39,2.28.81,3.92,1.28,1.98.54,3.56,1.06,4.73,1.56,1.17.5,2.18,1.24,3.02,2.21.84.97,1.27,2.26,1.31,3.87,0,1.48-.4,2.79-1.21,3.95s-1.93,2.07-3.37,2.74c-1.44.67-3.1,1.01-4.98,1.01-3.15,0-5.73-.73-7.72-2.19Z" style="fill: #007375;"></path><path d="m304.42,144.05v17.06c0,1.68.32,2.83.96,3.47.64.64,1.76.96,3.37.96h3.22v3.02h-3.77c-2.48,0-4.33-.58-5.54-1.74-1.21-1.16-1.81-3.06-1.81-5.71v-17.06h-3.82v-2.97h3.82v-6.89h3.57v6.89h7.55v2.97h-7.55Z" style="fill: #007375;"></path></g></g></svg>