<?xml version="1.0" encoding="UTF-8"?><svg id="LOGO_ACCOLADE" xmlns="http://www.w3.org/2000/svg" viewBox="0 0 22 22"><defs><style>.cls-1{fill:#fff;}.cls-2{fill:#7a9a3d;}</style></defs><g id="ELEMENT"><path id="path12461" class="cls-2" d="m5.04,1.62c-1.75.28-3.12,1.65-3.4,3.41-.3,1.88-.46,3.89-.46,5.97s.16,4.09.46,5.97c.28,1.75,1.65,3.13,3.4,3.41,1.88.3,3.88.46,5.96.46s4.08-.16,5.96-.46c1.75-.28,3.12-1.65,3.4-3.41.3-1.88.46-3.89.46-5.97s-.16-4.09-.46-5.97c-.28-1.75-1.65-3.13-3.4-3.41-1.88-.3-3.88-.46-5.96-.46s-4.08.16-5.96.46"/><path id="path12469" class="cls-1" d="m19.99,5.29c-.26-1.62-1.53-2.89-3.15-3.15-1.73-.28-3.58-.43-5.5-.43,0,.18,0,.35,0,.51.13,2.2.22,4.41.42,6.61.07.79.02,1.51-2.04,2.02,1.98.49,2.12,1.18,2.05,1.95-.2,2.23-.29,4.46-.43,6.68,0,.14,0,.28,0,.44,1.92,0,3.76-.15,5.5-.43,1.62-.26,2.89-1.53,3.15-3.15.28-1.74.43-3.6.43-5.53,0-1.93-.15-3.79-.43-5.53"/><path id="path12465" class="cls-1" d="m9.06,16.2c.04-1.36,0-2.72,0-4.18-.44-.17-1.07-.4-1.7-.65-.91-.36-.98-.74.03-1.03,1.65-.48,2.01-1.1,1.9-1.96-.27-2.2-.33-4.4-.47-6.59-1.04.07-2.06.19-3.04.34-1.62.26-2.89,1.53-3.15,3.15-.28,1.74-.43,3.6-.43,5.53s.15,3.79.43,5.53c.26,1.62,1.53,2.89,3.15,3.15.98.16,2,.27,3.04.34.07-1.21.18-2.43.21-3.64"/></g></svg>