<svg id="LOGO_ACCOLADE" xmlns="http://www.w3.org/2000/svg" viewBox="0 0 80 22">
    <defs>
        <style>.cls-1{fill:#fff;}.cls-2{fill:#7a9a3d;}.cls-3{fill:#1c241f;}.cls-4{fill:#b3b3b3;}</style>
    </defs>
    <g id="LOGO_FOND_NOIR">
        <path id="path12461" class="cls-2"
              d="m4.46,1.62c-1.75.28-3.12,1.65-3.4,3.41-.3,1.88-.46,3.89-.46,5.97s.16,4.09.46,5.97c.28,1.75,1.65,3.13,3.4,3.41,1.88.3,3.88.46,5.96.46s4.08-.16,5.96-.46c1.75-.28,3.12-1.65,3.4-3.41.3-1.88.46-3.89.46-5.97s-.16-4.09-.46-5.97c-.28-1.75-1.65-3.13-3.4-3.41-1.88-.3-3.88-.46-5.96-.46s-4.08.16-5.96.46"/>
        <path id="path12465" class="cls-1"
              d="m8.48,16.2c.04-1.36,0-2.72,0-4.18-.44-.17-1.07-.4-1.7-.65-.91-.36-.98-.74.03-1.03,1.65-.48,2.01-1.1,1.9-1.96-.27-2.2-.33-4.4-.47-6.59-1.04.07-2.06.19-3.04.34-1.62.26-2.89,1.53-3.15,3.15-.28,1.74-.43,3.6-.43,5.53s.15,3.79.43,5.53c.26,1.62,1.53,2.89,3.15,3.15.98.16,2,.27,3.04.34.07-1.21.18-2.43.21-3.64"/>
        <path id="path12469" class="cls-1"
              d="m19.41,5.29c-.26-1.62-1.53-2.89-3.15-3.15-1.73-.28-3.58-.43-5.5-.43,0,.18,0,.35,0,.51.13,2.2.22,4.41.42,6.61.07.79.02,1.51-2.04,2.02,1.98.49,2.12,1.18,2.05,1.95-.2,2.23-.29,4.46-.43,6.68,0,.14,0,.28,0,.44,1.92,0,3.76-.15,5.5-.43,1.62-.26,2.89-1.53,3.15-3.15.28-1.74.43-3.6.43-5.53,0-1.93-.15-3.79-.43-5.53"/>
        <path id="path12473" class="cls-3"
              d="m37.01,8.08v-.17c0-.13.02-.22.07-.27.05-.05.11-.08.19-.08.08,0,.14.03.19.08.05.05.07.14.07.27v1.18c0,.13-.03.22-.08.27-.05.05-.11.08-.19.08-.07,0-.13-.02-.18-.07-.05-.05-.08-.13-.08-.24-.02-.29-.22-.57-.58-.83s-.85-.4-1.45-.4c-.77,0-1.35.24-1.75.72-.4.48-.6,1.03-.6,1.66,0,.67.22,1.23.66,1.66.44.44,1.01.66,1.71.66.4,0,.81-.07,1.23-.22.42-.15.8-.39,1.13-.72.09-.08.16-.12.23-.12.07,0,.13.02.18.07.05.05.07.11.07.18,0,.18-.21.4-.62.67-.67.44-1.42.66-2.24.66s-1.52-.27-2.06-.8c-.54-.53-.81-1.21-.81-2.03s.27-1.53.82-2.08c.55-.55,1.24-.83,2.08-.83.79,0,1.46.24,2,.71"/>
        <path id="path12477" class="cls-2"
              d="m43.96,8.08v-.17c0-.13.02-.22.07-.27.05-.05.11-.08.19-.08.08,0,.14.03.19.08.05.05.07.14.07.27v1.18c0,.13-.03.22-.08.27-.05.05-.11.08-.19.08-.07,0-.13-.02-.18-.07-.05-.05-.08-.13-.08-.24-.02-.29-.22-.57-.58-.83s-.85-.4-1.45-.4c-.77,0-1.35.24-1.75.72-.4.48-.6,1.03-.6,1.66,0,.67.22,1.23.66,1.66.44.44,1.01.66,1.71.66.4,0,.81-.07,1.23-.22.42-.15.8-.39,1.13-.72.09-.08.16-.12.23-.12.07,0,.13.02.18.07.05.05.07.11.07.18,0,.18-.21.4-.62.67-.67.44-1.42.66-2.24.66s-1.52-.27-2.06-.8c-.54-.53-.81-1.21-.81-2.03s.27-1.53.82-2.08c.55-.55,1.24-.83,2.08-.83.79,0,1.46.24,2,.71"/>
        <path id="path12481" class="cls-2"
              d="m51.13,10.24c0-.65-.23-1.21-.69-1.66-.46-.46-1.02-.69-1.68-.69s-1.22.23-1.68.69c-.46.46-.69,1.01-.69,1.66s.23,1.2.69,1.66c.46.46,1.02.69,1.68.69s1.22-.23,1.68-.69c.46-.46.69-1.01.69-1.66m.52,0c0,.79-.28,1.47-.85,2.03-.57.56-1.25.84-2.05.84s-1.49-.28-2.06-.84c-.56-.56-.85-1.24-.85-2.03s.28-1.47.85-2.03c.56-.56,1.25-.84,2.06-.84s1.48.28,2.05.84c.57.56.85,1.24.85,2.03"/>
        <path id="path12485" class="cls-3"
              d="m55.98,5.14v7.24h2.04c.13,0,.22.02.27.07.05.05.08.11.08.19,0,.07-.03.14-.08.19-.05.05-.14.07-.27.07h-4.59c-.12,0-.21-.02-.27-.07-.05-.05-.08-.11-.08-.19,0-.08.03-.14.08-.19.05-.05.14-.07.27-.07h2.04v-6.72h-1.49c-.12,0-.21-.02-.27-.07-.06-.05-.08-.11-.08-.19,0-.07.03-.14.08-.19.05-.05.14-.07.27-.07h2.01Z"/>
        <path id="path12489" class="cls-3"
              d="m64.16,10.32c-.24-.07-.5-.12-.77-.15-.27-.03-.56-.05-.86-.05-.75,0-1.34.16-1.77.49-.32.24-.48.53-.48.87,0,.31.12.58.37.79.24.21.6.32,1.07.32s.87-.09,1.25-.27c.38-.18.78-.46,1.19-.86v-1.14Zm0,2.58v-.75c-.75.63-1.56.95-2.41.95-.62,0-1.11-.16-1.46-.47-.35-.32-.52-.7-.52-1.16,0-.5.23-.94.69-1.32.46-.38,1.13-.56,2.02-.56.24,0,.5.02.78.05.28.03.58.08.91.15v-.84c0-.28-.13-.53-.4-.74-.26-.21-.66-.32-1.19-.32-.4,0-.97.12-1.7.35-.13.04-.22.06-.25.06-.07,0-.12-.02-.17-.07-.05-.05-.07-.11-.07-.19,0-.07.02-.13.06-.17.06-.06.29-.15.7-.25.64-.17,1.13-.26,1.46-.26.65,0,1.17.16,1.53.49.37.32.55.69.55,1.1v3.44h.69c.13,0,.22.02.27.07.05.05.08.11.08.19s-.03.14-.08.19c-.05.05-.14.07-.27.07h-1.22Z"/>
        <path id="path12493" class="cls-2"
              d="m71.64,10.24c0-.66-.22-1.22-.67-1.67-.44-.45-.97-.68-1.59-.68s-1.15.23-1.59.68c-.44.45-.67,1.01-.67,1.67s.22,1.21.67,1.67c.44.46.98.68,1.59.68s1.14-.23,1.59-.68c.44-.46.67-1.01.67-1.67m.52-5.1v7.24h.69c.13,0,.22.02.27.07.05.05.08.11.08.19,0,.07-.03.14-.08.19-.05.05-.14.07-.27.07h-1.22v-1.03c-.6.82-1.36,1.24-2.29,1.24-.47,0-.92-.12-1.35-.37-.43-.25-.77-.6-1.02-1.07-.25-.46-.37-.94-.37-1.43s.12-.97.37-1.43c.25-.46.59-.82,1.02-1.07.43-.25.88-.38,1.36-.38.91,0,1.67.41,2.28,1.24v-2.93h-.69c-.13,0-.22-.02-.27-.07-.05-.05-.08-.11-.08-.19,0-.07.03-.14.08-.19.05-.05.14-.07.27-.07h1.22Z"/>
        <path id="path12497" class="cls-2"
              d="m78.87,9.83c-.1-.57-.37-1.04-.81-1.4-.44-.36-.96-.54-1.57-.54s-1.13.18-1.56.53c-.44.35-.71.82-.82,1.4h4.75Zm.52.53h-5.29c.09.67.37,1.21.84,1.62.47.41,1.05.62,1.75.62.39,0,.79-.06,1.22-.19.42-.13.77-.3,1.04-.51.08-.06.15-.09.2-.09.07,0,.12.03.17.08.05.05.07.11.07.18s-.03.14-.1.2c-.2.21-.55.4-1.05.58-.5.18-1.02.27-1.55.27-.89,0-1.63-.29-2.23-.88-.59-.58-.89-1.29-.89-2.12,0-.75.28-1.4.84-1.94.56-.54,1.25-.81,2.07-.81s1.55.28,2.09.83c.55.55.82,1.27.81,2.16"/>
        <path id="path2262" class="cls-3"
              d="m29.41,10.5h-4.31l-.88,2.19h1.26c.16,0,.27.03.34.09.07.05.1.12.1.21,0,.09-.03.16-.1.21s-.18.09-.34.09h-2.45c-.16,0-.27-.03-.34-.09-.07-.06-.1-.13-.1-.21,0-.09.03-.16.1-.21.07-.06.18-.09.34-.09h.51l2.9-7.13h-1.94c-.16,0-.27-.03-.34-.08-.07-.06-.1-.13-.1-.22s.03-.16.1-.21c.07-.06.18-.09.34-.09h3.3l3.2,7.73h.51c.16,0,.27.03.34.09.07.05.1.12.1.21,0,.09-.03.16-.1.21s-.18.09-.34.09h-2.44c-.16,0-.28-.03-.34-.09s-.1-.13-.1-.21c0-.09.03-.16.1-.21.07-.06.18-.09.34-.09h1.25l-.9-2.19Zm-.25-.6l-1.81-4.35h-.24l-1.76,4.35h3.81Z"/>
        <g id="text12511">
            <path id="path637" class="cls-4" d="m36.19,15.62l-.67,2.04h-.33l-.67-2.04h.26l.58,1.79.58-1.79h.25Z"/>
            <path id="path639" class="cls-4"
                  d="m37.49,16.92h-1.02c0,.09.01.18.04.25.03.07.06.13.11.17.04.04.09.08.15.1.06.02.12.03.2.03.09,0,.19-.02.28-.06.1-.04.16-.08.2-.12h.01v.28c-.08.04-.16.07-.24.09s-.17.04-.26.04c-.23,0-.41-.07-.54-.21-.13-.14-.19-.33-.19-.59s.06-.45.18-.6c.12-.15.29-.22.49-.22.19,0,.33.06.43.18.1.12.15.29.15.51v.14Zm-.23-.2c0-.14-.03-.24-.09-.31-.06-.07-.15-.11-.28-.11s-.22.04-.3.12c-.07.08-.12.18-.13.3h.79Z"/>
            <path id="path641" class="cls-4"
                  d="m38.71,16.41h-.01s-.07-.02-.1-.02c-.03,0-.07,0-.12,0-.07,0-.14.02-.21.05-.07.03-.13.08-.19.14v1.09h-.23v-1.53h.23v.23c.09-.08.17-.14.24-.17.07-.03.14-.05.22-.05.04,0,.07,0,.09,0,.02,0,.05,0,.08.01v.26Z"/>
            <path id="path643" class="cls-4"
                  d="m39.92,17.22c0,.14-.05.25-.16.34-.1.09-.25.13-.43.13-.1,0-.2-.01-.28-.04-.09-.03-.16-.06-.21-.09v-.29h.01c.07.06.16.11.25.15.09.04.18.05.26.05.1,0,.18-.02.24-.05s.09-.09.09-.17c0-.06-.02-.11-.05-.14-.03-.03-.09-.06-.18-.08-.03,0-.08-.02-.13-.03-.05-.01-.1-.02-.15-.04-.12-.04-.21-.09-.26-.16-.05-.07-.08-.15-.08-.25,0-.06.01-.12.03-.18.02-.06.06-.11.11-.15.05-.04.11-.08.18-.1.07-.03.15-.04.24-.04.08,0,.17.01.25.03.09.02.16.05.21.08v.28h-.01c-.06-.05-.13-.09-.22-.12-.09-.03-.17-.05-.25-.05s-.16.02-.22.05c-.06.04-.09.09-.09.16,0,.06.02.11.05.14.03.03.09.06.17.08.04.01.09.02.14.03.05.01.1.02.13.03.11.03.19.07.25.14.06.07.09.16.09.27Z"/>
            <path id="path645" class="cls-4" d="m41.38,17.66h-.23v-2.13h.23v2.13Z"/>
            <path id="path647" class="cls-4"
                  d="m43.01,16.92h-1.02c0,.09.01.18.04.25.03.07.06.13.11.17.04.04.09.08.15.1.06.02.12.03.2.03.09,0,.19-.02.28-.06.1-.04.16-.08.2-.12h.01v.28c-.08.04-.16.07-.24.09s-.17.04-.26.04c-.23,0-.41-.07-.54-.21-.13-.14-.19-.33-.19-.59s.06-.45.18-.6c.12-.15.29-.22.49-.22.19,0,.33.06.43.18.1.12.15.29.15.51v.14Zm-.23-.2c0-.14-.03-.24-.09-.31-.06-.07-.15-.11-.28-.11s-.22.04-.3.12c-.07.08-.12.18-.13.3h.79Z"/>
            <path id="path649" class="cls-4"
                  d="m45.41,17.66h-.23v-.87c0-.07,0-.14-.01-.2,0-.06-.02-.11-.04-.15-.02-.04-.05-.07-.09-.08-.04-.02-.09-.03-.15-.03s-.13.02-.2.05c-.07.03-.14.08-.2.13v1.14h-.23v-1.53h.23v.17c.07-.07.15-.12.23-.16s.16-.06.24-.06c.15,0,.26.05.34.15.08.1.12.24.12.43v.99Z"/>
            <path id="path651" class="cls-4"
                  d="m47.01,17.66h-.23v-.17c-.08.07-.15.12-.23.16-.07.04-.15.05-.24.05-.15,0-.26-.05-.34-.15-.08-.1-.12-.24-.12-.43v-.99h.23v.87c0,.08,0,.14,0,.2,0,.05.02.1.04.14.02.04.05.07.09.09s.09.03.16.03c.06,0,.13-.02.2-.05.07-.03.14-.08.2-.13v-1.14h.23v1.53Z"/>
            <path id="path653" class="cls-4"
                  d="m49.5,17.66h-.23v-.87c0-.07,0-.13,0-.19,0-.06-.02-.11-.03-.15-.02-.04-.05-.07-.08-.09-.04-.02-.09-.03-.15-.03s-.13.02-.2.05c-.07.04-.13.08-.2.14,0,.02,0,.05,0,.07,0,.03,0,.05,0,.08v.98h-.23v-.87c0-.07,0-.13,0-.19,0-.06-.02-.11-.03-.15-.02-.04-.05-.07-.08-.09-.04-.02-.09-.03-.15-.03s-.13.02-.19.05c-.06.03-.13.08-.19.13v1.14h-.23v-1.53h.23v.17c.07-.07.15-.12.22-.16.07-.04.15-.06.23-.06.09,0,.17.02.24.07.07.04.12.1.15.18.09-.09.18-.15.26-.19.08-.04.16-.06.25-.06.15,0,.26.05.34.15.07.1.11.24.11.43v.99Z"/>
            <path id="path655" class="cls-4"
                  d="m51.11,16.92h-1.02c0,.09.01.18.04.25.03.07.06.13.11.17.04.04.09.08.15.1.06.02.12.03.2.03.09,0,.19-.02.28-.06.1-.04.16-.08.2-.12h.01v.28c-.08.04-.16.07-.24.09-.08.02-.17.04-.26.04-.23,0-.41-.07-.54-.21-.13-.14-.19-.33-.19-.59s.06-.45.18-.6c.12-.15.29-.22.49-.22.19,0,.33.06.43.18.1.12.15.29.15.51v.14Zm-.23-.2c0-.14-.03-.24-.09-.31-.06-.07-.15-.11-.28-.11s-.22.04-.3.12c-.07.08-.12.18-.13.3h.79Zm.03-1.36l-.34.51h-.18l.22-.51h.3Z"/>
            <path id="path657" class="cls-4"
                  d="m52.32,16.41h-.01s-.07-.02-.1-.02c-.03,0-.07,0-.12,0-.07,0-.14.02-.21.05-.07.03-.13.08-.19.14v1.09h-.23v-1.53h.23v.23c.09-.08.17-.14.24-.17.07-.03.14-.05.22-.05.04,0,.07,0,.09,0,.02,0,.05,0,.08.01v.26Z"/>
            <path id="path659" class="cls-4" d="m52.8,15.87h-.26v-.27h.26v.27Zm-.01,1.79h-.23v-1.53h.23v1.53Z"/>
            <path id="path661" class="cls-4"
                  d="m54.37,18.22h-.23v-.74c-.07.07-.14.12-.21.15-.07.03-.15.05-.23.05-.16,0-.3-.07-.39-.21-.1-.14-.15-.33-.15-.58,0-.13.02-.25.05-.35.03-.1.08-.19.14-.25.05-.07.12-.12.19-.15.07-.04.15-.05.23-.05.07,0,.14,0,.2.03.06.02.12.05.18.08v-.07h.23v2.09Zm-.23-.95v-.87c-.06-.03-.12-.05-.17-.07-.05-.01-.1-.02-.16-.02-.13,0-.24.05-.31.15-.07.1-.11.24-.11.42s.03.32.08.41c.06.1.15.14.27.14.07,0,.14-.02.2-.05.07-.03.13-.07.19-.13Z"/>
            <path id="path663" class="cls-4"
                  d="m55.98,17.66h-.23v-.17c-.08.07-.15.12-.23.16-.07.04-.15.05-.24.05-.15,0-.26-.05-.34-.15-.08-.1-.12-.24-.12-.43v-.99h.23v.87c0,.08,0,.14,0,.2,0,.05.02.1.04.14.02.04.05.07.09.09.04.02.09.03.16.03.06,0,.13-.02.2-.05.07-.03.14-.08.2-.13v-1.14h.23v1.53Z"/>
            <path id="path665" class="cls-4"
                  d="m57.6,16.92h-1.02c0,.09.01.18.04.25.03.07.06.13.11.17.04.04.09.08.15.1.06.02.12.03.2.03.09,0,.19-.02.28-.06.1-.04.16-.08.2-.12h.01v.28c-.08.04-.16.07-.24.09-.08.02-.17.04-.26.04-.23,0-.41-.07-.54-.21-.13-.14-.19-.33-.19-.59s.06-.45.18-.6c.12-.15.29-.22.49-.22.19,0,.33.06.43.18.1.12.15.29.15.51v.14Zm-.23-.2c0-.14-.03-.24-.09-.31-.06-.07-.15-.11-.28-.11s-.22.04-.3.12c-.07.08-.12.18-.13.3h.79Z"/>
            <path id="path667" class="cls-4"
                  d="m60,16.92h-1.02c0,.09.01.18.04.25.03.07.06.13.11.17.04.04.09.08.15.1.06.02.12.03.2.03.09,0,.19-.02.28-.06.1-.04.16-.08.2-.12h.01v.28c-.08.04-.16.07-.24.09s-.17.04-.26.04c-.23,0-.41-.07-.54-.21-.13-.14-.19-.33-.19-.59s.06-.45.18-.6c.12-.15.29-.22.49-.22.19,0,.33.06.43.18.1.12.15.29.15.51v.14Zm-.23-.2c0-.14-.03-.24-.09-.31-.06-.07-.15-.11-.28-.11s-.22.04-.3.12c-.07.08-.12.18-.13.3h.79Zm.03-1.36l-.34.51h-.18l.22-.51h.3Z"/>
            <path id="path669" class="cls-4"
                  d="m61.38,17.56c-.08.04-.15.07-.22.1-.07.02-.14.03-.22.03-.1,0-.19-.02-.28-.05-.08-.03-.16-.08-.21-.15-.06-.07-.11-.15-.14-.25s-.05-.22-.05-.35c0-.25.06-.45.19-.59.12-.14.29-.21.49-.21.08,0,.16.01.23.04.08.02.15.05.21.09v.29h-.01c-.07-.06-.14-.11-.22-.14-.08-.03-.15-.05-.22-.05-.13,0-.24.05-.31.15-.08.1-.11.24-.11.43s.04.33.11.43c.08.1.18.15.32.15.05,0,.1,0,.14-.02.05-.01.09-.03.13-.05.03-.02.07-.04.1-.06.03-.02.05-.04.07-.06h.01v.28Z"/>
            <path id="path671" class="cls-4"
                  d="m62.86,16.89c0,.25-.06.45-.17.59-.12.14-.27.22-.47.22s-.35-.07-.47-.22c-.12-.14-.17-.34-.17-.59s.06-.45.17-.59c.12-.15.27-.22.47-.22s.35.07.47.22c.12.14.17.34.17.59Zm-.24,0c0-.2-.04-.35-.11-.44-.07-.1-.17-.15-.29-.15s-.23.05-.3.15c-.07.1-.1.24-.1.44,0,.19.04.34.11.44.07.1.17.15.29.15.12,0,.22-.05.29-.15.07-.1.11-.24.11-.44Z"/>
            <path id="path673" class="cls-4" d="m63.96,16.89h-.77v-.25h.77v.25Z"/>
            <path id="path675" class="cls-4"
                  d="m65.25,16.41h-.01s-.07-.02-.1-.02c-.03,0-.07,0-.12,0-.07,0-.14.02-.21.05-.07.03-.13.08-.19.14v1.09h-.23v-1.53h.23v.23c.09-.08.17-.14.24-.17.07-.03.14-.05.22-.05.04,0,.07,0,.09,0,.02,0,.05,0,.08.01v.26Z"/>
            <path id="path677" class="cls-4"
                  d="m66.63,16.92h-1.02c0,.09.01.18.04.25.03.07.06.13.11.17.04.04.09.08.15.1.06.02.12.03.2.03.09,0,.19-.02.28-.06.1-.04.16-.08.2-.12h.01v.28c-.08.04-.16.07-.24.09-.08.02-.17.04-.26.04-.23,0-.41-.07-.54-.21-.13-.14-.19-.33-.19-.59s.06-.45.18-.6c.12-.15.29-.22.49-.22.19,0,.33.06.43.18.1.12.15.29.15.51v.14Zm-.23-.2c0-.14-.03-.24-.09-.31-.06-.07-.15-.11-.28-.11s-.22.04-.3.12c-.07.08-.12.18-.13.3h.79Z"/>
            <path id="path679" class="cls-4"
                  d="m67.97,17.22c0,.14-.05.25-.16.34-.1.09-.25.13-.43.13-.1,0-.2-.01-.28-.04-.09-.03-.16-.06-.21-.09v-.29h.01c.07.06.16.11.25.15.09.04.18.05.26.05.1,0,.18-.02.24-.05.06-.04.09-.09.09-.17,0-.06-.02-.11-.05-.14-.03-.03-.09-.06-.18-.08-.03,0-.08-.02-.13-.03-.05-.01-.1-.02-.15-.04-.12-.04-.21-.09-.26-.16-.05-.07-.08-.15-.08-.25,0-.06.01-.12.03-.18.02-.06.06-.11.11-.15.05-.04.11-.08.18-.1.07-.03.15-.04.24-.04.08,0,.17.01.25.03.09.02.16.05.21.08v.28h-.01c-.06-.05-.13-.09-.22-.12-.09-.03-.17-.05-.25-.05s-.16.02-.22.05c-.06.04-.09.09-.09.16,0,.06.02.11.05.14.03.03.09.06.17.08.04.01.09.02.14.03.05.01.1.02.13.03.11.03.19.07.25.14.06.07.09.16.09.27Z"/>
            <path id="path681" class="cls-4"
                  d="m69.52,16.87c0,.12-.02.24-.05.34-.03.1-.08.19-.14.26-.05.07-.12.12-.19.16-.07.04-.15.05-.23.05-.07,0-.14,0-.2-.03-.06-.02-.12-.04-.18-.08v.64h-.23v-2.09h.23v.16c.06-.06.13-.11.21-.14.08-.04.16-.06.25-.06.17,0,.3.07.39.21.09.14.14.33.14.58h0Zm-.24,0c0-.18-.03-.32-.09-.41-.06-.09-.14-.14-.26-.14-.07,0-.13.02-.2.05-.07.03-.13.07-.19.13v.87c.07.03.12.06.17.07.05.01.1.02.16.02.13,0,.23-.05.3-.15.07-.1.11-.24.11-.43h0Z"/>
            <path id="path683" class="cls-4"
                  d="m71.07,16.89c0,.25-.06.45-.17.59s-.27.22-.47.22-.35-.07-.47-.22c-.12-.14-.17-.34-.17-.59s.06-.45.17-.59c.12-.15.27-.22.47-.22s.35.07.47.22c.12.14.17.34.17.59Zm-.24,0c0-.2-.04-.35-.11-.44-.07-.1-.17-.15-.29-.15s-.23.05-.3.15c-.07.1-.1.24-.1.44s.04.34.11.44c.07.1.17.15.29.15.12,0,.22-.05.29-.15.07-.1.11-.24.11-.44h0Z"/>
            <path id="path685" class="cls-4"
                  d="m72.59,17.66h-.23v-.87c0-.07,0-.14-.01-.2,0-.06-.02-.11-.04-.15-.02-.04-.05-.07-.09-.08-.04-.02-.09-.03-.15-.03s-.13.02-.2.05c-.07.03-.14.08-.2.13v1.14h-.23v-1.53h.23v.17c.07-.07.15-.12.23-.16s.16-.06.24-.06c.15,0,.26.05.34.15.08.1.12.24.12.43v.99Z"/>
            <path id="path687" class="cls-4"
                  d="m74.03,17.22c0,.14-.05.25-.16.34-.1.09-.25.13-.43.13-.1,0-.2-.01-.28-.04-.09-.03-.16-.06-.21-.09v-.29h.01c.07.06.16.11.25.15.09.04.18.05.26.05.1,0,.18-.02.24-.05s.09-.09.09-.17c0-.06-.02-.11-.05-.14-.03-.03-.09-.06-.18-.08-.03,0-.08-.02-.13-.03-.05-.01-.1-.02-.15-.04-.12-.04-.21-.09-.26-.16-.05-.07-.08-.15-.08-.25,0-.06.01-.12.03-.18.02-.06.06-.11.11-.15.05-.04.11-.08.18-.1.07-.03.15-.04.24-.04.08,0,.17.01.25.03.09.02.16.05.21.08v.28h-.01c-.06-.05-.13-.09-.22-.12-.09-.03-.17-.05-.25-.05s-.16.02-.22.05c-.06.04-.09.09-.09.16,0,.06.02.11.05.14.03.03.09.06.17.08.04.01.09.02.14.03.05.01.1.02.13.03.11.03.19.07.25.14.06.07.09.16.09.27Z"/>
            <path id="path689" class="cls-4"
                  d="m75.44,17.66h-.23v-.16s-.05.04-.08.07c-.03.03-.07.05-.1.07-.04.02-.08.04-.13.05-.05.01-.11.02-.18.02-.12,0-.23-.05-.32-.14-.09-.09-.13-.21-.13-.35,0-.12.02-.21.07-.28.05-.07.11-.13.19-.17.08-.04.19-.07.3-.08.12-.01.25-.03.38-.03v-.04c0-.06,0-.11-.03-.15-.02-.04-.04-.07-.08-.09-.03-.02-.07-.04-.12-.04-.05,0-.09-.01-.15-.01-.06,0-.13,0-.2.03-.08.02-.15.04-.23.08h-.01v-.26s.11-.03.2-.05c.09-.02.17-.02.25-.02.1,0,.18,0,.25.03.07.02.14.05.19.09.05.04.09.1.12.16.03.07.04.15.04.25v1.04Zm-.23-.38v-.43c-.07,0-.16.01-.25.02-.1,0-.17.02-.23.04-.07.02-.12.05-.16.1-.04.04-.06.1-.06.18,0,.09.02.15.07.2.05.04.12.07.22.07.08,0,.16-.02.22-.05.07-.04.13-.08.19-.13Z"/>
            <path id="path691" class="cls-4"
                  d="m77.11,16.88c0,.13-.02.24-.05.35-.03.1-.08.19-.13.26-.06.07-.12.13-.19.16-.07.04-.15.05-.23.05-.08,0-.15-.01-.21-.03-.06-.02-.12-.05-.17-.08v.07h-.23v-2.13h.23v.76c.07-.06.13-.11.21-.15.07-.04.16-.06.25-.06.16,0,.29.07.39.21.1.14.14.33.14.59h0Zm-.24,0c0-.18-.03-.32-.08-.41-.05-.09-.14-.14-.26-.14-.07,0-.14.02-.21.05-.07.03-.13.07-.19.12v.88c.07.03.12.06.17.07.05.01.1.02.16.02.13,0,.23-.05.3-.14.07-.09.11-.24.11-.44Z"/>
            <path id="path693" class="cls-4" d="m77.71,17.66h-.23v-2.13h.23v2.13Z"/>
            <path id="path695" class="cls-4"
                  d="m79.33,16.92h-1.02c0,.09.01.18.04.25.03.07.06.13.11.17.04.04.09.08.15.1.06.02.12.03.2.03.09,0,.19-.02.28-.06.1-.04.16-.08.2-.12h.01v.28c-.08.04-.16.07-.24.09s-.17.04-.26.04c-.23,0-.41-.07-.54-.21-.13-.14-.19-.33-.19-.59s.06-.45.18-.6c.12-.15.29-.22.49-.22.19,0,.33.06.43.18.1.12.15.29.15.51v.14Zm-.23-.2c0-.14-.03-.24-.09-.31-.06-.07-.15-.11-.28-.11s-.22.04-.3.12c-.07.08-.12.18-.13.3h.79Z"/>
        </g>
    </g>
</svg>