<svg width="60" height="60" viewBox="0 0 60 60" fill="none" xmlns="http://www.w3.org/2000/svg">
    <rect width="60" height="60" fill="#B1D239"/>
    <g clip-path="url(#clip0_469_151)">
        <path d="M15.936 15.6239C16.452 15.6239 16.872 15.2039 16.872 14.6879V11.8759H19.684C20.2 11.8759 20.62 11.4559 20.62 10.9399C20.62 10.4239 20.2 10.0039 19.684 10.0039H15.936C15.42 9.99993 15 10.4199 15 10.9359V14.6879C15 15.2039 15.42 15.6239 15.936 15.6239Z" fill="#44484A"/>
        <path d="M40.312 11.876H43.124V14.688C43.124 15.204 43.544 15.624 44.06 15.624C44.576 15.624 44.996 15.204 44.996 14.688V10.936C44.996 10.42 44.576 10 44.06 10H40.312C39.796 10 39.376 10.42 39.376 10.936C39.376 11.452 39.796 11.872 40.312 11.872V11.876Z" fill="#44484A"/>
        <path d="M19.688 38.124H16.876V35.312C16.876 34.796 16.456 34.376 15.94 34.376C15.424 34.376 15.004 34.796 15.004 35.312V39.06C15.004 39.576 15.424 39.996 15.94 39.996H19.692C20.208 39.996 20.628 39.576 20.628 39.06C20.628 38.544 20.208 38.124 19.692 38.124H19.688Z" fill="#44484A"/>
        <path d="M44.064 34.376C43.548 34.376 43.128 34.796 43.128 35.312V38.124H40.316C39.8 38.124 39.38 38.544 39.38 39.06C39.38 39.576 39.8 39.996 40.316 39.996H44.064C44.58 39.996 45 39.576 45 39.06V35.312C45 34.796 44.58 34.376 44.064 34.376Z" fill="#44484A"/>
        <path d="M38.98 13.8564H28.288C27.04 13.8564 26.028 14.8684 26.028 16.1164V21.5364H21.024C19.78 21.5364 18.764 22.5484 18.764 23.7964V30.7964C18.764 32.0444 19.776 33.0564 21.024 33.0564H21.984V34.9804C21.984 35.2164 22.044 35.4484 22.176 35.6444C22.404 35.9724 22.772 36.1444 23.124 36.1444C23.356 36.1444 23.584 36.0724 23.784 35.9364L27.372 33.4044C27.692 33.1804 28.072 33.0604 28.46 33.0604H31.716C32.964 33.0604 33.976 32.0484 33.976 30.8004V26.5044L36.456 28.2564C36.652 28.3924 36.884 28.4644 37.112 28.4644C37.304 28.4644 37.5 28.4124 37.676 28.3124C38.044 28.1044 38.252 27.6964 38.252 27.2724V25.3764H38.98C40.224 25.3764 41.24 24.3644 41.24 23.1164V16.1164C41.24 14.8684 40.228 13.8564 38.98 13.8564ZM32.576 30.7964C32.576 31.2724 32.188 31.6604 31.712 31.6604H28.008C27.616 31.6604 27.236 31.7804 26.916 32.0044L25.448 33.0404L25.428 33.0524L23.376 34.5004V33.0524V32.3004C23.376 31.9444 23.088 31.6524 22.728 31.6524H21.016C20.54 31.6524 20.152 31.2644 20.152 30.7884V23.7884C20.152 23.3124 20.54 22.9244 21.016 22.9244H26.02V23.1044C26.02 24.3524 27.032 25.3644 28.28 25.3644H32.368L32.568 25.5044V30.7844L32.576 30.7964ZM39.84 23.1164C39.84 23.5924 39.452 23.9804 38.976 23.9804H37.496C37.14 23.9804 36.852 24.2684 36.852 24.6244V25.3724V26.8244L34.8 25.3764L34.78 25.3644L33.968 24.7924L33.024 24.1244C32.892 24.0324 32.732 23.9804 32.572 23.9804H28.284C27.808 23.9804 27.42 23.5924 27.42 23.1164V16.1164C27.42 15.6404 27.804 15.2524 28.284 15.2524H38.976C39.452 15.2524 39.84 15.6404 39.84 16.1164V23.1164Z" fill="#111212"/>
        <path d="M37.64 30.6318H36.096C35.708 30.6318 35.396 30.9438 35.396 31.3318C35.396 31.7198 35.708 32.0318 36.096 32.0318H37.64C38.024 32.0318 38.34 31.7198 38.34 31.3318C38.34 30.9438 38.028 30.6318 37.64 30.6318Z" fill="#44484A"/>
        <path d="M36.332 17.6035H30.912C30.524 17.6035 30.212 17.9155 30.212 18.3035C30.212 18.6915 30.524 19.0035 30.912 19.0035H36.332C36.716 19.0035 37.032 18.6915 37.032 18.3035C37.032 17.9155 36.72 17.6035 36.332 17.6035Z" fill="#44484A"/>
        <path d="M36.332 20.3839H30.912C30.524 20.3839 30.212 20.6959 30.212 21.0839C30.212 21.2559 30.272 21.4159 30.38 21.5359C30.504 21.6839 30.696 21.7799 30.912 21.7799H36.332C36.716 21.7799 37.032 21.4679 37.032 21.0799C37.032 20.6919 36.72 20.3799 36.332 20.3799V20.3839Z" fill="#44484A"/>
        <path d="M29.12 26.5518C28.708 26.5518 28.372 26.8878 28.372 27.2998C28.372 27.7118 28.708 28.0478 29.12 28.0478C29.532 28.0478 29.868 27.7118 29.868 27.2998C29.868 26.8878 29.532 26.5518 29.12 26.5518Z" fill="#44484A"/>
        <path d="M26.368 26.5518C25.956 26.5518 25.62 26.8878 25.62 27.2998C25.62 27.7118 25.952 28.0478 26.368 28.0478C26.784 28.0478 27.112 27.7118 27.112 27.2998C27.112 26.8878 26.78 26.5518 26.368 26.5518Z" fill="#44484A"/>
        <path d="M22.404 19.692H24.068C24.452 19.692 24.768 19.38 24.768 18.992C24.768 18.604 24.456 18.292 24.068 18.292H22.404C22.02 18.292 21.704 18.604 21.704 18.992C21.704 19.38 22.016 19.692 22.404 19.692Z" fill="#44484A"/>
        <path d="M23.616 26.5518C23.204 26.5518 22.868 26.8878 22.868 27.2998C22.868 27.7118 23.204 28.0478 23.616 28.0478C24.028 28.0478 24.364 27.7118 24.364 27.2998C24.364 26.8878 24.028 26.5518 23.616 26.5518Z" fill="#44484A"/>
    </g>
    <path d="M13.1471 53.104C12.6991 53.104 12.2671 53.016 11.8591 52.84C11.4751 52.672 11.1231 52.44 10.8191 52.136C10.5151 51.84 10.2831 51.488 10.1151 51.096C9.93906 50.696 9.85906 50.272 9.85906 49.84C9.85906 49.4 9.94706 48.976 10.1151 48.576C10.2831 48.192 10.5231 47.84 10.8271 47.544C11.1311 47.24 11.4911 47.008 11.8831 46.84C12.2911 46.672 12.7231 46.584 13.1631 46.584C13.8831 46.584 14.5551 46.808 15.1151 47.24C15.2911 47.376 15.3231 47.624 15.1951 47.8C15.0591 47.976 14.8031 48.008 14.6351 47.88C14.2111 47.552 13.7071 47.384 13.1631 47.384C12.8271 47.384 12.4991 47.448 12.1871 47.576C11.8911 47.704 11.6191 47.88 11.3871 48.112C11.1631 48.336 10.9791 48.6 10.8511 48.896C10.7231 49.192 10.6591 49.512 10.6591 49.84C10.6591 50.168 10.7231 50.48 10.8511 50.784C10.9791 51.08 11.1551 51.344 11.3871 51.568C11.8591 52.04 12.4831 52.304 13.1471 52.304C13.4431 52.304 13.7231 52.248 13.9951 52.152C14.2591 52.056 14.4991 51.912 14.7151 51.736C14.8831 51.592 15.1311 51.616 15.2751 51.784C15.4191 51.952 15.3951 52.208 15.2271 52.344C14.9391 52.584 14.6191 52.768 14.2751 52.896C13.9151 53.032 13.5311 53.104 13.1471 53.104ZM19.2555 53.136C18.8155 53.136 18.3835 53.048 17.9755 52.872C17.5835 52.704 17.2315 52.472 16.9275 52.168C16.6315 51.864 16.3915 51.52 16.2235 51.128C16.0555 50.728 15.9675 50.304 15.9675 49.872C15.9675 49.432 16.0555 49.008 16.2315 48.608C16.3995 48.224 16.6395 47.872 16.9435 47.576C17.2475 47.272 17.5995 47.04 17.9915 46.872C18.3995 46.704 18.8315 46.616 19.2795 46.616C20.1515 46.616 20.9675 46.96 21.5755 47.584C21.8715 47.88 22.0955 48.232 22.2555 48.616C22.4235 49.016 22.5035 49.44 22.5035 49.872C22.5035 50.312 22.4235 50.736 22.2555 51.128C22.0955 51.52 21.8635 51.872 21.5675 52.168C20.9515 52.792 20.1355 53.136 19.2555 53.136ZM19.2795 47.416C18.9435 47.416 18.6155 47.48 18.3035 47.608C17.9995 47.736 17.7355 47.912 17.5035 48.144C17.2715 48.368 17.0875 48.632 16.9675 48.928C16.8315 49.224 16.7675 49.544 16.7675 49.872C16.7675 50.2 16.8315 50.512 16.9595 50.816C17.0875 51.112 17.2635 51.376 17.4955 51.6C17.9675 52.072 18.5915 52.336 19.2555 52.336C19.9195 52.336 20.5355 52.072 20.9995 51.608C21.2235 51.384 21.3915 51.12 21.5195 50.824C21.6395 50.52 21.7035 50.2 21.7035 49.872C21.7035 49.216 21.4555 48.6 21.0075 48.144C20.5515 47.672 19.9355 47.416 19.2795 47.416ZM28.2293 52.968C28.0693 53.016 27.8693 52.992 27.7653 52.864L23.9013 48.216V52.6C23.9013 52.824 23.7253 53 23.5013 53C23.2773 53 23.1013 52.824 23.1013 52.6V47.112C23.1013 46.944 23.2053 46.792 23.3653 46.736C23.5253 46.68 23.7013 46.728 23.8053 46.856L27.6773 51.496V47.104C27.6773 46.88 27.8533 46.704 28.0773 46.704C28.2933 46.704 28.4773 46.88 28.4773 47.104V52.608C28.4773 52.776 28.3973 52.92 28.2293 52.968ZM33.8289 46.712C34.0529 46.712 34.2289 46.888 34.2289 47.112C34.2289 47.336 34.0529 47.512 33.8289 47.512H32.0769V52.6C32.0769 52.824 31.8929 53 31.6769 53C31.4529 53 31.2769 52.824 31.2769 52.6V47.512H29.5169C29.2929 47.512 29.1169 47.336 29.1169 47.112C29.1169 46.888 29.2929 46.712 29.5169 46.712H33.8289ZM39.1536 52.968C38.9696 53.048 38.7296 52.984 38.6176 52.768L38.0656 51.536C37.5456 51.408 37.0256 51.4 36.5216 51.512C36.1136 51.592 35.7136 51.744 35.3216 51.984C34.9216 52.232 34.5056 52.56 34.2016 52.856C34.0496 53.008 33.8496 53.056 33.6816 52.952C33.5056 52.84 33.5296 52.616 33.6096 52.432L36.1376 46.944C36.2096 46.8 36.3456 46.712 36.5056 46.712C36.6576 46.712 36.8096 46.808 36.8656 46.944L39.3536 52.432C39.4416 52.64 39.3536 52.872 39.1536 52.968ZM36.4976 48.072L34.9616 51.344C35.3856 51.104 35.9456 50.888 36.3936 50.8C36.8256 50.704 37.2656 50.688 37.7056 50.728L36.4976 48.072ZM42.7096 53.104C42.2616 53.104 41.8296 53.016 41.4216 52.84C41.0376 52.672 40.6856 52.44 40.3816 52.136C40.0776 51.84 39.8456 51.488 39.6776 51.096C39.5016 50.696 39.4216 50.272 39.4216 49.84C39.4216 49.4 39.5096 48.976 39.6776 48.576C39.8456 48.192 40.0856 47.84 40.3896 47.544C40.6936 47.24 41.0536 47.008 41.4456 46.84C41.8536 46.672 42.2856 46.584 42.7256 46.584C43.4456 46.584 44.1176 46.808 44.6776 47.24C44.8536 47.376 44.8856 47.624 44.7576 47.8C44.6216 47.976 44.3656 48.008 44.1976 47.88C43.7736 47.552 43.2696 47.384 42.7256 47.384C42.3896 47.384 42.0616 47.448 41.7496 47.576C41.4536 47.704 41.1816 47.88 40.9496 48.112C40.7256 48.336 40.5416 48.6 40.4136 48.896C40.2856 49.192 40.2216 49.512 40.2216 49.84C40.2216 50.168 40.2856 50.48 40.4136 50.784C40.5416 51.08 40.7176 51.344 40.9496 51.568C41.4216 52.04 42.0456 52.304 42.7096 52.304C43.0056 52.304 43.2856 52.248 43.5576 52.152C43.8216 52.056 44.0616 51.912 44.2776 51.736C44.4456 51.592 44.6936 51.616 44.8376 51.784C44.9816 51.952 44.9576 52.208 44.7896 52.344C44.5016 52.584 44.1816 52.768 43.8376 52.896C43.4776 53.032 43.0936 53.104 42.7096 53.104ZM50.282 46.712C50.506 46.712 50.682 46.888 50.682 47.112C50.682 47.336 50.506 47.512 50.282 47.512H48.53V52.6C48.53 52.824 48.346 53 48.13 53C47.906 53 47.73 52.824 47.73 52.6V47.512H45.97C45.746 47.512 45.57 47.336 45.57 47.112C45.57 46.888 45.746 46.712 45.97 46.712H50.282Z" fill="#111212"/>
    <defs>
        <clipPath id="clip0_469_151">
            <rect width="30" height="30" fill="white" transform="translate(15 10)"/>
        </clipPath>
    </defs>
</svg>