<svg width="425" height="53" viewBox="0 0 425 53" fill="none" xmlns="http://www.w3.org/2000/svg">
    <path d="M101.135 41.8153C100.392 41.0104 99.3252 40.5444 98.1652 40.5444C97.2836 40.5444 96.402 40.8409 95.706 41.3917C93.7573 42.8321 91.6693 43.9336 89.4886 44.6539C86.983 45.4588 84.5703 45.8401 82.1575 45.8401C76.4504 45.8401 71.0681 43.7642 66.9386 40.036C64.9899 38.3413 63.4587 36.223 62.2987 33.8505C61.1852 31.4356 60.6284 28.9784 60.6284 26.3941C60.6284 23.7674 61.1852 21.2678 62.2987 18.9376C63.3659 16.6499 64.9435 14.5739 66.9386 12.7522C68.841 11.0152 71.2073 9.57474 73.8521 8.51559C76.5432 7.4988 79.3736 6.99041 82.2967 6.99041C86.983 6.99041 91.3909 8.34612 95.0101 10.8881C95.6596 11.3541 96.4484 11.5659 97.2836 11.5659C98.49 11.5659 99.65 11.0576 100.392 10.1679C101.645 8.60032 101.32 6.43965 99.65 5.21103C94.7317 1.86411 88.7462 0 82.3431 0C78.4456 0 74.6409 0.677858 70.9753 2.07594C67.3562 3.51639 64.2011 5.42286 61.6027 7.79536C58.9116 10.1679 56.7772 13.0064 55.2925 16.1838C53.7613 19.4884 53.0189 22.9201 53.0189 26.4364C53.0189 30.0799 53.8077 33.5116 55.2925 36.6467C56.8236 39.9089 58.9116 42.7474 61.5563 45.0775C64.1547 47.45 67.2634 49.3989 70.7898 50.797C74.4089 52.2374 78.26 52.9576 82.2503 52.9576C85.6374 52.9576 89.0246 52.4069 92.2725 51.263C95.3348 50.2038 98.2116 48.721 100.717 46.7722C101.506 46.179 101.97 45.3741 102.063 44.3997C102.109 43.4676 101.831 42.5356 101.135 41.8153ZM100.624 41.773C100.578 41.7306 100.578 41.7306 100.532 41.6882C100.532 41.7306 100.578 41.773 100.624 41.773ZM98.258 40.8833C98.2116 40.8833 98.1652 40.8833 98.1652 40.8833C98.2116 40.8833 98.258 40.8833 98.258 40.8833ZM100.3 41.5611C100.253 41.5188 100.207 41.5188 100.16 41.4764C100.253 41.5188 100.3 41.5188 100.3 41.5611ZM100.021 41.3493C99.9748 41.307 99.9283 41.3069 99.8819 41.2646C99.9283 41.3069 99.9748 41.3493 100.021 41.3493ZM99.6964 41.2222C99.65 41.2222 99.6036 41.1799 99.5572 41.1799C99.6036 41.1799 99.65 41.1799 99.6964 41.2222ZM99.3716 41.0951C99.3252 41.0951 99.2788 41.0528 99.2324 41.0528C99.2788 41.0528 99.3252 41.0528 99.3716 41.0951ZM99.0004 40.968C98.954 40.968 98.9076 40.9257 98.8612 40.9257C98.9076 40.968 98.954 40.968 99.0004 40.968ZM96.2164 41.4764C96.1236 41.5188 96.0308 41.6035 95.938 41.6459C96.0308 41.5611 96.1236 41.5188 96.2164 41.4764ZM97.7476 40.9257C97.7012 40.9257 97.6084 40.9257 97.562 40.968C97.6084 40.9257 97.6548 40.9257 97.7476 40.9257ZM97.4228 40.968C97.3764 40.968 97.2836 41.0104 97.2372 41.0104C97.2836 41.0104 97.33 40.968 97.4228 40.968ZM96.8196 41.1799C96.7732 41.2222 96.6804 41.2222 96.634 41.2646C96.6804 41.2222 96.7268 41.1799 96.8196 41.1799ZM96.4948 41.3069C96.4484 41.3493 96.3556 41.3917 96.3092 41.434C96.3556 41.3493 96.4484 41.3493 96.4948 41.3069ZM64.0155 37.3669C63.4123 36.5619 62.9019 35.757 62.4379 34.8673C62.9019 35.757 63.4587 36.6043 64.0155 37.3669ZM62.0203 18.8953C62.4379 18.0056 62.9483 17.1583 63.5051 16.3533C62.9483 17.1159 62.4379 18.0056 62.0203 18.8953ZM65.3147 13.9808C65.7787 13.4724 66.2426 13.0064 66.7066 12.5827C66.2426 13.0488 65.7787 13.5148 65.3147 13.9808ZM97.2836 11.3541C97.33 11.3541 97.3764 11.3541 97.4228 11.3541H97.3764C97.2836 11.3541 97.2836 11.3541 97.2836 11.3541ZM95.6596 10.9728C95.706 10.9728 95.706 11.0152 95.7524 11.0152C95.7524 11.0152 95.706 10.9728 95.6596 10.9728ZM96.2164 11.1847C96.2628 11.1847 96.2628 11.1847 96.3092 11.227C96.2628 11.1847 96.2164 11.1847 96.2164 11.1847ZM96.7268 11.3117H96.7732C96.7732 11.3117 96.7732 11.3117 96.7268 11.3117ZM99.8356 10.4221C99.882 10.3797 99.8819 10.3797 99.9283 10.3373C99.8819 10.3797 99.8356 10.4221 99.8356 10.4221ZM98.026 11.2694C98.0724 11.2694 98.0724 11.2694 98.1188 11.2694C98.1188 11.2694 98.0724 11.2694 98.026 11.2694ZM98.49 11.1847C98.5364 11.1847 98.5364 11.1847 98.5828 11.1423C98.5364 11.1423 98.5364 11.1847 98.49 11.1847ZM98.8612 11.0576C98.9076 11.0576 98.954 11.0152 99.0004 11.0152C98.9076 11.0152 98.8612 11.0152 98.8612 11.0576ZM99.5108 10.6763C99.5572 10.6339 99.6036 10.6339 99.6036 10.5915C99.5572 10.6339 99.5572 10.6763 99.5108 10.6763ZM99.4644 5.59233C98.2116 4.745 96.9588 3.98241 95.6132 3.30456C96.9588 3.98241 98.258 4.745 99.4644 5.59233ZM94.5925 2.83853C93.8965 2.54197 93.2005 2.2454 92.5045 2.03357C93.2005 2.28777 93.8965 2.54197 94.5925 2.83853ZM92.0869 50.9664C91.6693 51.0935 91.2981 51.2206 90.8805 51.3477C91.2981 51.2206 91.7157 51.0935 92.0869 50.9664Z"
          fill="white"/>
    <path d="M155.004 41.8153C154.262 41.0104 153.194 40.5444 152.034 40.5444C151.153 40.5444 150.271 40.8409 149.575 41.3917C147.626 42.8321 145.538 43.9336 143.358 44.6539C140.852 45.4588 138.439 45.8401 136.027 45.8401C130.32 45.8401 124.937 43.7642 120.808 40.036C118.859 38.3413 117.328 36.223 116.168 33.8505C115.054 31.4356 114.498 28.9784 114.498 26.3941C114.498 23.7674 115.054 21.2678 116.168 18.9376C117.235 16.6499 118.813 14.5739 120.808 12.7522C122.71 11.0152 125.076 9.57474 127.721 8.51559C130.412 7.4988 133.243 6.99041 136.166 6.99041C140.852 6.99041 145.26 8.34612 148.879 10.8881C149.529 11.3541 150.318 11.5659 151.153 11.5659C152.359 11.5659 153.519 11.0576 154.261 10.1679C155.514 8.60032 155.189 6.43965 153.519 5.21103C148.601 1.86411 142.569 0 136.166 0C132.268 0 128.464 0.677858 124.798 2.07594C121.179 3.51639 118.024 5.42286 115.425 7.79536C112.734 10.1679 110.6 13.0064 109.115 16.1838C107.584 19.4884 106.842 22.9201 106.842 26.4364C106.842 30.0799 107.63 33.5116 109.115 36.6467C110.646 39.9089 112.734 42.7474 115.379 45.0775C117.977 47.45 121.086 49.3989 124.613 50.797C128.232 52.2374 132.083 52.9576 136.073 52.9576C139.46 52.9576 142.847 52.4069 146.095 51.263C149.158 50.2038 152.034 48.721 154.54 46.7722C155.329 46.179 155.793 45.3741 155.885 44.3997C155.978 43.4676 155.653 42.5356 155.004 41.8153ZM154.447 41.773C154.401 41.7306 154.401 41.7306 154.354 41.6882C154.401 41.7306 154.447 41.773 154.447 41.773ZM152.127 40.8833C152.081 40.8833 152.034 40.8833 152.034 40.8833C152.081 40.8833 152.081 40.8833 152.127 40.8833ZM153.89 41.3493C153.844 41.307 153.798 41.3069 153.751 41.2646C153.798 41.3069 153.844 41.3493 153.89 41.3493ZM153.566 41.2222C153.519 41.2222 153.473 41.1799 153.426 41.1799C153.473 41.1799 153.519 41.1799 153.566 41.2222ZM153.194 41.0951C153.148 41.0951 153.102 41.0528 153.055 41.0528C153.102 41.0528 153.148 41.0528 153.194 41.0951ZM152.87 40.968C152.823 40.968 152.777 40.9257 152.73 40.9257C152.777 40.968 152.823 40.968 152.87 40.968ZM151.57 40.9257C151.524 40.9257 151.431 40.9257 151.385 40.968C151.478 40.9257 151.524 40.9257 151.57 40.9257ZM151.246 40.968C151.199 40.968 151.106 41.0104 151.06 41.0104C151.153 41.0104 151.199 40.968 151.246 40.968ZM150.967 41.0528C150.921 41.0528 150.828 41.0951 150.782 41.0951C150.828 41.0951 150.874 41.0528 150.967 41.0528ZM150.642 41.1799C150.596 41.2222 150.503 41.2222 150.457 41.2646C150.55 41.2222 150.596 41.1799 150.642 41.1799ZM150.364 41.3069C150.318 41.3493 150.225 41.3917 150.178 41.434C150.225 41.3493 150.271 41.3493 150.364 41.3069ZM150.086 41.4764C149.993 41.5188 149.9 41.6035 149.807 41.6459C149.9 41.5611 149.993 41.5188 150.086 41.4764ZM128.649 45.0352C129.299 45.247 129.995 45.4588 130.691 45.5859C131.387 45.7554 132.083 45.8825 132.779 45.9672C133.475 46.052 134.217 46.1367 134.913 46.1791C134.171 46.1367 133.475 46.0943 132.779 45.9672C132.083 45.8401 131.387 45.7554 130.691 45.5859C129.995 45.4165 129.345 45.247 128.649 45.0352ZM119.137 38.8921C118.673 38.3837 118.256 37.9177 117.885 37.3669C118.256 37.9177 118.673 38.4261 119.137 38.8921ZM115.889 34.02C116.168 34.6131 116.493 35.2062 116.817 35.757C116.446 35.2062 116.168 34.6131 115.889 34.02C115.472 33.0879 115.147 32.1982 114.869 31.2662C115.101 32.1982 115.472 33.0879 115.889 34.02ZM115.889 18.8953C115.472 19.785 115.147 20.717 114.869 21.6491C115.101 20.6747 115.472 19.785 115.889 18.8953ZM116.817 17.1583C117.142 16.6075 117.513 16.0568 117.931 15.5484C117.513 16.0568 117.142 16.5651 116.817 17.1583ZM122.153 11.2694C122.71 10.8457 123.267 10.4644 123.87 10.1255C123.313 10.5068 122.71 10.8881 122.153 11.2694ZM127.582 8.30376C127.257 8.43085 126.932 8.55795 126.608 8.72742C126.979 8.55795 127.257 8.43085 127.582 8.30376C128.278 8.04956 128.974 7.83773 129.67 7.6259C128.974 7.79536 128.278 8.04956 127.582 8.30376ZM131.804 7.11751C132.5 6.99041 133.243 6.90567 133.985 6.82094C133.243 6.90567 132.547 6.99041 131.804 7.11751ZM136.166 6.73621C135.795 6.73621 135.423 6.73621 135.052 6.77858C135.423 6.77858 135.795 6.73621 136.166 6.73621ZM151.106 11.3541C151.153 11.3541 151.199 11.3541 151.246 11.3541H151.199C151.153 11.3541 151.153 11.3541 151.106 11.3541ZM150.039 11.1847C150.086 11.1847 150.086 11.1847 150.132 11.227C150.132 11.1847 150.086 11.1847 150.039 11.1847ZM150.596 11.3117H150.642C150.596 11.3117 150.596 11.3117 150.596 11.3117ZM153.658 10.4644C153.705 10.4221 153.705 10.4221 153.751 10.3797C153.705 10.3797 153.705 10.4221 153.658 10.4644ZM152.359 11.1847C152.406 11.1847 152.406 11.1847 152.452 11.1423C152.406 11.1423 152.359 11.1847 152.359 11.1847ZM152.684 11.0576C152.73 11.0576 152.777 11.0152 152.823 11.0152C152.777 11.0152 152.73 11.0152 152.684 11.0576ZM153.334 10.6763C153.38 10.6339 153.426 10.6339 153.426 10.5915C153.426 10.6339 153.38 10.6763 153.334 10.6763ZM154.03 10.0831C154.401 9.65947 154.586 9.15108 154.679 8.64269C154.586 9.15108 154.354 9.65947 154.03 10.0831ZM141.966 0.847322C140.11 0.508393 138.161 0.338928 136.166 0.338928C138.161 0.338928 140.063 0.508393 141.966 0.847322ZM136.027 52.6187C136.862 52.6187 137.697 52.5763 138.532 52.4916C137.743 52.5763 136.862 52.6187 136.027 52.6187ZM139.831 52.3645C140.667 52.2374 141.502 52.1103 142.337 51.9408C141.502 52.1527 140.667 52.2798 139.831 52.3645ZM154.772 46.0943C154.911 45.9249 155.05 45.7554 155.143 45.5859C155.05 45.7554 154.957 45.9249 154.772 46.0943ZM155.514 44.6962C155.468 44.9081 155.421 45.0775 155.329 45.2894C155.375 45.0775 155.468 44.8657 155.514 44.6962C155.607 44.1878 155.607 43.6794 155.421 43.1711C155.329 42.8745 155.189 42.5779 154.957 42.3237C154.911 42.239 154.818 42.1543 154.725 42.0695C154.818 42.1543 154.865 42.239 154.957 42.3237C155.143 42.5779 155.329 42.8745 155.421 43.1711C155.561 43.6371 155.607 44.1878 155.514 44.6962Z"
          fill="white"/>
    <path d="M216.575 16.2687C215.091 13.0065 213.049 10.2103 210.544 7.88021C205.161 2.79628 197.877 0.0424805 190.128 0.0424805C186.184 0.0424805 182.333 0.720339 178.667 2.11842C175.095 3.5165 171.986 5.42298 169.341 7.83784C166.65 10.2103 164.516 13.0489 163.031 16.2263C161.453 19.4462 160.665 22.9202 160.665 26.4789C160.665 29.9529 161.407 33.3846 162.938 36.6892C164.376 39.7395 166.464 42.578 169.202 45.12C171.847 47.5349 174.955 49.4414 178.528 50.8394C182.147 52.2799 185.952 53.0001 189.896 53.0001C197.691 53.0001 204.976 50.2039 210.451 45.1624C213.095 42.7475 215.137 39.909 216.575 36.7315C218.06 33.5964 218.756 30.2071 218.756 26.5213C218.756 22.8778 218.014 19.4462 216.575 16.2687ZM190.082 6.73633C188.968 6.73633 187.901 6.82106 186.787 6.94816C185.349 7.15999 183.91 7.45655 182.518 7.92257C183.91 7.45655 185.302 7.15999 186.787 6.94816C187.901 6.82106 189.014 6.73633 190.082 6.73633ZM170.13 19.0225C171.151 16.7347 172.728 14.6588 174.77 12.837C176.765 11.0153 179.039 9.61722 181.683 8.60043C184.374 7.58365 187.205 7.07525 190.128 7.07525C195.835 7.07525 201.125 9.10883 205.068 12.7947C208.966 16.3958 211.1 21.2255 211.1 26.4366C211.1 28.9785 210.544 31.5205 209.523 33.9354C208.363 36.3926 206.878 38.4262 205.022 40.1208C200.985 43.8067 195.603 45.8826 189.942 45.8826C184.235 45.8826 178.853 43.8067 174.723 40.0784C172.775 38.3838 171.244 36.3079 170.084 33.893C168.97 31.4781 168.413 29.0209 168.413 26.4366C168.367 23.7675 168.97 21.2679 170.13 19.0225ZM168.692 21.6068C168.97 20.6748 169.341 19.7427 169.759 18.853C169.341 19.7851 168.97 20.6748 168.692 21.6068ZM198.294 51.4749C197.413 51.7291 196.485 51.941 195.557 52.1104C194.629 52.2799 193.701 52.407 192.773 52.4917C193.701 52.407 194.675 52.2799 195.557 52.1104C196.438 51.941 197.366 51.7291 198.294 51.4749ZM204.651 48.8906C205.44 48.4669 206.228 47.9585 206.971 47.4501C206.228 47.9585 205.44 48.4246 204.651 48.8906Z"
          fill="white"/>
    <path d="M259.077 45.5861L231.516 45.5861V3.89788C231.516 1.86431 229.753 0.254395 227.525 0.254395C225.345 0.254395 223.535 1.86431 223.535 3.89788V49.2296C223.535 51.2208 225.298 52.8731 227.525 52.8731L259.077 52.8731C261.304 52.8731 263.067 51.2632 263.067 49.2296C263.021 47.196 261.304 45.5861 259.077 45.5861ZM224.046 50.204C224.278 50.8395 224.695 51.3479 225.206 51.7716C224.695 51.3903 224.278 50.8395 224.046 50.204ZM226.458 52.3647C226.69 52.4071 226.922 52.4918 227.154 52.4918C226.876 52.4918 226.644 52.4494 226.458 52.3647ZM259.448 52.4918C259.68 52.4494 259.912 52.4071 260.144 52.3647C259.912 52.4494 259.68 52.4918 259.448 52.4918ZM261.35 51.7716C261.907 51.3903 262.278 50.8395 262.51 50.204C262.325 50.8395 261.907 51.3903 261.35 51.7716Z"
          fill="white"/>
    <path d="M375.214 16.4382C373.683 13.2184 371.548 10.4223 368.857 8.00739C366.027 5.55016 362.825 3.64368 359.345 2.33033C355.634 0.974619 351.782 0.254395 347.838 0.254395L331.274 0.254395C330.253 0.254395 329.14 0.678057 328.397 1.35591C327.655 1.99141 327.191 2.92346 327.191 3.89788V49.2296C327.191 51.2208 329 52.8731 331.228 52.8731H347.606H347.699C351.55 52.8731 355.448 52.1952 359.206 50.7972C362.825 49.3991 366.027 47.4926 368.718 45.1201C371.409 42.79 373.59 39.9514 375.168 36.774C376.791 33.5965 377.58 30.2072 377.58 26.7332C377.534 23.2168 376.745 19.7428 375.214 16.4382ZM335.218 7.499L347.792 7.499C353.592 7.499 359.067 9.53257 363.197 13.2184C365.145 14.9131 366.723 16.989 367.883 19.3191C368.996 21.6493 369.6 24.1065 369.6 26.6485C369.6 29.1057 369.043 31.4358 367.883 33.7236C366.63 36.0961 365.006 38.1721 363.104 39.8243C361.155 41.5613 358.789 42.9171 356.144 43.9338C353.499 44.9083 350.715 45.4167 347.792 45.5014H335.218V7.499Z"
          fill="white"/>
    <path d="M421.01 45.586L390.386 45.586V30.0377L416.787 30.0377C419.014 30.0377 420.778 28.4277 420.778 26.3942C420.778 24.403 419.014 22.7507 416.787 22.7507L390.386 22.7507V7.49888L420.267 7.49888C422.494 7.49888 424.257 5.88897 424.257 3.8554C424.257 1.82183 422.494 0.211914 420.267 0.211914L386.396 0.211914C384.215 0.211914 382.406 1.82183 382.406 3.8554V49.1871C382.406 51.1783 384.169 52.8306 386.396 52.8306L421.01 52.8306C423.237 52.8306 425 51.2207 425 49.1871C425 47.1959 423.237 45.586 421.01 45.586Z"
          fill="white"/>
    <path d="M321.901 48.0006L298.516 2.16053C298.516 2.11816 298.47 2.07579 298.423 2.03343V1.99106C298.377 1.86396 298.284 1.77923 298.238 1.65213C298.191 1.5674 298.098 1.48267 298.006 1.39794C297.913 1.3132 297.866 1.22847 297.774 1.14374C297.681 1.05901 297.588 0.974275 297.495 0.889543C297.402 0.80481 297.31 0.762445 297.217 0.720079C297.124 0.635347 296.985 0.592981 296.846 0.508249H296.799C296.753 0.465883 296.706 0.465882 296.66 0.423516C296.614 0.423516 296.567 0.381151 296.521 0.381151H296.474C296.382 0.338785 296.242 0.296417 296.103 0.254051C296.01 0.211685 295.871 0.211686 295.778 0.16932C295.639 0.126954 295.546 0.126953 295.407 0.126953C295.268 0.126953 295.175 0.126953 295.036 0.126953C294.897 0.126953 294.804 0.126953 294.665 0.126953C294.526 0.126953 294.386 0.16932 294.294 0.16932C294.201 0.16932 294.062 0.211685 293.969 0.254051C293.83 0.296417 293.69 0.338785 293.598 0.381151H293.551C293.505 0.381151 293.458 0.423516 293.412 0.423516C293.366 0.423516 293.319 0.465883 293.273 0.508249H293.226C293.087 0.550615 292.994 0.635346 292.902 0.677712C292.809 0.720078 292.716 0.80481 292.623 0.889543C292.53 0.974275 292.438 1.01664 292.345 1.10137C292.252 1.18611 292.159 1.27084 292.066 1.35557C291.974 1.4403 291.927 1.52503 291.881 1.60977C291.788 1.6945 291.742 1.8216 291.649 1.9487V1.99106C291.602 2.03343 291.603 2.07579 291.556 2.11816L268.171 48.0006C267.289 49.7377 268.125 51.7712 270.027 52.5762C270.537 52.788 271.048 52.9151 271.605 52.9151C273.089 52.9151 274.435 52.1102 275.038 50.9239L294.99 11.7776L314.941 50.9239C315.544 52.1525 316.89 52.9151 318.375 52.9151C318.932 52.9151 319.442 52.788 319.952 52.5762C321.947 51.8136 322.783 49.7377 321.901 48.0006ZM295.082 0.465882C295.175 0.465882 295.314 0.465882 295.407 0.465882C295.314 0.508248 295.222 0.465882 295.082 0.465882ZM321.391 51.0934C321.483 50.9239 321.576 50.7544 321.669 50.5426C321.623 50.7544 321.53 50.9239 321.391 51.0934Z"
          fill="white"/>
    <path d="M52.6476 47.4078L29.5409 2.88105C29.4945 2.83869 29.4945 2.79632 29.4481 2.71159C29.4017 2.66922 29.4017 2.62686 29.3553 2.54212C29.3089 2.49976 29.2625 2.41502 29.2161 2.37266C29.1697 2.33029 29.1233 2.28793 29.1233 2.24556C29.0769 2.20319 29.0769 2.16083 29.0305 2.16083C29.0305 2.16083 29.0305 2.11846 28.9841 2.11846C28.9377 2.03373 28.8449 1.99136 28.7985 1.949C28.7521 1.90663 28.7521 1.90663 28.7057 1.86427C28.6593 1.8219 28.6129 1.77953 28.5665 1.77953C28.5201 1.73717 28.4737 1.73717 28.4273 1.6948C28.3345 1.65244 28.2881 1.61007 28.1953 1.5677C28.1489 1.5677 28.1489 1.52534 28.1025 1.52534C28.0561 1.48297 28.0097 1.48297 27.9633 1.44061C27.9169 1.44061 27.9169 1.39824 27.9169 1.39824C27.9169 1.39824 27.9169 1.39824 27.8705 1.39824C27.8241 1.35587 27.7313 1.35587 27.6849 1.31351C27.6385 1.31351 27.5921 1.27114 27.5457 1.27114C27.4529 1.22877 27.4065 1.22878 27.3137 1.22878C27.2673 1.22878 27.2209 1.22877 27.1745 1.18641C27.1281 1.18641 27.0817 1.18641 27.0353 1.14404C26.9889 1.14404 26.9889 1.14404 26.9425 1.14404C26.8498 1.14404 26.757 1.14404 26.7106 1.14404C26.6642 1.14404 26.6178 1.14404 26.5714 1.14404C26.525 1.14404 26.525 1.14404 26.4786 1.14404H26.4322C26.3394 1.14404 26.2466 1.14404 26.1538 1.14404C26.061 1.14404 25.9682 1.14404 25.829 1.18641C25.7826 1.18641 25.7362 1.18641 25.6898 1.18641C25.6434 1.18641 25.5506 1.22878 25.5042 1.22878C25.365 1.27114 25.2722 1.31351 25.133 1.35587C25.0866 1.35587 25.0402 1.39824 24.9938 1.39824C24.9474 1.39824 24.901 1.44061 24.8546 1.48297C24.7618 1.52534 24.6226 1.61007 24.5298 1.65244C24.437 1.6948 24.3442 1.77953 24.2978 1.8219C24.205 1.90663 24.1122 1.949 24.0658 2.03373C23.973 2.11846 23.9266 2.16083 23.8338 2.24556C23.7874 2.33029 23.6946 2.41503 23.6482 2.49976C23.6018 2.58449 23.509 2.66922 23.4626 2.79632C23.4162 2.83869 23.4162 2.88105 23.3698 2.92342L19.9827 9.4478L0.355901 47.2807C-0.340084 48.6788 -0.0152899 50.3735 1.33028 51.2631C1.93347 51.6868 2.62945 51.8563 3.37184 51.8563C4.20702 51.8563 5.0422 51.5597 5.69179 51.0513L20.8643 38.2991C21.9315 37.3671 21.9315 35.7995 20.8643 34.9098C20.8643 34.9098 20.8643 34.9098 20.8179 34.8675C19.1475 33.4694 16.642 33.3423 14.9716 34.7404L13.9508 35.5877L23.741 16.6924L26.4322 11.4814L38.9599 35.5877L28.7521 27.0297C28.7057 26.9874 28.6593 26.945 28.5665 26.9026C28.4737 26.8603 28.3809 26.7755 28.3345 26.7332C28.2881 26.6908 28.2417 26.6908 28.1953 26.6484C28.1489 26.6061 28.0561 26.6061 28.0097 26.5637C27.9169 26.5213 27.8241 26.479 27.7313 26.4366C27.6849 26.4366 27.6385 26.3942 27.5921 26.3942C27.4993 26.3519 27.4529 26.3519 27.3601 26.3519C27.2673 26.3095 27.1745 26.3095 27.1281 26.3095C27.0817 26.3095 27.0353 26.3095 26.9889 26.2671C26.8961 26.2671 26.8034 26.2671 26.757 26.2248C26.6642 26.2248 26.6178 26.2248 26.525 26.2248C26.4786 26.2248 26.4786 26.2248 26.4322 26.2248H26.3858C26.293 26.2248 26.2002 26.2248 26.1074 26.2248C26.0146 26.2248 25.9218 26.2248 25.829 26.2671C25.7826 26.2671 25.7362 26.2671 25.6898 26.3095C25.597 26.3095 25.5506 26.3519 25.4578 26.3519C25.365 26.3942 25.2722 26.3942 25.1794 26.4366C25.133 26.4366 25.0866 26.479 25.0402 26.479C24.9474 26.5213 24.901 26.5637 24.8546 26.5637C24.7618 26.6061 24.669 26.6484 24.5762 26.6908C24.5298 26.7332 24.4834 26.7332 24.437 26.7755C24.3906 26.8179 24.2978 26.8603 24.2514 26.9026C24.1122 26.9874 24.0194 27.0721 23.8802 27.1992C22.581 28.4702 22.6738 30.419 24.0658 31.6053L26.3858 33.5541L47.1725 51.0513C47.8221 51.6021 48.6573 51.8563 49.4925 51.8563C50.1885 51.8563 50.9309 51.6444 51.534 51.2631C52.8796 50.3735 53.3436 48.7635 52.6476 47.4078Z"
          fill="#B1D239"/>
</svg>
