<svg width="53" height="425" viewBox="0 0 53 425" fill="none" xmlns="http://www.w3.org/2000/svg">
    <path d="M41.8154 323.865C41.0104 324.608 40.5444 325.675 40.5444 326.835C40.5444 327.716 40.8409 328.598 41.3917 329.294C42.8321 331.243 43.9337 333.331 44.6539 335.511C45.4588 338.017 45.8401 340.43 45.8401 342.842C45.8401 348.549 43.7642 353.932 40.036 358.061C38.3413 360.01 36.223 361.541 33.8505 362.701C31.4357 363.815 28.9784 364.372 26.3941 364.372C23.7674 364.372 21.2678 363.815 18.9377 362.701C16.6499 361.634 14.574 360.056 12.7522 358.061C11.0152 356.159 9.57476 353.793 8.5156 351.148C7.49882 348.457 6.99042 345.626 6.99042 342.703C6.99042 338.017 8.34614 333.609 10.8881 329.99C11.3541 329.34 11.566 328.551 11.566 327.716C11.566 326.51 11.0576 325.35 10.1679 324.608C8.60034 323.355 6.43966 323.68 5.21105 325.35C1.86412 330.268 1.70157e-05 336.254 1.72955e-05 342.657C1.74659e-05 346.554 0.677876 350.359 2.07596 354.025C3.51641 357.644 5.42288 360.799 7.79538 363.397C10.1679 366.088 13.0064 368.223 16.1839 369.707C19.4884 371.239 22.9201 371.981 26.4365 371.981C30.08 371.981 33.5116 371.192 36.6467 369.707C39.9089 368.176 42.7474 366.088 45.0775 363.444C47.45 360.845 49.3989 357.736 50.797 354.21C52.2374 350.591 52.9576 346.74 52.9576 342.75C52.9576 339.362 52.4069 335.975 51.263 332.727C50.2038 329.665 48.721 326.788 46.7722 324.283C46.1791 323.494 45.3741 323.03 44.3997 322.937C43.4676 322.891 42.5356 323.169 41.8154 323.865ZM41.773 324.376C41.7306 324.422 41.7306 324.422 41.6883 324.468C41.7306 324.468 41.773 324.422 41.773 324.376ZM40.8833 326.742C40.8833 326.788 40.8833 326.835 40.8833 326.835C40.8833 326.788 40.8833 326.742 40.8833 326.742ZM41.5612 324.7C41.5188 324.747 41.5188 324.793 41.4764 324.84C41.5188 324.747 41.5188 324.7 41.5612 324.7ZM41.3493 324.979C41.307 325.025 41.307 325.072 41.2646 325.118C41.307 325.072 41.3493 325.025 41.3493 324.979ZM41.2222 325.304C41.2222 325.35 41.1799 325.396 41.1799 325.443C41.1799 325.396 41.1799 325.35 41.2222 325.304ZM41.0951 325.628C41.0951 325.675 41.0528 325.721 41.0528 325.768C41.0528 325.721 41.0528 325.675 41.0951 325.628ZM40.968 326C40.968 326.046 40.9257 326.092 40.9257 326.139C40.968 326.092 40.968 326.046 40.968 326ZM41.4764 328.783C41.5188 328.876 41.6035 328.969 41.6459 329.062C41.5612 328.969 41.5188 328.876 41.4764 328.783ZM40.9257 327.252C40.9257 327.299 40.9257 327.391 40.968 327.438C40.9257 327.391 40.9257 327.345 40.9257 327.252ZM40.968 327.577C40.968 327.623 41.0104 327.716 41.0104 327.763C41.0104 327.716 40.968 327.67 40.968 327.577ZM41.1799 328.18C41.2222 328.227 41.2222 328.319 41.2646 328.366C41.2222 328.319 41.1799 328.273 41.1799 328.18ZM41.307 328.505C41.3493 328.551 41.3917 328.644 41.4341 328.691C41.3493 328.644 41.3493 328.551 41.307 328.505ZM37.3669 360.984C36.562 361.588 35.757 362.098 34.8673 362.562C35.757 362.098 36.6043 361.541 37.3669 360.984ZM18.8953 362.98C18.0056 362.562 17.1583 362.052 16.3533 361.495C17.1159 362.052 18.0056 362.562 18.8953 362.98ZM13.9808 359.685C13.4724 359.221 13.0064 358.757 12.5827 358.293C13.0488 358.757 13.5148 359.221 13.9808 359.685ZM11.3541 327.716C11.3541 327.67 11.3541 327.623 11.3541 327.577L11.3541 327.623C11.3541 327.716 11.3541 327.716 11.3541 327.716ZM10.9728 329.34C10.9728 329.294 11.0152 329.294 11.0152 329.247C11.0152 329.247 10.9728 329.294 10.9728 329.34ZM11.1847 328.783C11.1847 328.737 11.1847 328.737 11.227 328.691C11.1847 328.737 11.1847 328.783 11.1847 328.783ZM11.3118 328.273L11.3118 328.227C11.3118 328.227 11.3118 328.227 11.3118 328.273ZM10.4221 325.164C10.3797 325.118 10.3797 325.118 10.3373 325.072C10.3797 325.118 10.4221 325.164 10.4221 325.164ZM11.2694 326.974C11.2694 326.927 11.2694 326.927 11.2694 326.881C11.2694 326.881 11.2694 326.927 11.2694 326.974ZM11.1847 326.51C11.1847 326.463 11.1847 326.463 11.1423 326.417C11.1423 326.463 11.1847 326.463 11.1847 326.51ZM11.0576 326.139C11.0576 326.092 11.0152 326.046 11.0152 326C11.0152 326.092 11.0152 326.139 11.0576 326.139ZM10.6763 325.489C10.6339 325.443 10.6339 325.396 10.5915 325.396C10.6339 325.443 10.6763 325.443 10.6763 325.489ZM5.59234 325.536C4.74502 326.788 3.98243 328.041 3.30457 329.387C3.98243 328.041 4.74502 326.742 5.59234 325.536ZM2.83855 330.407C2.54198 331.103 2.24542 331.799 2.03359 332.495C2.28779 331.799 2.54198 331.103 2.83855 330.407ZM50.9664 332.913C51.0935 333.331 51.2206 333.702 51.3477 334.119C51.2206 333.702 51.0935 333.284 50.9664 332.913Z" fill="white"/>
    <path d="M41.8154 269.996C41.0104 270.738 40.5444 271.806 40.5444 272.966C40.5444 273.847 40.8409 274.729 41.3917 275.425C42.8321 277.373 43.9337 279.461 44.6539 281.642C45.4588 284.148 45.8401 286.56 45.8401 288.973C45.8401 294.68 43.7642 300.063 40.036 304.192C38.3413 306.141 36.223 307.672 33.8505 308.832C31.4357 309.946 28.9784 310.502 26.3941 310.502C23.7674 310.502 21.2678 309.946 18.9377 308.832C16.6499 307.765 14.574 306.187 12.7522 304.192C11.0152 302.29 9.57476 299.923 8.5156 297.279C7.49882 294.587 6.99042 291.757 6.99042 288.834C6.99042 284.148 8.34614 279.74 10.8881 276.121C11.3541 275.471 11.566 274.682 11.566 273.847C11.566 272.641 11.0576 271.481 10.1679 270.738C8.60034 269.486 6.43966 269.81 5.21105 271.481C1.86412 276.399 1.70157e-05 282.431 1.72955e-05 288.834C1.74659e-05 292.732 0.677876 296.536 2.07596 300.202C3.51641 303.821 5.42288 306.976 7.79538 309.574C10.1679 312.266 13.0064 314.4 16.1839 315.885C19.4884 317.416 22.9201 318.158 26.4365 318.158C30.08 318.158 33.5116 317.369 36.6467 315.885C39.9089 314.353 42.7474 312.266 45.0775 309.621C47.45 307.022 49.3989 303.914 50.797 300.387C52.2374 296.768 52.9576 292.917 52.9576 288.927C52.9576 285.54 52.4069 282.153 51.263 278.905C50.2038 275.842 48.721 272.966 46.7722 270.46C46.1791 269.671 45.3741 269.207 44.3997 269.114C43.4676 269.022 42.5356 269.346 41.8154 269.996ZM41.773 270.553C41.7306 270.599 41.7306 270.599 41.6883 270.646C41.7306 270.599 41.773 270.553 41.773 270.553ZM40.8833 272.873C40.8833 272.919 40.8833 272.966 40.8833 272.966C40.8833 272.919 40.8833 272.919 40.8833 272.873ZM41.3493 271.11C41.307 271.156 41.307 271.202 41.2646 271.249C41.307 271.202 41.3493 271.156 41.3493 271.11ZM41.2222 271.434C41.2222 271.481 41.1799 271.527 41.1799 271.574C41.1799 271.527 41.1799 271.481 41.2222 271.434ZM41.0951 271.806C41.0951 271.852 41.0528 271.898 41.0528 271.945C41.0528 271.898 41.0528 271.852 41.0951 271.806ZM40.968 272.13C40.968 272.177 40.9257 272.223 40.9257 272.27C40.968 272.223 40.968 272.177 40.968 272.13ZM40.9257 273.43C40.9257 273.476 40.9257 273.569 40.968 273.615C40.9257 273.522 40.9257 273.476 40.9257 273.43ZM40.968 273.754C40.968 273.801 41.0104 273.894 41.0104 273.94C41.0104 273.847 40.968 273.801 40.968 273.754ZM41.0528 274.033C41.0528 274.079 41.0951 274.172 41.0951 274.218C41.0951 274.172 41.0528 274.126 41.0528 274.033ZM41.1799 274.357C41.2222 274.404 41.2222 274.497 41.2646 274.543C41.2222 274.45 41.1799 274.404 41.1799 274.357ZM41.307 274.636C41.3493 274.682 41.3917 274.775 41.4341 274.821C41.3493 274.775 41.3493 274.729 41.307 274.636ZM41.4764 274.914C41.5188 275.007 41.6035 275.1 41.6459 275.193C41.5612 275.1 41.5188 275.007 41.4764 274.914ZM45.0352 296.351C45.247 295.701 45.4588 295.005 45.5859 294.309C45.7554 293.613 45.8825 292.917 45.9672 292.221C46.052 291.525 46.1367 290.783 46.1791 290.087C46.1367 290.829 46.0943 291.525 45.9672 292.221C45.8401 292.917 45.7554 293.613 45.5859 294.309C45.4165 295.005 45.247 295.655 45.0352 296.351ZM38.8921 305.862C38.3837 306.326 37.9177 306.744 37.3669 307.115C37.9177 306.744 38.4261 306.326 38.8921 305.862ZM34.02 309.11C34.6131 308.832 35.2062 308.507 35.757 308.182C35.2062 308.554 34.6131 308.832 34.02 309.11C33.0879 309.528 32.1983 309.853 31.2662 310.131C32.1983 309.899 33.0879 309.528 34.02 309.11ZM18.8953 309.11C19.785 309.528 20.717 309.853 21.6491 310.131C20.6747 309.899 19.785 309.528 18.8953 309.11ZM17.1583 308.182C16.6075 307.858 16.0568 307.486 15.5484 307.069C16.0568 307.486 16.5652 307.858 17.1583 308.182ZM11.2694 302.847C10.8457 302.29 10.4644 301.733 10.1255 301.13C10.5068 301.687 10.8881 302.29 11.2694 302.847ZM8.30377 297.418C8.43087 297.743 8.55797 298.067 8.72743 298.392C8.55797 298.021 8.43087 297.743 8.30377 297.418C8.04958 296.722 7.83775 296.026 7.62592 295.33C7.79538 296.026 8.04958 296.722 8.30377 297.418ZM7.11752 293.196C6.99043 292.5 6.90569 291.757 6.82096 291.015C6.90569 291.757 6.99043 292.453 7.11752 293.196ZM6.73623 288.834C6.73623 289.205 6.73623 289.576 6.77859 289.948C6.77859 289.576 6.73623 289.205 6.73623 288.834ZM11.3541 273.894C11.3541 273.847 11.3541 273.801 11.3541 273.754L11.3541 273.801C11.3541 273.847 11.3541 273.847 11.3541 273.894ZM11.1847 274.961C11.1847 274.914 11.1847 274.914 11.227 274.868C11.1847 274.868 11.1847 274.914 11.1847 274.961ZM11.3118 274.404L11.3118 274.357C11.3118 274.404 11.3118 274.404 11.3118 274.404ZM10.4644 271.342C10.4221 271.295 10.4221 271.295 10.3797 271.249C10.3797 271.295 10.4221 271.295 10.4644 271.342ZM11.1847 272.641C11.1847 272.594 11.1847 272.594 11.1423 272.548C11.1423 272.594 11.1847 272.641 11.1847 272.641ZM11.0576 272.316C11.0576 272.27 11.0152 272.223 11.0152 272.177C11.0152 272.223 11.0152 272.27 11.0576 272.316ZM10.6763 271.666C10.6339 271.62 10.6339 271.574 10.5915 271.574C10.6339 271.574 10.6763 271.62 10.6763 271.666ZM10.0832 270.97C9.65949 270.599 9.1511 270.414 8.6427 270.321C9.1511 270.414 9.65949 270.646 10.0832 270.97ZM0.847339 283.034C0.50841 284.89 0.338946 286.839 0.338946 288.834C0.338946 286.839 0.50841 284.936 0.847339 283.034ZM52.6187 288.973C52.6187 288.138 52.5763 287.303 52.4916 286.468C52.5763 287.256 52.6187 288.138 52.6187 288.973ZM52.3645 285.168C52.2374 284.333 52.1103 283.498 51.9409 282.663C52.1527 283.498 52.2798 284.333 52.3645 285.168ZM46.0943 270.228C45.9249 270.089 45.7554 269.95 45.5859 269.857C45.7554 269.95 45.9249 270.042 46.0943 270.228ZM44.6963 269.486C44.9081 269.532 45.0775 269.578 45.2894 269.671C45.0775 269.625 44.8657 269.532 44.6963 269.486C44.1879 269.393 43.6795 269.393 43.1711 269.578C42.8745 269.671 42.5779 269.81 42.3238 270.042C42.239 270.089 42.1543 270.182 42.0696 270.274C42.1543 270.182 42.239 270.135 42.3238 270.042C42.5779 269.857 42.8745 269.671 43.1711 269.578C43.6371 269.439 44.1879 269.393 44.6963 269.486Z" fill="white"/>
    <path d="M16.2686 208.425C13.0064 209.909 10.2102 211.951 7.8801 214.456C2.79617 219.839 0.0423753 227.123 0.0423757 234.872C0.0423759 238.816 0.720234 242.667 2.11832 246.333C3.5164 249.905 5.42287 253.014 7.83774 255.659C10.2102 258.35 13.0488 260.484 16.2262 261.969C19.4461 263.547 22.9201 264.335 26.4788 264.335C29.9528 264.335 33.3845 263.593 36.6891 262.062C39.7394 260.624 42.5779 258.536 45.1199 255.798C47.5348 253.153 49.4412 250.045 50.8393 246.472C52.2798 242.853 53 239.048 53 235.104C53 227.309 50.2038 220.024 45.1623 214.549C42.7474 211.905 39.9089 209.863 36.7314 208.425C33.5963 206.94 30.207 206.244 26.5212 206.244C22.8777 206.244 19.446 206.986 16.2686 208.425ZM6.73622 234.918C6.73622 236.032 6.82095 237.099 6.94805 238.213C7.15988 239.651 7.45644 241.09 7.92247 242.482C7.45644 241.09 7.15988 239.698 6.94805 238.213C6.82095 237.099 6.73622 235.986 6.73622 234.918ZM19.0224 254.87C16.7346 253.849 14.6587 252.272 12.8369 250.23C11.0152 248.235 9.61712 245.961 8.60033 243.317C7.58354 240.626 7.07515 237.795 7.07515 234.872C7.07515 229.165 9.10872 223.875 12.7946 219.932C16.3957 216.034 21.2254 213.9 26.4365 213.9C28.9784 213.9 31.5204 214.456 33.9353 215.477C36.3925 216.637 38.4261 218.122 40.1207 219.978C43.8066 224.015 45.8825 229.397 45.8825 235.058C45.8825 240.765 43.8066 246.147 40.0783 250.277C38.3837 252.225 36.3078 253.756 33.8929 254.916C31.478 256.03 29.0208 256.587 26.4365 256.587C23.7674 256.633 21.2678 256.03 19.0224 254.87ZM21.6067 256.308C20.6747 256.03 19.7426 255.659 18.8529 255.241C19.785 255.659 20.6747 256.03 21.6067 256.308ZM51.4748 226.706C51.729 227.587 51.9408 228.515 52.1103 229.443C52.2798 230.371 52.4069 231.299 52.4916 232.227C52.4069 231.299 52.2798 230.325 52.1103 229.443C51.9408 228.562 51.729 227.634 51.4748 226.706ZM48.8905 220.349C48.4668 219.56 47.9584 218.772 47.45 218.029C47.9584 218.772 48.4245 219.56 48.8905 220.349Z" fill="white"/>
    <path d="M45.5859 165.923L45.5859 193.484L3.89765 193.484C1.86408 193.484 0.254169 195.247 0.254169 197.475C0.254169 199.655 1.86408 201.465 3.89765 201.465L49.2294 201.465C51.2206 201.465 52.8729 199.702 52.8729 197.475L52.8729 165.923C52.8729 163.696 51.263 161.933 49.2294 161.933C47.1958 161.979 45.5859 163.696 45.5859 165.923ZM50.2038 200.954C50.8393 200.722 51.3477 200.305 51.7714 199.794C51.3901 200.305 50.8393 200.722 50.2038 200.954ZM52.3645 198.542C52.4068 198.31 52.4916 198.078 52.4916 197.846C52.4916 198.124 52.4492 198.356 52.3645 198.542ZM52.4916 165.552C52.4492 165.32 52.4068 165.088 52.3645 164.856C52.4492 165.088 52.4916 165.32 52.4916 165.552ZM51.7713 163.65C51.3901 163.093 50.8393 162.722 50.2038 162.49C50.8393 162.675 51.3901 163.093 51.7713 163.65Z" fill="white"/>
    <path d="M16.438 49.7861C13.2182 51.3173 10.422 53.4516 8.00717 56.1428C5.54993 58.9731 3.64346 62.1746 2.33011 65.6546C0.974392 69.3665 0.254168 73.2176 0.254168 77.1615L0.254169 93.726C0.254169 94.7468 0.677831 95.8603 1.35569 96.6027C1.99118 97.3451 2.92323 97.8091 3.89765 97.8091L49.2294 97.8091C51.2206 97.8091 52.8729 95.9995 52.8729 93.7724L52.8729 77.3935L52.8729 77.3007C52.8729 73.4496 52.195 69.5521 50.7969 65.7937C49.3988 62.1746 47.4924 58.9731 45.1199 56.2819C42.7897 53.5908 39.9512 51.4101 36.7737 49.8325C33.5963 48.2085 30.207 47.4197 26.733 47.4197C23.2166 47.4661 19.7426 48.2549 16.438 49.7861ZM7.49877 89.7821L7.49877 77.2079C7.49877 71.408 9.53234 65.933 13.2182 61.8034C14.9128 59.8547 16.9888 58.2771 19.3189 57.1171C21.649 56.0035 24.1063 55.4004 26.6483 55.4004C29.1055 55.4004 31.4356 55.9571 33.7234 57.1171C36.0959 58.3699 38.1718 59.9939 39.8241 61.8962C41.5611 63.845 42.9168 66.2114 43.9336 68.8561C44.908 71.5008 45.4164 74.2848 45.5012 77.2079L45.5012 89.7821L7.49877 89.7821Z" fill="white"/>
    <path d="M45.5859 3.99023L45.5859 34.6136L30.0375 34.6136L30.0375 8.21256C30.0375 5.9854 28.4276 4.22222 26.3941 4.22222C24.4029 4.22222 22.7506 5.9854 22.7506 8.21256L22.7506 34.6136L7.49878 34.6136L7.49878 4.73263C7.49878 2.50548 5.88887 0.742296 3.85529 0.742296C1.82172 0.742297 0.211809 2.50548 0.211809 4.73263L0.21181 38.6039C0.21181 40.7847 1.82172 42.5942 3.85529 42.5942L49.187 42.5942C51.1782 42.5942 52.8305 40.8311 52.8305 38.6039L52.8305 3.99023C52.8305 1.76307 51.2206 -8.00216e-05 49.187 -7.99327e-05C47.1958 -7.98457e-05 45.5859 1.76307 45.5859 3.99023Z" fill="white"/>
    <path d="M48.0008 103.099L2.16067 126.484C2.1183 126.484 2.07593 126.53 2.03357 126.577L1.9912 126.577C1.8641 126.623 1.77937 126.716 1.65227 126.762C1.56754 126.809 1.48281 126.901 1.39808 126.994C1.31334 127.087 1.22861 127.133 1.14388 127.226C1.05915 127.319 0.974414 127.412 0.889682 127.505C0.80495 127.597 0.762585 127.69 0.720219 127.783C0.635486 127.876 0.59312 128.015 0.508388 128.154L0.508388 128.201C0.466022 128.247 0.466022 128.293 0.423656 128.34C0.423656 128.386 0.38129 128.433 0.38129 128.479L0.38129 128.525C0.338924 128.618 0.296557 128.757 0.254191 128.897C0.211824 128.989 0.211826 129.129 0.16946 129.221C0.127094 129.361 0.127093 129.453 0.127093 129.593C0.127093 129.732 0.127093 129.825 0.127093 129.964C0.127093 130.103 0.127093 130.196 0.127093 130.335C0.127093 130.474 0.16946 130.613 0.16946 130.706C0.16946 130.799 0.211825 130.938 0.254191 131.031C0.296557 131.17 0.338924 131.309 0.38129 131.402L0.38129 131.448C0.38129 131.495 0.423656 131.541 0.423656 131.588C0.423656 131.634 0.466022 131.68 0.508388 131.727L0.508388 131.773C0.550754 131.912 0.635486 132.005 0.677852 132.098C0.720218 132.191 0.80495 132.284 0.889682 132.376C0.974414 132.469 1.01678 132.562 1.10151 132.655C1.18624 132.748 1.27098 132.84 1.35571 132.933C1.44044 133.026 1.52517 133.072 1.60991 133.119C1.69464 133.212 1.82174 133.258 1.94883 133.351L1.9912 133.351C2.03357 133.397 2.07593 133.397 2.1183 133.444L48.0008 156.829C49.7378 157.71 51.7714 156.875 52.5763 154.973C52.7882 154.462 52.9153 153.952 52.9153 153.395C52.9153 151.91 52.1103 150.565 50.924 149.962L11.7778 130.01L50.924 110.059C52.1527 109.455 52.9153 108.11 52.9152 106.625C52.9152 106.068 52.7882 105.558 52.5763 105.047C51.8137 103.052 49.7378 102.217 48.0008 103.099ZM0.466021 129.917C0.466021 129.825 0.466021 129.685 0.466021 129.593C0.508387 129.685 0.466021 129.778 0.466021 129.917ZM51.0935 103.609C50.9241 103.516 50.7546 103.423 50.5428 103.331C50.7546 103.377 50.9241 103.47 51.0935 103.609Z" fill="white"/>
    <path d="M47.4077 372.352L2.88089 395.459C2.83852 395.506 2.79616 395.506 2.71142 395.552C2.66906 395.598 2.62669 395.598 2.54196 395.645C2.49959 395.691 2.41486 395.738 2.37249 395.784C2.33013 395.83 2.28776 395.877 2.2454 395.877C2.20303 395.923 2.16066 395.923 2.16066 395.969C2.16066 395.969 2.1183 395.969 2.1183 396.016C2.03356 396.062 1.9912 396.155 1.94883 396.201C1.90647 396.248 1.90647 396.248 1.8641 396.294C1.82174 396.341 1.77937 396.387 1.77937 396.433C1.737 396.48 1.737 396.526 1.69464 396.573C1.65227 396.665 1.6099 396.712 1.56754 396.805C1.56754 396.851 1.52517 396.851 1.52517 396.897C1.48281 396.944 1.48281 396.99 1.44044 397.037C1.44044 397.083 1.39807 397.083 1.39807 397.083C1.39807 397.083 1.39807 397.083 1.39807 397.129C1.35571 397.176 1.35571 397.269 1.31334 397.315C1.31334 397.361 1.27098 397.408 1.27098 397.454C1.22861 397.547 1.22861 397.593 1.22861 397.686C1.22861 397.733 1.22861 397.779 1.18624 397.825C1.18624 397.872 1.18624 397.918 1.14388 397.965C1.14388 398.011 1.14388 398.011 1.14388 398.057C1.14388 398.15 1.14388 398.243 1.14388 398.289C1.14388 398.336 1.14388 398.382 1.14388 398.429C1.14388 398.475 1.14388 398.475 1.14388 398.521L1.14388 398.568C1.14388 398.661 1.14388 398.753 1.14388 398.846C1.14388 398.939 1.14388 399.032 1.18624 399.171C1.18624 399.217 1.18624 399.264 1.18624 399.31C1.18624 399.357 1.22861 399.449 1.22861 399.496C1.27098 399.635 1.31334 399.728 1.35571 399.867C1.35571 399.913 1.39807 399.96 1.39807 400.006C1.39807 400.053 1.44044 400.099 1.48281 400.145C1.52517 400.238 1.6099 400.377 1.65227 400.47C1.69464 400.563 1.77937 400.656 1.82173 400.702C1.90647 400.795 1.94883 400.888 2.03356 400.934C2.1183 401.027 2.16066 401.073 2.2454 401.166C2.33013 401.213 2.41486 401.305 2.49959 401.352C2.58433 401.398 2.66906 401.491 2.79615 401.537C2.83852 401.584 2.88089 401.584 2.92325 401.63L9.44763 405.017L47.2806 424.644C48.6786 425.34 50.3733 425.015 51.263 423.67C51.6866 423.067 51.8561 422.371 51.8561 421.628C51.8561 420.793 51.5595 419.958 51.0511 419.308L38.2989 404.136C37.3669 403.069 35.7993 403.069 34.9097 404.136C34.9097 404.136 34.9097 404.136 34.8673 404.182C33.4692 405.852 33.3421 408.358 34.7402 410.028L35.5875 411.049L16.6922 401.259L11.4812 398.568L35.5875 386.04L27.0296 396.248C26.9872 396.294 26.9448 396.341 26.9025 396.433C26.8601 396.526 26.7754 396.619 26.733 396.665C26.6906 396.712 26.6906 396.758 26.6483 396.805C26.6059 396.851 26.6059 396.944 26.5635 396.99C26.5212 397.083 26.4788 397.176 26.4364 397.269C26.4364 397.315 26.3941 397.361 26.3941 397.408C26.3517 397.501 26.3517 397.547 26.3517 397.64C26.3093 397.733 26.3093 397.825 26.3093 397.872C26.3093 397.918 26.3093 397.965 26.267 398.011C26.267 398.104 26.267 398.197 26.2246 398.243C26.2246 398.336 26.2246 398.382 26.2246 398.475C26.2246 398.521 26.2246 398.521 26.2246 398.568L26.2246 398.614C26.2246 398.707 26.2246 398.8 26.2246 398.893C26.2246 398.985 26.2246 399.078 26.267 399.171C26.267 399.217 26.267 399.264 26.3093 399.31C26.3093 399.403 26.3517 399.449 26.3517 399.542C26.3941 399.635 26.3941 399.728 26.4364 399.821C26.4364 399.867 26.4788 399.913 26.4788 399.96C26.5212 400.053 26.5635 400.099 26.5635 400.145C26.6059 400.238 26.6483 400.331 26.6906 400.424C26.733 400.47 26.733 400.517 26.7754 400.563C26.8177 400.609 26.8601 400.702 26.9025 400.749C26.9872 400.888 27.0719 400.981 27.199 401.12C28.47 402.419 30.4189 402.326 31.6051 400.934L33.5539 398.614L51.0511 377.827C51.6019 377.178 51.8561 376.343 51.8561 375.508C51.8561 374.812 51.6443 374.069 51.263 373.466C50.3733 372.12 48.7634 371.656 47.4077 372.352Z" fill="#B1D239"/>
</svg>
