<svg width="28" height="37" viewBox="0 0 28 37" fill="none" xmlns="http://www.w3.org/2000/svg">
    <path d="M19.3921 25.1962L14.1959 34.1962L8.99978 25.1962L19.3921 25.1962Z" fill="#B1D239"/>
    <circle cx="14" cy="14" r="14" fill="#B1D239"/>
    <path d="M20.9151 19.7719L14.8079 7.47953C14.7956 7.46784 14.7956 7.45614 14.7833 7.43275C14.7711 7.42105 14.7711 7.40936 14.7588 7.38596C14.7465 7.37427 14.7343 7.35088 14.722 7.33918C14.7097 7.32749 14.6975 7.31579 14.6975 7.30409C14.6852 7.2924 14.6852 7.2807 14.673 7.2807C14.673 7.2807 14.673 7.26901 14.6607 7.26901C14.6484 7.24561 14.6239 7.23392 14.6116 7.22222C14.5994 7.21053 14.5994 7.21053 14.5871 7.19883C14.5748 7.18713 14.5626 7.17544 14.5503 7.17544C14.5381 7.16374 14.5258 7.16374 14.5135 7.15205C14.489 7.14035 14.4767 7.12865 14.4522 7.11696C14.44 7.11696 14.4399 7.10526 14.4277 7.10526C14.4154 7.09357 14.4032 7.09357 14.3909 7.08187C14.3786 7.08187 14.3786 7.07018 14.3786 7.07018C14.3786 7.07018 14.3786 7.07018 14.3664 7.07018C14.3541 7.05848 14.3296 7.05848 14.3173 7.04678C14.3051 7.04678 14.2928 7.03509 14.2805 7.03509C14.256 7.02339 14.2437 7.02339 14.2192 7.02339C14.2069 7.02339 14.1947 7.02339 14.1824 7.0117C14.1702 7.0117 14.1579 7.0117 14.1456 7C14.1334 7 14.1334 7 14.1211 7C14.0966 7 14.072 7 14.0598 7C14.0475 7 14.0353 7 14.023 7C14.0107 7 14.0107 7 13.9985 7H13.9862C13.9617 7 13.9371 7 13.9126 7C13.8881 7 13.8636 7 13.8268 7.0117C13.8145 7.0117 13.8022 7.0117 13.79 7.0117C13.7777 7.0117 13.7532 7.02339 13.7409 7.02339C13.7041 7.03509 13.6796 7.04678 13.6428 7.05848C13.6306 7.05848 13.6183 7.07018 13.606 7.07018C13.5938 7.07018 13.5815 7.08187 13.5692 7.09357C13.5447 7.10526 13.5079 7.12866 13.4834 7.14035C13.4589 7.15205 13.4343 7.17544 13.4221 7.18713C13.3975 7.21053 13.373 7.22222 13.3608 7.24561C13.3362 7.26901 13.324 7.2807 13.2994 7.30409C13.2872 7.32749 13.2626 7.35088 13.2504 7.37427C13.2381 7.39766 13.2136 7.42105 13.2013 7.45614C13.1891 7.46784 13.1891 7.47953 13.1768 7.49123L12.2816 9.2924L7.09407 19.7368C6.91011 20.1228 6.99596 20.5906 7.3516 20.8363C7.51103 20.9532 7.69498 21 7.8912 21C8.11194 21 8.33269 20.9181 8.50438 20.7778L12.5146 17.2573C12.7966 17 12.7966 16.5673 12.5146 16.3216C12.5146 16.3216 12.5146 16.3216 12.5023 16.3099C12.0608 15.924 11.3986 15.8889 10.9571 16.2749L10.6873 16.5088L13.2749 11.2924L13.9862 9.8538L17.2974 16.5088L14.5994 14.1462C14.5871 14.1345 14.5748 14.1228 14.5503 14.1111C14.5258 14.0994 14.5013 14.076 14.489 14.0643C14.4767 14.0526 14.4645 14.0526 14.4522 14.0409C14.44 14.0292 14.4154 14.0292 14.4032 14.0175C14.3786 14.0058 14.3541 13.9942 14.3296 13.9825C14.3173 13.9825 14.3051 13.9708 14.2928 13.9708C14.2683 13.9591 14.256 13.9591 14.2315 13.9591C14.2069 13.9474 14.1824 13.9474 14.1702 13.9474C14.1579 13.9474 14.1456 13.9474 14.1334 13.9357C14.1088 13.9357 14.0843 13.9357 14.072 13.924C14.0475 13.924 14.0353 13.924 14.0107 13.924C13.9985 13.924 13.9985 13.924 13.9862 13.924H13.9739C13.9494 13.924 13.9249 13.924 13.9004 13.924C13.8758 13.924 13.8513 13.924 13.8268 13.9357C13.8145 13.9357 13.8022 13.9357 13.79 13.9474C13.7655 13.9474 13.7532 13.9591 13.7287 13.9591C13.7041 13.9708 13.6796 13.9708 13.6551 13.9825C13.6428 13.9825 13.6306 13.9942 13.6183 13.9942C13.5938 14.0058 13.5815 14.0175 13.5692 14.0175C13.5447 14.0292 13.5202 14.0409 13.4957 14.0526C13.4834 14.0643 13.4711 14.0643 13.4589 14.076C13.4466 14.0877 13.4221 14.0994 13.4098 14.1111C13.373 14.1345 13.3485 14.1579 13.3117 14.193C12.9683 14.5439 12.9928 15.0819 13.3608 15.4094L13.9739 15.9474L19.468 20.7778C19.6397 20.9298 19.8605 21 20.0812 21C20.2651 21 20.4614 20.9415 20.6208 20.8363C20.9764 20.5906 21.0991 20.1462 20.9151 19.7719Z" fill="#111212"/>
</svg>
