<?xml version="1.0" encoding="UTF-8"?><svg id="Calque_1" xmlns="http://www.w3.org/2000/svg" viewBox="0 0 170 100"><defs><style>.cls-1{fill:#bdcd12;}.cls-2{fill:none;}</style></defs><path class="cls-1" d="M38.59,73.94c11.02-.02,22.16-.03,32.87,2.56,11.38,2.74,21.92,8.34,31.4,15.2-.28-2.09-.3-4.21-.07-6.31.36-3.24,1.33-6.37,2.38-9.45,2.46-7.22,5.37-14.29,8.73-21.14,1.91-3.9,3.97-7.74,6.36-11.36,4.22-6.41,9.6-12.44,11.15-19.96-6.4.23-11.88,4.42-16.88,8.42-6.31,5.05-12.72,10.2-17.32,16.84,2.74-13.04,5.48-26.08,8.22-39.12-9.16,5.62-15.38,14.87-21.3,23.84-2.34,3.55-4.68,7.09-7.03,10.64,1.52-12.05-.06-24.49-4.55-35.78-5.16,12.53-10.32,25.07-15.48,37.6-4.02-10.63-8.11-21.41-14.76-30.62-.84,2.75-.28,5.71-.1,8.58.2,3.06-.05,6.13-.29,9.18-1.07,13.49-2.14,26.98-3.22,40.47"/><rect class="cls-2" width="170" height="100"/></svg>