<svg width="75" height="75" viewBox="0 0 75 75" fill="none" xmlns="http://www.w3.org/2000/svg">
    <g clip-path="url(#clip0_179_138)">
        <path d="M2.34375 14.0625C3.63281 14.0625 4.6875 13.0078 4.6875 11.7188V4.6875H11.7188C13.0078 4.6875 14.0625 3.63281 14.0625 2.34375C14.0625 1.05469 13.0078 0 11.7188 0H2.34375C1.05469 0 0 1.05469 0 2.34375V11.7188C0 13.0078 1.05469 14.0625 2.34375 14.0625Z" fill="white"/>
        <path d="M63.2812 4.6875H70.3125V11.7188C70.3125 13.0078 71.3672 14.0625 72.6562 14.0625C73.9453 14.0625 75 13.0078 75 11.7188V2.34375C75 1.05469 73.9453 0 72.6562 0H63.2812C61.9922 0 60.9375 1.05469 60.9375 2.34375C60.9375 3.63281 61.9922 4.6875 63.2812 4.6875Z" fill="white"/>
        <path d="M11.7188 70.3125H4.6875V63.2812C4.6875 61.9922 3.63281 60.9375 2.34375 60.9375C1.05469 60.9375 0 61.9922 0 63.2812V72.6562C0 73.9453 1.05469 75 2.34375 75H11.7188C13.0078 75 14.0625 73.9453 14.0625 72.6562C14.0625 71.3672 13.0078 70.3125 11.7188 70.3125Z" fill="white"/>
        <path d="M72.6562 60.9375C71.3672 60.9375 70.3125 61.9922 70.3125 63.2812V70.3125H63.2812C61.9922 70.3125 60.9375 71.3672 60.9375 72.6562C60.9375 73.9453 61.9922 75 63.2812 75H72.6562C73.9453 75 75 73.9453 75 72.6562V63.2812C75 61.9922 73.9453 60.9375 72.6562 60.9375Z" fill="white"/>
        <path d="M63.2227 9.44824H11.6309C10.4297 9.44824 9.44824 10.4297 9.44824 11.6309V63.2227C9.44824 64.4238 10.4297 65.4053 11.6309 65.4053H63.2227C64.4238 65.4053 65.4053 64.4238 65.4053 63.2227V11.6309C65.4053 10.4297 64.4238 9.44824 63.2227 9.44824ZM13.8135 13.8135H61.04V26.499H13.8135V13.8135ZM61.04 61.04H13.8135V30.8643H61.04V61.04Z" fill="#B1D239"/>
        <path d="M24.5654 22.3389H20.918C19.7168 22.3389 18.7354 21.3574 18.7354 20.1563C18.7354 18.9551 19.7168 17.9736 20.918 17.9736H24.5654C25.7666 17.9736 26.748 18.9551 26.748 20.1563C26.748 21.3574 25.7666 22.3389 24.5654 22.3389Z" fill="white"/>
        <path d="M53.9355 22.3389H32.9443C31.7432 22.3389 30.7617 21.3574 30.7617 20.1563C30.7617 18.9551 31.7432 17.9736 32.9443 17.9736H53.9355C55.1367 17.9736 56.1182 18.9551 56.1182 20.1563C56.1182 21.3574 55.1367 22.3389 53.9355 22.3389Z" fill="white"/>
    </g>
    <defs>
        <clipPath id="clip0_179_138">
            <rect width="75" height="75" fill="white"/>
        </clipPath>
    </defs>
</svg>
