<svg width="40" height="30" viewBox="0 0 40 30" fill="none" xmlns="http://www.w3.org/2000/svg">
    <path d="M40 3.8147e-06L40 7.89474C40 10.2924 39.5665 12.8363 38.6996 15.5263C37.8027 18.2456 36.5172 20.8626 34.8431 23.3772C33.139 25.9211 31.0912 28.1287 28.6996 30L22.9596 25.4386C24.843 22.807 26.4873 20.0585 27.8924 17.193C29.2676 14.3567 29.9552 11.3158 29.9552 8.07018L29.9552 2.93655e-06L40 3.8147e-06ZM17.0404 1.8075e-06L17.0404 7.89474C17.0404 10.2924 16.6069 12.8363 15.7399 15.5263C14.843 18.2456 13.5575 20.8626 11.8834 23.3772C10.1794 25.9211 8.13154 28.1287 5.73991 30L-3.41593e-06 25.4386C1.88341 22.807 3.52765 20.0585 4.93273 17.193C6.30792 14.3567 6.99552 11.3158 6.99552 8.07018L6.99552 9.29353e-07L17.0404 1.8075e-06Z" fill="#111212"/>
</svg>
