<?xml version="1.0" encoding="UTF-8"?><svg id="Calque_1" xmlns="http://www.w3.org/2000/svg" viewBox="0 0 170 100"><defs><style>.cls-1{fill:#bdcd12;}</style></defs><path class="cls-1" d="M34.54,80.28h-.02c-9.56-.06-27.64-5.91-27.64-27.58,0-6.93,2.25-11.86,6.68-14.63,9.91-6.22,26.55,1.51,28.42,2.42,1.49.72,2.12,2.52,1.39,4.01-.72,1.49-2.51,2.11-4,1.4h0c-4.24-2.05-16.58-6.52-22.62-2.73-2.6,1.63-3.86,4.75-3.86,9.55,0,21.19,20.8,21.57,21.68,21.58,1.66.01,2.99,1.36,2.98,3.02-.01,1.65-1.35,2.98-3,2.98Z"/><path class="cls-1" d="M25.56,60.28c3.02-2.56,8.23-4.16,10.95-.25,2.19,3.15,7.39.15,5.18-3.03-5.09-7.3-14.19-6.2-20.37-.97-2.95,2.5,1.31,6.72,4.24,4.24h0Z"/><path class="cls-1" d="M140.3,70.43c-.17,0-.29,0-.33,0-1.66-.05-2.96-1.43-2.91-3.08s1.41-2.96,3.09-2.91c.08,0,9.88.17,14.5-5.72,2.74-3.49,3.21-8.65,1.39-15.33-2.01-7.39-5.72-16.43-11.98-17.55-8.04-1.43-18.18,10-21.41,14.53-.96,1.35-2.83,1.66-4.18.7-1.35-.96-1.67-2.83-.71-4.18.56-.79,13.93-19.35,27.34-16.96,7.52,1.34,13.14,8.7,16.73,21.88,2.34,8.62,1.51,15.56-2.48,20.63-6,7.61-16.96,7.98-19.04,7.98Z"/><path class="cls-1" d="M149.94,42.41c-7.88-1.17-16.53,2.57-16.86,11.53-.14,3.86,5.86,3.86,6,0,.17-4.69,5.31-6.33,9.27-5.75s5.41-5.22,1.6-5.79h0Z"/></svg>