<svg width="50" height="50" viewBox="0 0 50 50" fill="none" xmlns="http://www.w3.org/2000/svg">
    <path d="M49.6969 45.614L27.8852 1.71261C27.8414 1.67084 27.8414 1.62907 27.7976 1.54553C27.7538 1.50376 27.7538 1.46199 27.71 1.37845C27.6662 1.33667 27.6224 1.25313 27.5786 1.21136C27.5348 1.16959 27.491 1.12782 27.491 1.08605C27.4472 1.04428 27.4472 1.00251 27.4034 1.00251C27.4034 1.00251 27.4034 0.960735 27.3596 0.960735C27.3158 0.877193 27.2282 0.835421 27.1844 0.79365C27.1406 0.751879 27.1406 0.75188 27.0968 0.710109C27.053 0.668338 27.0092 0.626566 26.9654 0.626566C26.9216 0.584795 26.8778 0.584795 26.834 0.543024C26.7464 0.501253 26.7026 0.459482 26.615 0.417711C26.5712 0.417711 26.5712 0.375939 26.5274 0.375939C26.4837 0.334168 26.4399 0.334169 26.3961 0.292398C26.3523 0.292398 26.3523 0.250626 26.3523 0.250626C26.3523 0.250626 26.3523 0.250626 26.3085 0.250626C26.2647 0.208855 26.1771 0.208855 26.1333 0.167083C26.0895 0.167083 26.0457 0.125313 26.0019 0.125313C25.9143 0.0835419 25.8705 0.0835425 25.7829 0.0835425C25.7391 0.0835425 25.6953 0.0835416 25.6515 0.0417705C25.6077 0.0417705 25.5639 0.0417711 25.5201 0C25.4763 0 25.4763 0 25.4325 0C25.3449 0 25.2573 0 25.2135 0C25.1697 0 25.1259 0 25.0821 0C25.0383 0 25.0383 0 24.9945 0L24.9507 0C24.8631 0 24.7755 0 24.6879 0C24.6003 0 24.5127 -6.37999e-07 24.3813 0.0417705C24.3375 0.0417705 24.2937 0.0417705 24.2499 0.0417705C24.2061 0.0417705 24.1185 0.0835425 24.0747 0.0835425C23.9433 0.125314 23.8557 0.167084 23.7243 0.208855C23.6805 0.208855 23.6368 0.250626 23.593 0.250626C23.5492 0.250626 23.5054 0.292397 23.4616 0.334168C23.374 0.37594 23.2426 0.459482 23.155 0.501253C23.0674 0.543025 22.9798 0.626566 22.936 0.668337C22.8484 0.751879 22.7608 0.79365 22.717 0.877192C22.6294 0.960735 22.5856 1.00251 22.498 1.08605C22.4542 1.16959 22.3666 1.25313 22.3228 1.33668C22.279 1.42022 22.1914 1.50376 22.1476 1.62907C22.1038 1.67084 22.1038 1.71262 22.06 1.75439L18.8627 8.18714L0.335954 45.4887C-0.321023 46.8672 -0.0144329 48.538 1.25572 49.4152C1.8251 49.8329 2.48208 50 3.18286 50C3.97123 50 4.7596 49.7076 5.37278 49.2064L19.6949 36.6333C20.7023 35.7143 20.7023 34.1688 19.6949 33.2916C19.6949 33.2916 19.6949 33.2916 19.6511 33.2498C18.0743 31.8713 15.7092 31.746 14.1325 33.1245L13.1689 33.9599L22.4104 15.33L24.9507 10.1921L36.7763 33.9599L27.1406 25.5221C27.0968 25.4804 27.053 25.4386 26.9654 25.3968C26.8778 25.3551 26.7902 25.2715 26.7464 25.2297C26.7026 25.188 26.6588 25.188 26.615 25.1462C26.5712 25.1044 26.4837 25.1044 26.4399 25.0627C26.3523 25.0209 26.2647 24.9791 26.1771 24.9373C26.1333 24.9373 26.0895 24.8956 26.0457 24.8956C25.9581 24.8538 25.9143 24.8538 25.8267 24.8538C25.7391 24.812 25.6515 24.812 25.6077 24.812C25.5639 24.812 25.5201 24.812 25.4763 24.7703C25.3887 24.7703 25.3011 24.7703 25.2573 24.7285C25.1697 24.7285 25.1259 24.7285 25.0383 24.7285C24.9945 24.7285 24.9945 24.7285 24.9507 24.7285H24.9069C24.8193 24.7285 24.7317 24.7285 24.6441 24.7285C24.5565 24.7285 24.4689 24.7285 24.3813 24.7703C24.3375 24.7703 24.2937 24.7703 24.2499 24.812C24.1623 24.812 24.1185 24.8538 24.0309 24.8538C23.9433 24.8956 23.8557 24.8956 23.7681 24.9373C23.7243 24.9373 23.6805 24.9791 23.6367 24.9791C23.5492 25.0209 23.5054 25.0627 23.4616 25.0627C23.374 25.1044 23.2864 25.1462 23.1988 25.188C23.155 25.2297 23.1112 25.2297 23.0674 25.2715C23.0236 25.3133 22.936 25.3551 22.8922 25.3968C22.7608 25.4804 22.6732 25.5639 22.5418 25.6892C21.3154 26.9424 21.403 28.8638 22.717 30.0334L24.9069 31.9549L44.5286 49.2064C45.1418 49.7494 45.9302 50 46.7186 50C47.3755 50 48.0763 49.7911 48.6457 49.4152C49.9158 48.538 50.3538 46.9507 49.6969 45.614Z" fill="#B1D239"/>
</svg>
