<svg width="37" height="36" viewBox="0 0 37 36" fill="none" xmlns="http://www.w3.org/2000/svg">
    <rect width="37" height="36" fill="#111212"/>
    <path d="M7.97564 30.0419L29.1246 20.2999C29.1447 20.2803 29.1648 20.2803 29.205 20.2608C29.2252 20.2412 29.2453 20.2412 29.2855 20.2217C29.3057 20.2021 29.3459 20.1825 29.366 20.163C29.3862 20.1434 29.4063 20.1238 29.4264 20.1238C29.4465 20.1043 29.4666 20.1043 29.4666 20.0847C29.4666 20.0847 29.4868 20.0847 29.4868 20.0652C29.527 20.0456 29.5471 20.0065 29.5673 19.9869C29.5874 19.9673 29.5874 19.9673 29.6075 19.9478C29.6276 19.9282 29.6477 19.9087 29.6477 19.8891C29.6679 19.8695 29.6679 19.85 29.688 19.8304C29.7081 19.7913 29.7282 19.7717 29.7484 19.7326C29.7484 19.713 29.7685 19.713 29.7685 19.6935C29.7886 19.6739 29.7886 19.6544 29.8087 19.6348C29.8087 19.6152 29.8288 19.6152 29.8288 19.6152C29.8288 19.6152 29.8288 19.6152 29.8288 19.5957C29.849 19.5761 29.849 19.537 29.8691 19.5174C29.8691 19.4979 29.8892 19.4783 29.8892 19.4587C29.9093 19.4196 29.9093 19.4 29.9093 19.3609C29.9093 19.3414 29.9093 19.3218 29.9295 19.3022C29.9295 19.2827 29.9295 19.2631 29.9496 19.2435C29.9496 19.224 29.9496 19.224 29.9496 19.2044C29.9496 19.1653 29.9496 19.1262 29.9496 19.1066C29.9496 19.087 29.9496 19.0675 29.9496 19.0479C29.9496 19.0284 29.9496 19.0284 29.9496 19.0088L29.9496 18.9892C29.9496 18.9501 29.9496 18.911 29.9496 18.8719C29.9496 18.8327 29.9496 18.7936 29.9295 18.7349C29.9295 18.7154 29.9295 18.6958 29.9295 18.6762C29.9295 18.6567 29.9093 18.6176 29.9093 18.598C29.8892 18.5393 29.8691 18.5002 29.849 18.4415C29.849 18.4219 29.8288 18.4024 29.8288 18.3828C29.8288 18.3632 29.8087 18.3437 29.7886 18.3241C29.7685 18.285 29.7282 18.2263 29.7081 18.1872C29.688 18.1481 29.6477 18.1089 29.6276 18.0894C29.5874 18.0502 29.5673 18.0111 29.527 17.9916C29.4868 17.9524 29.4666 17.9329 29.4264 17.8938C29.3862 17.8742 29.3459 17.8351 29.3057 17.8155C29.2654 17.7959 29.2252 17.7568 29.1648 17.7373C29.1447 17.7177 29.1246 17.7177 29.1044 17.6981L26.0055 16.2701L8.036 7.99526C7.37195 7.70183 6.56705 7.83877 6.14447 8.40607C5.94325 8.66038 5.86276 8.95381 5.86276 9.26681C5.86276 9.61893 6.00361 9.97105 6.24509 10.2449L12.302 16.6418C12.7447 17.0917 13.4892 17.0917 13.9118 16.6418C13.9118 16.6418 13.9118 16.6418 13.9319 16.6222C14.596 15.918 14.6564 14.8616 13.9923 14.1574L13.5899 13.727L22.5646 17.8546L25.0397 18.9892L13.5899 24.271L17.6546 19.9673C17.6748 19.9478 17.6949 19.9282 17.715 19.8891C17.7351 19.85 17.7754 19.8108 17.7955 19.7913C17.8156 19.7717 17.8156 19.7522 17.8357 19.7326C17.8559 19.713 17.8559 19.6739 17.876 19.6543C17.8961 19.6152 17.9162 19.5761 17.9364 19.537C17.9364 19.5174 17.9565 19.4979 17.9565 19.4783C17.9766 19.4392 17.9766 19.4196 17.9766 19.3805C17.9967 19.3414 17.9967 19.3022 17.9967 19.2827C17.9967 19.2631 17.9967 19.2435 18.0168 19.224C18.0168 19.1849 18.0168 19.1457 18.037 19.1262C18.037 19.087 18.037 19.0675 18.037 19.0284C18.037 19.0088 18.037 19.0088 18.037 18.9892L18.037 18.9697C18.037 18.9305 18.037 18.8914 18.037 18.8523C18.037 18.8132 18.037 18.774 18.0168 18.7349C18.0168 18.7154 18.0168 18.6958 17.9967 18.6762C17.9967 18.6371 17.9766 18.6176 17.9766 18.5784C17.9565 18.5393 17.9565 18.5002 17.9364 18.4611C17.9364 18.4415 17.9162 18.4219 17.9162 18.4024C17.8961 18.3632 17.876 18.3437 17.876 18.3241C17.8559 18.285 17.8357 18.2459 17.8156 18.2067C17.7955 18.1872 17.7955 18.1676 17.7754 18.1481C17.7553 18.1285 17.7351 18.0894 17.715 18.0698C17.6748 18.0111 17.6345 17.972 17.5741 17.9133C16.9705 17.3656 16.0448 17.4047 15.4814 17.9916L14.5557 18.9697L6.24509 27.7335C5.98349 28.0074 5.86276 28.3595 5.86276 28.7117C5.86276 29.0051 5.96337 29.3181 6.14447 29.5724C6.56705 30.1397 7.33171 30.3353 7.97564 30.0419Z"
          fill="#B1D239"/>
</svg>
