<svg width="45" height="45" viewBox="0 0 45 45" fill="none" xmlns="http://www.w3.org/2000/svg">
    <rect x="45" y="45" width="45" height="45" transform="rotate(-180 45 45)" fill="black"/>
    <path d="M35.2998 7.44802L9.57812 19.6255C9.55365 19.6499 9.52918 19.6499 9.48023 19.6744C9.45576 19.6989 9.43128 19.6989 9.38233 19.7233C9.35786 19.7478 9.30891 19.7722 9.28444 19.7967C9.25997 19.8211 9.23549 19.8456 9.21102 19.8456C9.18655 19.87 9.16207 19.87 9.16207 19.8945C9.16207 19.8945 9.1376 19.8945 9.1376 19.9189C9.08865 19.9434 9.06418 19.9923 9.03971 20.0167C9.01523 20.0412 9.01523 20.0412 8.99076 20.0656C8.96629 20.0901 8.94181 20.1145 8.94181 20.139C8.91734 20.1635 8.91734 20.1879 8.89286 20.2124C8.86839 20.2613 8.84392 20.2857 8.81944 20.3346C8.81944 20.3591 8.79497 20.3591 8.79497 20.3835C8.7705 20.408 8.7705 20.4324 8.74602 20.4569C8.74602 20.4813 8.72155 20.4813 8.72155 20.4813C8.72155 20.4813 8.72155 20.4813 8.72155 20.5058C8.69708 20.5302 8.69708 20.5792 8.6726 20.6036C8.6726 20.6281 8.64813 20.6525 8.64813 20.677C8.62366 20.7259 8.62366 20.7503 8.62366 20.7992C8.62366 20.8237 8.62366 20.8481 8.59918 20.8726C8.59918 20.897 8.59918 20.9215 8.57471 20.9459C8.57471 20.9704 8.57471 20.9704 8.57471 20.9948C8.57471 21.0438 8.57471 21.0927 8.57471 21.1171C8.57471 21.1416 8.57471 21.166 8.57471 21.1905C8.57471 21.2149 8.57471 21.2149 8.57471 21.2394L8.57471 21.2638C8.57471 21.3127 8.57471 21.3616 8.57471 21.4105C8.57471 21.4595 8.57471 21.5084 8.59918 21.5817C8.59918 21.6062 8.59918 21.6306 8.59918 21.6551C8.59918 21.6795 8.62366 21.7284 8.62366 21.7529C8.64813 21.8262 8.6726 21.8751 8.69708 21.9485C8.69708 21.973 8.72155 21.9974 8.72155 22.0219C8.72155 22.0463 8.74602 22.0708 8.7705 22.0952C8.79497 22.1441 8.84392 22.2175 8.86839 22.2664C8.89286 22.3153 8.94181 22.3642 8.96628 22.3887C9.01523 22.4376 9.03971 22.4865 9.08865 22.5109C9.1376 22.5598 9.16207 22.5843 9.21102 22.6332C9.25997 22.6576 9.30891 22.7065 9.35786 22.731C9.40681 22.7554 9.45575 22.8044 9.52918 22.8288C9.55365 22.8533 9.57812 22.8533 9.6026 22.8777L13.3715 24.6628L35.2264 35.0063C36.034 35.3731 37.0129 35.2019 37.5269 34.4928C37.7716 34.1749 37.8695 33.8081 37.8695 33.4169C37.8695 32.9767 37.6982 32.5366 37.4045 32.1942L30.038 24.1982C29.4996 23.6358 28.594 23.6358 28.0801 24.1982C28.0801 24.1982 28.0801 24.1982 28.0556 24.2226C27.248 25.1029 27.1746 26.4234 27.9822 27.3037L28.4717 27.8416L17.5565 22.6821L14.5462 21.2638L28.4717 14.6616L23.528 20.0412C23.5036 20.0656 23.4791 20.0901 23.4546 20.139C23.4301 20.1879 23.3812 20.2368 23.3567 20.2613C23.3322 20.2857 23.3322 20.3102 23.3078 20.3346C23.2833 20.3591 23.2833 20.408 23.2588 20.4324C23.2343 20.4813 23.2099 20.5302 23.1854 20.5792C23.1854 20.6036 23.1609 20.6281 23.1609 20.6525C23.1364 20.7014 23.1364 20.7259 23.1364 20.7748C23.112 20.8237 23.112 20.8726 23.112 20.897C23.112 20.9215 23.112 20.9459 23.0875 20.9704C23.0875 21.0193 23.0875 21.0682 23.063 21.0927C23.063 21.1416 23.063 21.166 23.063 21.2149C23.063 21.2394 23.063 21.2394 23.063 21.2638L23.063 21.2883C23.063 21.3372 23.063 21.3861 23.063 21.435C23.063 21.4839 23.063 21.5328 23.0875 21.5817C23.0875 21.6062 23.0875 21.6306 23.112 21.6551C23.112 21.704 23.1364 21.7284 23.1364 21.7773C23.1609 21.8262 23.1609 21.8752 23.1854 21.9241C23.1854 21.9485 23.2099 21.973 23.2099 21.9974C23.2343 22.0463 23.2588 22.0708 23.2588 22.0952C23.2833 22.1441 23.3078 22.193 23.3322 22.2419C23.3567 22.2664 23.3567 22.2908 23.3812 22.3153C23.4057 22.3398 23.4301 22.3887 23.4546 22.4131C23.5036 22.4865 23.5525 22.5354 23.6259 22.6087C24.3601 23.2934 25.4859 23.2445 26.1712 22.5109L27.2969 21.2883L37.4045 10.3334C37.7227 9.9911 37.8695 9.55096 37.8695 9.11081C37.8695 8.74401 37.7471 8.35277 37.5269 8.03488C37.0129 7.32575 36.0829 7.08122 35.2998 7.44802Z" fill="#B1D239"/>
</svg>
