<svg width="50" height="50" viewBox="0 0 50 50" fill="none" xmlns="http://www.w3.org/2000/svg">
    <path d="M12.4732 16.4194L33.0971 37.0434C33.4878 37.4341 34.0177 37.6536 34.5702 37.6536C35.1228 37.6536 35.6527 37.4341 36.0434 37.0434C36.4341 36.6527 36.6536 36.1228 36.6536 35.5702C36.6536 35.0177 36.4341 34.4878 36.0434 34.0971L15.4194 13.4731C15.0287 13.0824 14.4988 12.8629 13.9463 12.8629C13.3938 12.8629 12.8639 13.0824 12.4732 13.4731C12.0824 13.8638 11.863 14.3937 11.863 14.9463C11.863 15.4988 12.0824 16.0287 12.4732 16.4194Z" fill="#DBBF61"/>
    <path d="M33.0971 13.4732L12.4731 34.0972C12.0824 34.4879 11.8629 35.0178 11.8629 35.5703C11.8629 36.1228 12.0824 36.6528 12.4731 37.0435C12.8638 37.4342 13.3937 37.6536 13.9463 37.6536C14.4988 37.6536 15.0287 37.4342 15.4194 37.0435L36.0434 16.4195C36.4341 16.0288 36.6536 15.4989 36.6536 14.9464C36.6536 14.3938 36.4341 13.8639 36.0434 13.4732C35.6527 13.0825 35.1228 12.863 34.5702 12.863C34.0177 12.863 33.4878 13.0825 33.0971 13.4732Z" fill="#DBBF61"/>
</svg>