<?xml version="1.0" encoding="UTF-8"?><svg id="Calque_1" xmlns="http://www.w3.org/2000/svg" viewBox="0 0 170 100"><defs><style>.cls-1{fill:#bdcd12;}</style></defs><path class="cls-1" d="M119.9,33.03c-6.01-3.16-14.93.74-19.94,3.5,1.43-6.24,3.13-17.82-1.92-23.97-2.63-3.21-6.63-4.53-11.89-3.93-3.41.39-5.93,1.94-7.49,4.62-2.94,5.06-1.58,13.23.1,19.2-4.83-4.37-12.18-9.43-19.33-8.24-5.85.97-10.4,5.84-13.53,14.48-2.54,7-2.14,12.29,1.18,15.71,5.86,6.03,19.55,4.1,27.99,2.15-4.95,4.96-11.38,12.88-10.74,20.06.36,4.04,2.82,7.3,7.31,9.68,3.97,2.11,7.46,2.22,10.38.34,4.53-2.91,6.64-10.3,7.58-17.64,2.19,9.74,5.81,20.13,11.42,22.14.72.26,1.44.38,2.17.38,2.12,0,4.28-1.09,6.44-3.25,3.47-3.47,5.03-7.52,4.64-12.05-.56-6.55-5.17-12.96-9.79-17.84,5.26,1.88,11.21,2.95,15.51.61,3.82-2.07,5.75-6.33,5.75-12.67,0-6.77-1.97-11.24-5.85-13.28ZM80.16,83.72c-1.82,1.17-4.07,1.01-6.9-.49-3.44-1.82-5.24-4.1-5.49-6.94-.71-7.83,10.51-18.51,14.89-21.96.66-.52.85-1.43.45-2.17-.4-.74-1.27-1.09-2.06-.82-6.76,2.23-25.61,6.7-31.49.65-2.32-2.39-2.46-6.47-.41-12.13,2.67-7.38,6.32-11.5,10.85-12.25,8.08-1.35,17.29,7.92,20.45,11.43-.13.4-.09.85.23,1.29.3.41.53.86.62,1.34-.99-.53-1.85-1.48-2.67-2.14-.69-.56-1.39-1.06-2.19-1.45-.54-.26-2.3-.71-2.01-1.47.81-2.07-2.52-2.96-3.33-.92-.52,1.32-.05,2.81.91,3.8,1.03,1.07,2.53,1.37,3.74,2.17-.99-.25-1.97-.51-2.92-.77-2.16-.58-3.01,2.62-.92,3.33,2.22.75,4.45,1.5,6.67,2.25-.94.21-1.88.4-2.83.52-.84.11-1.85.71-1.72,1.72.31,2.63,2.76,2.5,4.72,1.78,1.81-.67,3.62-1.37,5.4-2.13.13.11.17.27.09.61-.21.87-.35,1.77-.52,2.65-.38,1.94-.77,3.88-1.15,5.83-.42,2.16,2.73,3.08,3.33.92.32-1.17.64-2.33.96-3.5.13,9.22-.87,25.1-6.7,28.85ZM91.46,50.37c-.03-.21-.06-.41-.09-.62.29.08.57.17.86.25-.03.03-.06.06-.08.1-.24.35-.32.76-.28,1.16-.14-.3-.27-.59-.41-.89ZM110.84,76.51c.3,3.52-.89,6.56-3.64,9.31-2.84,2.83-4.47,2.25-5.01,2.06-4.72-1.69-8.37-14.22-10.47-25.95.87.4,1.8.69,2.71.92,1.48.37,2.67-1.21,1.95-2.53-1.29-2.37-2.52-4.77-3.67-7.2-.14-.29-.26-.58-.39-.86.08.08.16.16.26.22.17.12,17.27,12.34,18.26,24.03ZM118.36,55.95c-5.44,2.95-15.89-1.72-21.54-4.94,3.33.61,6.71.94,10.09.96,2.24.02,2.2-3.32,0-3.45-3.27-.2-6.5-.6-9.71-1.25-1.59-.32-3.16-.71-4.73-1.13-.65-.18-1.32-.34-1.99-.37,0-.03-.01-.05-.02-.08-.08-.26-.17-.53-.28-.78.29-.26.55-.56.82-.85,2.01-1.85,3.39-4.34,3.79-7.07.26-1.8-1.65-2.69-2.76-1.75.21-1.55.42-3.09.63-4.64.13-.93-.22-1.84-1.2-2.12-.8-.23-2,.28-2.12,1.2-.32,2.37-.64,4.73-.97,7.1-.16,1.18-.32,2.37-.48,3.55-.14,1-.22,1.42-1,1.73-.25-.31-.54-.65-.61-.72-.56-.6-1.11-1.2-1.67-1.8.05-.31.04-.64-.09-.95-1.95-4.58-6.27-17.76-2.86-23.61.99-1.71,2.6-2.66,4.9-2.93,4.08-.46,6.96.41,8.83,2.69,4.81,5.86,1.76,20,.18,24.96-.22.7.02,1.47.62,1.91.59.44,1.4.45,2.01.04,3.7-2.54,14.52-8.5,20.12-5.56,2.66,1.4,4.01,4.84,4.01,10.23,0,4.97-1.33,8.21-3.94,9.63Z"/></svg>