<svg width="84" height="24" viewBox="0 0 84 24" fill="none" xmlns="http://www.w3.org/2000/svg">
    <rect width="24" height="24" fill="#000000"/>
    <path d="M5.17335 20.0278L18.8916 13.5331C18.9046 13.5201 18.9177 13.5201 18.9438 13.507C18.9568 13.494 18.9699 13.494 18.996 13.4809C19.009 13.4679 19.0352 13.4549 19.0482 13.4418C19.0613 13.4288 19.0743 13.4157 19.0874 13.4157C19.1004 13.4027 19.1135 13.4027 19.1135 13.3896C19.1135 13.3896 19.1265 13.3896 19.1265 13.3766C19.1526 13.3636 19.1657 13.3375 19.1787 13.3244C19.1918 13.3114 19.1918 13.3114 19.2048 13.2984C19.2179 13.2853 19.2309 13.2723 19.2309 13.2592C19.244 13.2462 19.244 13.2332 19.257 13.2201C19.2701 13.194 19.2831 13.181 19.2962 13.1549C19.2962 13.1419 19.3093 13.1419 19.3093 13.1288C19.3223 13.1158 19.3223 13.1027 19.3354 13.0897C19.3354 13.0767 19.3484 13.0767 19.3484 13.0767C19.3484 13.0767 19.3484 13.0767 19.3484 13.0636C19.3615 13.0506 19.3615 13.0245 19.3745 13.0114C19.3745 12.9984 19.3876 12.9854 19.3876 12.9723C19.4006 12.9462 19.4006 12.9332 19.4006 12.9071C19.4006 12.8941 19.4006 12.881 19.4137 12.868C19.4137 12.8549 19.4137 12.8419 19.4267 12.8289C19.4267 12.8158 19.4267 12.8158 19.4267 12.8028C19.4267 12.7767 19.4267 12.7506 19.4267 12.7376C19.4267 12.7245 19.4267 12.7115 19.4267 12.6985C19.4267 12.6854 19.4267 12.6854 19.4267 12.6724L19.4267 12.6593C19.4267 12.6332 19.4267 12.6072 19.4267 12.5811C19.4267 12.555 19.4267 12.5289 19.4137 12.4898C19.4137 12.4767 19.4137 12.4637 19.4137 12.4507C19.4137 12.4376 19.4006 12.4115 19.4006 12.3985C19.3876 12.3594 19.3745 12.3333 19.3615 12.2942C19.3615 12.2811 19.3484 12.2681 19.3484 12.255C19.3484 12.242 19.3354 12.229 19.3223 12.2159C19.3093 12.1898 19.2831 12.1507 19.2701 12.1246C19.257 12.0985 19.2309 12.0725 19.2179 12.0594C19.1918 12.0333 19.1787 12.0073 19.1526 11.9942C19.1265 11.9681 19.1135 11.9551 19.0874 11.929C19.0613 11.916 19.0352 11.8899 19.009 11.8768C18.9829 11.8638 18.9568 11.8377 18.9177 11.8247C18.9046 11.8116 18.8916 11.8116 18.8785 11.7986L16.8684 10.8466L5.21251 5.33001C4.78178 5.13439 4.25968 5.22568 3.98557 5.60389C3.85505 5.77342 3.80284 5.96905 3.80284 6.17771C3.80284 6.41246 3.89421 6.6472 4.05084 6.82978L7.97965 11.0943C8.26681 11.3943 8.74975 11.3943 9.02385 11.0943C9.02385 11.0943 9.02385 11.0943 9.03691 11.0813C9.46764 10.6118 9.5068 9.90757 9.07606 9.43808L8.81501 9.15117L14.6364 11.9029L16.2419 12.6593L8.81501 16.1805L11.4516 13.3114C11.4647 13.2984 11.4777 13.2853 11.4908 13.2592C11.5038 13.2332 11.5299 13.2071 11.543 13.194C11.556 13.181 11.556 13.1679 11.5691 13.1549C11.5822 13.1419 11.5822 13.1158 11.5952 13.1027C11.6083 13.0767 11.6213 13.0506 11.6344 13.0245C11.6344 13.0114 11.6474 12.9984 11.6474 12.9854C11.6605 12.9593 11.6605 12.9462 11.6605 12.9202C11.6735 12.8941 11.6735 12.868 11.6735 12.8549C11.6735 12.8419 11.6735 12.8289 11.6866 12.8158C11.6866 12.7897 11.6866 12.7637 11.6996 12.7506C11.6996 12.7245 11.6996 12.7115 11.6996 12.6854C11.6996 12.6724 11.6996 12.6724 11.6996 12.6593L11.6996 12.6463C11.6996 12.6202 11.6996 12.5941 11.6996 12.568C11.6996 12.542 11.6996 12.5159 11.6866 12.4898C11.6866 12.4767 11.6866 12.4637 11.6735 12.4507C11.6735 12.4246 11.6605 12.4115 11.6605 12.3855C11.6474 12.3594 11.6474 12.3333 11.6344 12.3072C11.6344 12.2942 11.6213 12.2811 11.6213 12.2681C11.6083 12.242 11.5952 12.229 11.5952 12.2159C11.5822 12.1898 11.5691 12.1637 11.556 12.1377C11.543 12.1246 11.543 12.1116 11.5299 12.0985C11.5169 12.0855 11.5038 12.0594 11.4908 12.0464C11.4647 12.0073 11.4386 11.9812 11.3994 11.942C11.0078 11.5769 10.4074 11.603 10.042 11.9942L9.44153 12.6463L4.05084 18.4889C3.88115 18.6714 3.80284 18.9062 3.80284 19.1409C3.80284 19.3366 3.8681 19.5452 3.98557 19.7148C4.25968 20.093 4.75567 20.2234 5.17335 20.0278Z"
          fill="#B1D239"/>
    <path d="M69.3706 20.0278L83.0888 13.5331C83.1019 13.5201 83.1149 13.5201 83.141 13.507C83.1541 13.494 83.1672 13.494 83.1933 13.4809C83.2063 13.4679 83.2324 13.4549 83.2455 13.4418C83.2585 13.4288 83.2716 13.4157 83.2846 13.4157C83.2977 13.4027 83.3107 13.4027 83.3107 13.3896C83.3107 13.3896 83.3238 13.3896 83.3238 13.3766C83.3499 13.3636 83.3629 13.3375 83.376 13.3244C83.389 13.3114 83.389 13.3114 83.4021 13.2984C83.4152 13.2853 83.4282 13.2723 83.4282 13.2592C83.4413 13.2462 83.4413 13.2332 83.4543 13.2201C83.4674 13.194 83.4804 13.181 83.4935 13.1549C83.4935 13.1419 83.5065 13.1419 83.5065 13.1288C83.5196 13.1158 83.5196 13.1027 83.5326 13.0897C83.5326 13.0767 83.5457 13.0767 83.5457 13.0767C83.5457 13.0767 83.5457 13.0767 83.5457 13.0636C83.5587 13.0506 83.5587 13.0245 83.5718 13.0114C83.5718 12.9984 83.5848 12.9854 83.5848 12.9723C83.5979 12.9462 83.5979 12.9332 83.5979 12.9071C83.5979 12.8941 83.5979 12.881 83.6109 12.868C83.6109 12.8549 83.6109 12.8419 83.624 12.8289C83.624 12.8158 83.624 12.8158 83.624 12.8028C83.624 12.7767 83.624 12.7506 83.624 12.7376C83.624 12.7245 83.624 12.7115 83.624 12.6985C83.624 12.6854 83.624 12.6854 83.624 12.6724L83.624 12.6593C83.624 12.6332 83.624 12.6072 83.624 12.5811C83.624 12.555 83.624 12.5289 83.6109 12.4898C83.6109 12.4767 83.6109 12.4637 83.6109 12.4507C83.6109 12.4376 83.5979 12.4115 83.5979 12.3985C83.5848 12.3594 83.5718 12.3333 83.5587 12.2942C83.5587 12.2811 83.5457 12.2681 83.5457 12.255C83.5457 12.242 83.5326 12.229 83.5196 12.2159C83.5065 12.1898 83.4804 12.1507 83.4674 12.1246C83.4543 12.0985 83.4282 12.0725 83.4152 12.0594C83.389 12.0333 83.376 12.0073 83.3499 11.9942C83.3238 11.9681 83.3107 11.9551 83.2846 11.929C83.2585 11.916 83.2324 11.8899 83.2063 11.8768C83.1802 11.8638 83.1541 11.8377 83.1149 11.8247C83.1019 11.8116 83.0888 11.8116 83.0758 11.7986L81.0657 10.8466L69.4098 5.33001C68.979 5.13439 68.4569 5.22568 68.1828 5.60389C68.0523 5.77342 68.0001 5.96905 68.0001 6.17771C68.0001 6.41246 68.0915 6.6472 68.2481 6.82978L72.1769 11.0943C72.4641 11.3943 72.947 11.3943 73.2211 11.0943C73.2211 11.0943 73.2211 11.0943 73.2342 11.0813C73.6649 10.6118 73.7041 9.90757 73.2733 9.43808L73.0123 9.15117L78.8337 11.9029L80.4392 12.6593L73.0123 16.1805L75.6489 13.3114C75.6619 13.2984 75.675 13.2853 75.688 13.2592C75.7011 13.2332 75.7272 13.2071 75.7403 13.194C75.7533 13.181 75.7533 13.1679 75.7664 13.1549C75.7794 13.1419 75.7794 13.1158 75.7925 13.1027C75.8055 13.0767 75.8186 13.0506 75.8316 13.0245C75.8316 13.0114 75.8447 12.9984 75.8447 12.9854C75.8577 12.9593 75.8577 12.9462 75.8577 12.9202C75.8708 12.8941 75.8708 12.868 75.8708 12.8549C75.8708 12.8419 75.8708 12.8289 75.8838 12.8158C75.8838 12.7897 75.8838 12.7637 75.8969 12.7506C75.8969 12.7245 75.8969 12.7115 75.8969 12.6854C75.8969 12.6724 75.8969 12.6724 75.8969 12.6593L75.8969 12.6463C75.8969 12.6202 75.8969 12.5941 75.8969 12.568C75.8969 12.542 75.8969 12.5159 75.8838 12.4898C75.8838 12.4767 75.8838 12.4637 75.8708 12.4507C75.8708 12.4246 75.8577 12.4115 75.8577 12.3855C75.8447 12.3594 75.8447 12.3333 75.8316 12.3072C75.8316 12.2942 75.8186 12.2811 75.8186 12.2681C75.8055 12.242 75.7925 12.229 75.7925 12.2159C75.7794 12.1898 75.7664 12.1637 75.7533 12.1377C75.7403 12.1246 75.7403 12.1116 75.7272 12.0985C75.7142 12.0855 75.7011 12.0594 75.688 12.0464C75.6619 12.0073 75.6358 11.9812 75.5967 11.942C75.2051 11.5769 74.6047 11.603 74.2392 11.9942L73.6388 12.6463L68.2481 18.4889C68.0784 18.6714 68.0001 18.9062 68.0001 19.1409C68.0001 19.3366 68.0654 19.5452 68.1828 19.7148C68.4569 20.093 68.9529 20.2234 69.3706 20.0278Z"
          fill="#222425"/>
    <path d="M47.3706 20.0278L61.0888 13.5331C61.1019 13.5201 61.1149 13.5201 61.141 13.507C61.1541 13.494 61.1671 13.494 61.1932 13.4809C61.2063 13.4679 61.2324 13.4549 61.2454 13.4418C61.2585 13.4288 61.2715 13.4157 61.2846 13.4157C61.2976 13.4027 61.3107 13.4027 61.3107 13.3896C61.3107 13.3896 61.3238 13.3896 61.3238 13.3766C61.3499 13.3636 61.3629 13.3375 61.376 13.3244C61.389 13.3114 61.389 13.3114 61.4021 13.2984C61.4151 13.2853 61.4282 13.2723 61.4282 13.2592C61.4412 13.2462 61.4412 13.2332 61.4543 13.2201C61.4673 13.194 61.4804 13.181 61.4934 13.1549C61.4934 13.1419 61.5065 13.1419 61.5065 13.1288C61.5195 13.1158 61.5195 13.1027 61.5326 13.0897C61.5326 13.0767 61.5456 13.0767 61.5456 13.0767C61.5456 13.0767 61.5456 13.0767 61.5456 13.0636C61.5587 13.0506 61.5587 13.0245 61.5718 13.0114C61.5718 12.9984 61.5848 12.9854 61.5848 12.9723C61.5979 12.9462 61.5979 12.9332 61.5979 12.9071C61.5979 12.8941 61.5979 12.881 61.6109 12.868C61.6109 12.8549 61.6109 12.8419 61.624 12.8289C61.624 12.8158 61.624 12.8158 61.624 12.8028C61.624 12.7767 61.624 12.7506 61.624 12.7376C61.624 12.7245 61.624 12.7115 61.624 12.6985C61.624 12.6854 61.624 12.6854 61.624 12.6724L61.624 12.6593C61.624 12.6332 61.624 12.6072 61.624 12.5811C61.624 12.555 61.624 12.5289 61.6109 12.4898C61.6109 12.4767 61.6109 12.4637 61.6109 12.4507C61.6109 12.4376 61.5979 12.4115 61.5979 12.3985C61.5848 12.3594 61.5718 12.3333 61.5587 12.2942C61.5587 12.2811 61.5456 12.2681 61.5456 12.255C61.5456 12.242 61.5326 12.229 61.5195 12.2159C61.5065 12.1898 61.4804 12.1507 61.4673 12.1246C61.4543 12.0985 61.4282 12.0725 61.4151 12.0594C61.389 12.0333 61.376 12.0073 61.3499 11.9942C61.3238 11.9681 61.3107 11.9551 61.2846 11.929C61.2585 11.916 61.2324 11.8899 61.2063 11.8768C61.1802 11.8638 61.1541 11.8377 61.1149 11.8247C61.1019 11.8116 61.0888 11.8116 61.0758 11.7986L59.0657 10.8466L47.4097 5.33001C46.979 5.13439 46.4569 5.22568 46.1828 5.60389C46.0523 5.77342 46.0001 5.96905 46.0001 6.17771C46.0001 6.41246 46.0914 6.6472 46.2481 6.82978L50.1769 11.0943C50.464 11.3943 50.947 11.3943 51.2211 11.0943C51.2211 11.0943 51.2211 11.0943 51.2341 11.0813C51.6649 10.6118 51.704 9.90757 51.2733 9.43808L51.0122 9.15117L56.8337 11.9029L58.4391 12.6593L51.0122 16.1805L53.6489 13.3114C53.6619 13.2984 53.675 13.2853 53.688 13.2592C53.7011 13.2332 53.7272 13.2071 53.7402 13.194C53.7533 13.181 53.7533 13.1679 53.7663 13.1549C53.7794 13.1419 53.7794 13.1158 53.7924 13.1027C53.8055 13.0767 53.8185 13.0506 53.8316 13.0245C53.8316 13.0114 53.8446 12.9984 53.8446 12.9854C53.8577 12.9593 53.8577 12.9462 53.8577 12.9202C53.8708 12.8941 53.8708 12.868 53.8708 12.8549C53.8708 12.8419 53.8708 12.8289 53.8838 12.8158C53.8838 12.7897 53.8838 12.7637 53.8969 12.7506C53.8969 12.7245 53.8969 12.7115 53.8969 12.6854C53.8969 12.6724 53.8969 12.6724 53.8969 12.6593L53.8969 12.6463C53.8969 12.6202 53.8969 12.5941 53.8969 12.568C53.8969 12.542 53.8969 12.5159 53.8838 12.4898C53.8838 12.4767 53.8838 12.4637 53.8708 12.4507C53.8708 12.4246 53.8577 12.4115 53.8577 12.3855C53.8446 12.3594 53.8446 12.3333 53.8316 12.3072C53.8316 12.2942 53.8185 12.2811 53.8185 12.2681C53.8055 12.242 53.7924 12.229 53.7924 12.2159C53.7794 12.1898 53.7663 12.1637 53.7533 12.1377C53.7402 12.1246 53.7402 12.1116 53.7272 12.0985C53.7141 12.0855 53.7011 12.0594 53.688 12.0464C53.6619 12.0073 53.6358 11.9812 53.5967 11.942C53.2051 11.5769 52.6047 11.603 52.2392 11.9942L51.6388 12.6463L46.2481 18.4889C46.0784 18.6714 46.0001 18.9062 46.0001 19.1409C46.0001 19.3366 46.0653 19.5452 46.1828 19.7148C46.4569 20.093 46.9529 20.2234 47.3706 20.0278Z"
          fill="#222425"/>
    <path d="M25.3706 20.0278L39.0888 13.5331C39.1018 13.5201 39.1149 13.5201 39.141 13.507C39.154 13.494 39.1671 13.494 39.1932 13.4809C39.2063 13.4679 39.2324 13.4549 39.2454 13.4418C39.2585 13.4288 39.2715 13.4157 39.2846 13.4157C39.2976 13.4027 39.3107 13.4027 39.3107 13.3896C39.3107 13.3896 39.3237 13.3896 39.3237 13.3766C39.3498 13.3636 39.3629 13.3375 39.3759 13.3244C39.389 13.3114 39.389 13.3114 39.402 13.2984C39.4151 13.2853 39.4281 13.2723 39.4281 13.2592C39.4412 13.2462 39.4412 13.2332 39.4542 13.2201C39.4673 13.194 39.4804 13.181 39.4934 13.1549C39.4934 13.1419 39.5065 13.1419 39.5065 13.1288C39.5195 13.1158 39.5195 13.1027 39.5326 13.0897C39.5326 13.0767 39.5456 13.0767 39.5456 13.0767C39.5456 13.0767 39.5456 13.0767 39.5456 13.0636C39.5587 13.0506 39.5587 13.0245 39.5717 13.0114C39.5717 12.9984 39.5848 12.9854 39.5848 12.9723C39.5978 12.9462 39.5978 12.9332 39.5978 12.9071C39.5978 12.8941 39.5978 12.881 39.6109 12.868C39.6109 12.8549 39.6109 12.8419 39.6239 12.8289C39.6239 12.8158 39.6239 12.8158 39.6239 12.8028C39.6239 12.7767 39.6239 12.7506 39.6239 12.7376C39.6239 12.7245 39.6239 12.7115 39.6239 12.6985C39.6239 12.6854 39.6239 12.6854 39.6239 12.6724L39.6239 12.6593C39.6239 12.6332 39.6239 12.6072 39.6239 12.5811C39.6239 12.555 39.6239 12.5289 39.6109 12.4898C39.6109 12.4767 39.6109 12.4637 39.6109 12.4507C39.6109 12.4376 39.5978 12.4115 39.5978 12.3985C39.5848 12.3594 39.5717 12.3333 39.5587 12.2942C39.5587 12.2811 39.5456 12.2681 39.5456 12.255C39.5456 12.242 39.5326 12.229 39.5195 12.2159C39.5065 12.1898 39.4804 12.1507 39.4673 12.1246C39.4542 12.0985 39.4281 12.0725 39.4151 12.0594C39.389 12.0333 39.3759 12.0073 39.3498 11.9942C39.3237 11.9681 39.3107 11.9551 39.2846 11.929C39.2585 11.916 39.2324 11.8899 39.2063 11.8768C39.1801 11.8638 39.154 11.8377 39.1149 11.8247C39.1018 11.8116 39.0888 11.8116 39.0757 11.7986L37.0656 10.8466L25.4097 5.33001C24.979 5.13439 24.4569 5.22568 24.1828 5.60389C24.0523 5.77342 24 5.96905 24 6.17771C24 6.41246 24.0914 6.6472 24.248 6.82978L28.1769 11.0943C28.464 11.3943 28.947 11.3943 29.2211 11.0943C29.2211 11.0943 29.2211 11.0943 29.2341 11.0813C29.6648 10.6118 29.704 9.90757 29.2733 9.43808L29.0122 9.15117L34.8336 11.9029L36.4391 12.6593L29.0122 16.1805L31.6488 13.3114C31.6619 13.2984 31.6749 13.2853 31.688 13.2592C31.701 13.2332 31.7271 13.2071 31.7402 13.194C31.7533 13.181 31.7533 13.1679 31.7663 13.1549C31.7794 13.1419 31.7794 13.1158 31.7924 13.1027C31.8055 13.0767 31.8185 13.0506 31.8316 13.0245C31.8316 13.0114 31.8446 12.9984 31.8446 12.9854C31.8577 12.9593 31.8577 12.9462 31.8577 12.9202C31.8707 12.8941 31.8707 12.868 31.8707 12.8549C31.8707 12.8419 31.8707 12.8289 31.8838 12.8158C31.8838 12.7897 31.8838 12.7637 31.8968 12.7506C31.8968 12.7245 31.8968 12.7115 31.8968 12.6854C31.8968 12.6724 31.8968 12.6724 31.8968 12.6593L31.8968 12.6463C31.8968 12.6202 31.8968 12.5941 31.8968 12.568C31.8968 12.542 31.8968 12.5159 31.8838 12.4898C31.8838 12.4767 31.8838 12.4637 31.8707 12.4507C31.8707 12.4246 31.8577 12.4115 31.8577 12.3855C31.8446 12.3594 31.8446 12.3333 31.8316 12.3072C31.8316 12.2942 31.8185 12.2811 31.8185 12.2681C31.8055 12.242 31.7924 12.229 31.7924 12.2159C31.7794 12.1898 31.7663 12.1637 31.7533 12.1377C31.7402 12.1246 31.7402 12.1116 31.7271 12.0985C31.7141 12.0855 31.701 12.0594 31.688 12.0464C31.6619 12.0073 31.6358 11.9812 31.5966 11.942C31.205 11.5769 30.6046 11.603 30.2392 11.9942L29.6387 12.6463L24.248 18.4889C24.0784 18.6714 24 18.9062 24 19.1409C24 19.3366 24.0653 19.5452 24.1828 19.7148C24.4569 20.093 24.9529 20.2234 25.3706 20.0278Z"
          fill="#222425"/>
</svg>
