<svg width="75" height="75" viewBox="0 0 75 75" fill="none" xmlns="http://www.w3.org/2000/svg">
    <g clip-path="url(#clip0_179_163)">
        <path d="M37.5001 14.625C38.5313 14.625 39.3751 13.7812 39.3751 12.75V9C39.3751 7.96875 38.5313 7.125 37.5001 7.125C36.4688 7.125 35.6251 7.96875 35.6251 9V12.75C35.6251 13.7812 36.4688 14.625 37.5001 14.625Z" fill="#B1D239"/>
        <path d="M24.7017 16.5355C25.0065 17.2041 25.6387 17.625 26.316 17.625C26.5983 17.625 26.8805 17.5507 27.1289 17.4145C28.0207 16.9193 28.3819 15.7308 27.9304 14.7528L26.2935 11.2121C25.8419 10.234 24.7581 9.85024 23.8663 10.3331C22.9745 10.8283 22.6245 12.0168 23.0648 12.9948L24.7017 16.5355Z" fill="#B1D239"/>
        <path d="M48.6806 17.625C49.3576 17.625 49.9895 17.2044 50.2942 16.5363L51.9305 12.9982C52.3818 12.0208 52.0207 10.8332 51.1293 10.3383C50.2378 9.8435 49.1545 10.2394 48.7031 11.2167L47.0669 14.7549C46.9428 15.027 46.8751 15.3363 46.8751 15.6456C46.8751 16.7343 47.6763 17.625 48.6806 17.625Z" fill="#B1D239"/>
        <path d="M37.5001 60.375C36.4688 60.375 35.6251 61.2188 35.6251 62.25V66C35.6251 67.0312 36.4688 67.875 37.5001 67.875C38.5313 67.875 39.3751 67.0312 39.3751 66V62.25C39.3751 61.2188 38.5313 60.375 37.5001 60.375Z" fill="#B1D239"/>
        <path d="M27.1293 57.5883C26.2378 57.0935 25.1545 57.4894 24.7031 58.4667L23.0669 62.0049C22.9428 62.277 22.8751 62.5863 22.8751 62.8956C22.8751 63.9843 23.6763 64.875 24.6806 64.875C25.3576 64.875 25.9895 64.4544 26.2942 63.7863L27.9305 60.2482C28.3818 59.2708 28.0207 58.0832 27.1293 57.5883Z" fill="#B1D239"/>
        <path d="M50.2935 58.4621C49.8419 57.484 48.7581 57.1002 47.8663 57.5831C46.9745 58.0659 46.6245 59.2668 47.0648 60.2448L48.7017 63.7855C49.0065 64.4541 49.6387 64.875 50.316 64.875C50.5983 64.875 50.8805 64.8007 51.1289 64.6645C52.0207 64.1693 52.3819 62.9808 51.9304 62.0028L50.2935 58.4621Z" fill="#B1D239"/>
        <path d="M2.34375 14.0625C3.63281 14.0625 4.6875 13.0078 4.6875 11.7188V4.6875H11.7188C13.0078 4.6875 14.0625 3.63281 14.0625 2.34375C14.0625 1.05469 13.0078 0 11.7188 0H2.34375C1.05469 0 0 1.05469 0 2.34375V11.7188C0 13.0078 1.05469 14.0625 2.34375 14.0625Z" fill="white"/>
        <path d="M63.2812 4.6875H70.3125V11.7188C70.3125 13.0078 71.3672 14.0625 72.6562 14.0625C73.9453 14.0625 75 13.0078 75 11.7188V2.34375C75 1.05469 73.9453 0 72.6562 0H63.2812C61.9922 0 60.9375 1.05469 60.9375 2.34375C60.9375 3.63281 61.9922 4.6875 63.2812 4.6875Z" fill="white"/>
        <path d="M11.7188 70.3125H4.6875V63.2812C4.6875 61.9922 3.63281 60.9375 2.34375 60.9375C1.05469 60.9375 0 61.9922 0 63.2812V72.6562C0 73.9453 1.05469 75 2.34375 75H11.7188C13.0078 75 14.0625 73.9453 14.0625 72.6562C14.0625 71.3672 13.0078 70.3125 11.7188 70.3125Z" fill="white"/>
        <path d="M72.6562 60.9375C71.3672 60.9375 70.3125 61.9922 70.3125 63.2812V70.3125H63.2812C61.9922 70.3125 60.9375 71.3672 60.9375 72.6562C60.9375 73.9453 61.9922 75 63.2812 75H72.6562C73.9453 75 75 73.9453 75 72.6562V63.2812C75 61.9922 73.9453 60.9375 72.6562 60.9375Z" fill="white"/>
        <path d="M22.2209 37.488C22.2209 29.1398 28.8583 22.3412 37.1251 22.125C30.883 22.2571 25.0843 25.2961 20.4837 28.7314C19.1418 31.362 18.3751 34.3409 18.3751 37.5C18.3751 40.6591 19.1299 43.638 20.4837 46.2686C25.0843 49.7039 30.883 52.7429 37.1251 52.875C28.8583 52.6468 22.2209 45.8602 22.2209 37.512V37.488Z" fill="#B1D239"/>
        <path d="M52.7936 37.512C52.7936 45.8602 46.1605 52.6588 37.899 52.875C44.1251 52.7429 49.9201 49.7159 54.5058 46.2806C55.8588 43.65 56.6251 40.6711 56.6251 37.5C56.6251 34.3409 55.8708 31.362 54.5178 28.7314C49.9201 25.2961 44.1131 22.2571 37.8751 22.125C46.1485 22.3532 52.7817 29.1398 52.7936 37.5V37.512Z" fill="#B1D239"/>
        <path d="M67.5012 36.3581C66.9672 35.6287 54.2808 18.7696 38.0697 18.375C37.8798 18.375 37.6899 18.375 37.5001 18.375C37.3102 18.375 37.1203 18.375 36.9304 18.375C20.7075 18.7696 8.03293 35.6407 7.49889 36.3581C7.00045 37.0397 7.00045 37.9723 7.49889 38.6419C8.03293 39.3712 20.7193 56.2304 36.9304 56.625C37.1203 56.625 37.3102 56.625 37.5001 56.625C37.6899 56.625 37.8561 56.625 38.0341 56.625C54.2689 56.2543 66.9553 39.3712 67.5012 38.6419C67.9997 37.9603 67.9997 37.0277 67.5012 36.3581ZM54.3876 46.2464C49.8423 49.6661 44.0984 52.6792 37.9273 52.8108C37.7849 52.8108 37.6425 52.8108 37.5001 52.8108C37.3577 52.8108 37.2152 52.8108 37.0728 52.8108C30.8898 52.6792 25.1459 49.6542 20.5888 46.2345C16.2215 42.9583 12.958 39.3115 11.4508 37.506C12.958 35.7005 16.2215 32.0536 20.5888 28.7775C25.1459 25.3578 30.8898 22.3327 37.0728 22.2012C37.2152 22.2012 37.3577 22.2012 37.5001 22.2012C37.6306 22.2012 37.773 22.2012 37.9036 22.2012C44.0866 22.3327 49.8423 25.3578 54.3995 28.7775C58.7667 32.0536 62.0303 35.7005 63.5375 37.506C62.0303 39.3115 58.7548 42.9583 54.3876 46.2464Z" fill="#B1D239"/>
        <path d="M37.5001 49.125C43.918 49.125 49.113 43.918 49.1251 37.5C49.1251 35.7078 48.7133 33.9277 47.902 32.3172C47.7688 32.0508 47.5751 31.8207 47.345 31.6512C46.4973 30.9973 45.2743 31.1668 44.6325 32.0145C44.0876 32.7289 43.2278 33.1406 42.3317 33.1406C40.7333 33.1406 39.4376 31.8328 39.4376 30.2344C39.4376 29.7379 39.5587 29.2535 39.8008 28.8176C39.934 28.5875 40.0309 28.3211 40.0551 28.0547C40.1762 26.9891 39.4133 26.0324 38.3477 25.9113C38.0692 25.8871 37.7786 25.875 37.5001 25.875C31.0821 25.875 25.8751 31.082 25.8751 37.5C25.8751 43.918 31.0821 49.125 37.5001 49.125ZM35.5626 29.9922C35.5626 30.077 35.5626 30.1496 35.5626 30.2344C35.5626 31.2152 35.7684 32.1961 36.1922 33.0922C37.7665 36.4828 41.7868 37.9602 45.1774 36.398C45.7465 40.3094 43.2762 44.027 39.4376 45.0078C35.2962 46.0734 31.07 43.5789 30.0044 39.4375C28.9387 35.2961 31.4333 31.0699 35.5747 30.0043L35.5626 29.9922Z" fill="white"/>
    </g>
    <defs>
        <clipPath id="clip0_179_163">
            <rect width="75" height="75" fill="white"/>
        </clipPath>
    </defs>
</svg>
