<svg width="50" height="50" viewBox="0 0 50 50" fill="none" xmlns="http://www.w3.org/2000/svg">
    <path d="M11.4583 17.7082H40.625C41.1775 17.7082 41.7074 17.4887 42.0981 17.098C42.4888 16.7073 42.7083 16.1774 42.7083 15.6248C42.7083 15.0723 42.4888 14.5424 42.0981 14.1517C41.7074 13.761 41.1775 13.5415 40.625 13.5415H11.4583C10.9058 13.5415 10.3759 13.761 9.98519 14.1517C9.59449 14.5424 9.375 15.0723 9.375 15.6248C9.375 16.1774 9.59449 16.7073 9.98519 17.098C10.3759 17.4887 10.9058 17.7082 11.4583 17.7082Z"
          fill="#DBBF61"/>
    <path d="M40.625 23.9585H11.4583C10.9058 23.9585 10.3759 24.178 9.98519 24.5687C9.59449 24.9594 9.375 25.4893 9.375 26.0418C9.375 26.5944 9.59449 27.1243 9.98519 27.515C10.3759 27.9057 10.9058 28.1252 11.4583 28.1252H40.625C41.1775 28.1252 41.7074 27.9057 42.0981 27.515C42.4888 27.1243 42.7083 26.5944 42.7083 26.0418C42.7083 25.4893 42.4888 24.9594 42.0981 24.5687C41.7074 24.178 41.1775 23.9585 40.625 23.9585Z"
          fill="#DBBF61"/>
    <path d="M40.625 34.375H11.4583C10.9058 34.375 10.3759 34.5945 9.98519 34.9852C9.59449 35.3759 9.375 35.9058 9.375 36.4583C9.375 37.0109 9.59449 37.5408 9.98519 37.9315C10.3759 38.3222 10.9058 38.5417 11.4583 38.5417H40.625C41.1775 38.5417 41.7074 38.3222 42.0981 37.9315C42.4888 37.5408 42.7083 37.0109 42.7083 36.4583C42.7083 35.9058 42.4888 35.3759 42.0981 34.9852C41.7074 34.5945 41.1775 34.375 40.625 34.375Z"
          fill="#DBBF61"/>
</svg>
