<svg width="90" height="90" viewBox="0 0 90 90" fill="none" xmlns="http://www.w3.org/2000/svg">
    <path d="M89.4543 82.1053L50.1934 3.08271C50.1145 3.00752 50.1145 2.93233 50.0357 2.78196C49.9569 2.70677 49.9569 2.63158 49.878 2.4812C49.7992 2.40601 49.7203 2.25564 49.6415 2.18045C49.5627 2.10526 49.4838 2.03007 49.4838 1.95489C49.405 1.8797 49.405 1.80451 49.3262 1.80451C49.3262 1.80451 49.3262 1.72932 49.2473 1.72932C49.1685 1.57895 49.0108 1.50376 48.932 1.42857C48.8531 1.35338 48.8531 1.35338 48.7743 1.2782C48.6955 1.20301 48.6166 1.12782 48.5378 1.12782C48.4589 1.05263 48.3801 1.05263 48.3013 0.977443C48.1436 0.902255 48.0648 0.827068 47.9071 0.75188C47.8283 0.75188 47.8282 0.67669 47.7494 0.67669C47.6706 0.601502 47.5917 0.601504 47.5129 0.526316C47.4341 0.526316 47.4341 0.451127 47.4341 0.451127C47.4341 0.451127 47.4341 0.451127 47.3552 0.451127C47.2764 0.375939 47.1187 0.375938 47.0399 0.30075C46.961 0.30075 46.8822 0.225563 46.8034 0.225563C46.6457 0.150375 46.5669 0.150377 46.4092 0.150377C46.3303 0.150377 46.2515 0.150375 46.1727 0.0751868C46.0938 0.0751868 46.015 0.075188 45.9362 0C45.8573 0 45.8573 0 45.7785 0C45.6208 0 45.4631 0 45.3843 0C45.3055 0 45.2266 0 45.1478 0C45.0689 0 45.0689 0 44.9901 0L44.9113 0C44.7536 0 44.5959 0 44.4382 0C44.2806 0 44.1229 -1.1484e-06 43.8864 0.0751868C43.8075 0.0751868 43.7287 0.0751868 43.6499 0.0751868C43.571 0.0751868 43.4134 0.150377 43.3345 0.150377C43.098 0.225564 42.9403 0.300752 42.7038 0.37594C42.625 0.37594 42.5462 0.451127 42.4673 0.451127C42.3885 0.451127 42.3096 0.526315 42.2308 0.601503C42.0731 0.676691 41.8366 0.827068 41.6789 0.902256C41.5213 0.977444 41.3636 1.12782 41.2848 1.20301C41.1271 1.35338 40.9694 1.42857 40.8906 1.57895C40.7329 1.72932 40.6541 1.80451 40.4964 1.95489C40.4175 2.10526 40.2599 2.25564 40.181 2.40602C40.1022 2.55639 39.9445 2.70677 39.8657 2.93233C39.7868 3.00752 39.7868 3.08271 39.708 3.1579L33.9529 14.7368L0.604717 81.8797C-0.577842 84.3609 -0.0259793 87.3684 2.2603 88.9474C3.28519 89.6992 4.46774 90 5.72914 90C7.14821 90 8.56728 89.4737 9.67101 88.5714L35.4508 65.9398C37.2641 64.2857 37.2641 61.5038 35.4508 59.9248C35.4508 59.9248 35.4508 59.9248 35.372 59.8496C32.5338 57.3684 28.2766 57.1429 25.4385 59.6241L23.704 61.1278L40.3387 27.594L44.9113 18.3459L66.1973 61.1278L48.8531 45.9398C48.7743 45.8647 48.6955 45.7895 48.5378 45.7143C48.3801 45.6391 48.2224 45.4887 48.1436 45.4135C48.0648 45.3383 47.9859 45.3383 47.9071 45.2632C47.8283 45.188 47.6706 45.188 47.5917 45.1128C47.4341 45.0376 47.2764 44.9624 47.1187 44.8872C47.0399 44.8872 46.961 44.812 46.8822 44.812C46.7245 44.7368 46.6457 44.7368 46.488 44.7368C46.3303 44.6617 46.1727 44.6617 46.0938 44.6617C46.015 44.6617 45.9362 44.6617 45.8573 44.5865C45.6996 44.5865 45.542 44.5865 45.4631 44.5113C45.3055 44.5113 45.2266 44.5113 45.0689 44.5113C44.9901 44.5113 44.9901 44.5113 44.9113 44.5113H44.8324C44.6748 44.5113 44.5171 44.5113 44.3594 44.5113C44.2017 44.5113 44.0441 44.5113 43.8864 44.5865C43.8075 44.5865 43.7287 44.5865 43.6499 44.6617C43.4922 44.6617 43.4134 44.7368 43.2557 44.7368C43.098 44.812 42.9403 44.812 42.7827 44.8872C42.7038 44.8872 42.625 44.9624 42.5462 44.9624C42.3885 45.0376 42.3096 45.1128 42.2308 45.1128C42.0731 45.188 41.9155 45.2632 41.7578 45.3383C41.6789 45.4135 41.6001 45.4135 41.5213 45.4887C41.4424 45.5639 41.2848 45.6391 41.2059 45.7143C40.9694 45.8647 40.8117 46.015 40.5752 46.2406C38.3678 48.4962 38.5255 51.9549 40.8906 54.0601L44.8324 57.5188L80.1515 88.5714C81.2553 89.5489 82.6743 90 84.0934 90C85.276 90 86.5374 89.6241 87.5622 88.9474C89.8485 87.3684 90.6369 84.5113 89.4543 82.1053Z" fill="white"/>
</svg>
