<svg width="75" height="75" viewBox="0 0 75 75" fill="none" xmlns="http://www.w3.org/2000/svg">
    <g clip-path="url(#clip0_179_204)">
        <path d="M2.34375 14.0625C3.63281 14.0625 4.6875 13.0078 4.6875 11.7188V4.6875H11.7188C13.0078 4.6875 14.0625 3.63281 14.0625 2.34375C14.0625 1.05469 13.0078 0 11.7188 0H2.34375C1.05469 0 0 1.05469 0 2.34375V11.7188C0 13.0078 1.05469 14.0625 2.34375 14.0625Z" fill="white"/>
        <path d="M63.2812 4.6875H70.3125V11.7188C70.3125 13.0078 71.3672 14.0625 72.6562 14.0625C73.9453 14.0625 75 13.0078 75 11.7188V2.34375C75 1.05469 73.9453 0 72.6562 0H63.2812C61.9922 0 60.9375 1.05469 60.9375 2.34375C60.9375 3.63281 61.9922 4.6875 63.2812 4.6875Z" fill="white"/>
        <path d="M11.7188 70.3125H4.6875V63.2812C4.6875 61.9922 3.63281 60.9375 2.34375 60.9375C1.05469 60.9375 0 61.9922 0 63.2812V72.6562C0 73.9453 1.05469 75 2.34375 75H11.7188C13.0078 75 14.0625 73.9453 14.0625 72.6562C14.0625 71.3672 13.0078 70.3125 11.7188 70.3125Z" fill="white"/>
        <path d="M72.6562 60.9375C71.3672 60.9375 70.3125 61.9922 70.3125 63.2812V70.3125H63.2812C61.9922 70.3125 60.9375 71.3672 60.9375 72.6562C60.9375 73.9453 61.9922 75 63.2812 75H72.6562C73.9453 75 75 73.9453 75 72.6562V63.2812C75 61.9922 73.9453 60.9375 72.6562 60.9375Z" fill="white"/>
        <path d="M53.1738 13.5939C49.0576 9.43372 43.5645 7.11927 37.7197 7.06068C31.8018 7.00208 26.2207 9.27259 22.002 13.462C17.7832 17.6368 15.4541 23.2033 15.4541 29.1212C15.4541 32.256 16.0986 35.2736 17.3584 38.1154C18.5742 40.8546 20.3174 43.2716 22.5293 45.3224C25.7959 48.34 27.6709 52.5734 27.6709 56.924V61.3331C27.6709 64.9953 30.6445 67.9689 34.3066 67.9689H40.7227C44.3848 67.9689 47.3584 64.9953 47.3584 61.3331V56.924C47.3584 52.5294 49.1895 48.3546 52.3682 45.4542C54.624 43.4035 56.3965 40.9718 57.6416 38.2033C58.9307 35.3468 59.5898 32.2853 59.5898 29.1359C59.5898 23.2765 57.3193 17.7687 53.2031 13.6085L53.1738 13.5939ZM43.7695 61.3038C43.7695 62.9884 42.3926 64.3654 40.708 64.3654H34.292C32.6074 64.3654 31.2305 62.9884 31.2305 61.3038V60.7033H43.7549V61.3038H43.7695ZM43.7695 56.9093V57.1437H31.2451V56.9093C31.2451 55.7814 31.1426 54.6681 30.9521 53.5695H44.0771C43.8867 54.6681 43.7842 55.7814 43.7842 56.8947L43.7695 56.9093ZM49.9365 42.8029C47.7539 44.7951 46.084 47.2706 45.0439 50.0099H29.9414C28.8721 47.2706 27.1875 44.7511 24.9609 42.7003C21.1816 39.214 19.0283 34.2628 19.0283 29.1212C19.0283 24.1701 20.9766 19.5118 24.5215 15.9962C28.0225 12.5245 32.6221 10.6349 37.5146 10.6349C42.4072 10.6349 37.6318 10.6349 37.6904 10.6349C47.7832 10.7374 56.001 19.0285 56.001 29.1212C56.001 39.214 53.7891 39.3019 49.9512 42.8029H49.9365Z" fill="#B1D239"/>
        <path d="M14.9707 7.58789C14.2676 6.88477 13.1396 6.88477 12.4512 7.58789C11.748 8.29102 11.748 9.41895 12.4512 10.1074L13.6377 11.2939C13.9893 11.6455 14.4434 11.8213 14.8975 11.8213C15.3516 11.8213 15.8057 11.6455 16.1572 11.2939C16.8604 10.5908 16.8604 9.46289 16.1572 8.77441L14.9707 7.58789Z" fill="#B1D239"/>
        <path d="M60.0293 7.58789L58.8428 8.77441C58.1396 9.47754 58.1396 10.6055 58.8428 11.2939C59.1943 11.6455 59.6484 11.8213 60.1025 11.8213C60.5566 11.8213 61.0107 11.6455 61.3623 11.2939L62.5488 10.1074C63.252 9.4043 63.252 8.27637 62.5488 7.58789C61.8457 6.88477 60.7178 6.88477 60.0293 7.58789Z" fill="#B1D239"/>
        <path d="M61.3623 43.2861C60.6592 42.583 59.5312 42.583 58.8428 43.2861C58.1396 43.9893 58.1396 45.1172 58.8428 45.8057L60.0293 46.9922C60.3809 47.3437 60.835 47.5195 61.2891 47.5195C61.7432 47.5195 62.1973 47.3437 62.5488 46.9922C63.252 46.2891 63.252 45.1611 62.5488 44.4727L61.3623 43.2861Z" fill="#B1D239"/>
        <path d="M13.6377 43.286L12.4512 44.4725C11.748 45.1757 11.748 46.3036 12.4512 46.9921C12.8027 47.3436 13.2568 47.5194 13.7109 47.5194C14.165 47.5194 14.6191 47.3436 14.9707 46.9921L16.1572 45.8056C16.8604 45.1024 16.8604 43.9745 16.1572 43.286C15.4541 42.5975 14.3262 42.5829 13.6377 43.286Z" fill="#B1D239"/>
        <path d="M66.1816 25.5029H64.8633C63.8818 25.5029 63.0762 26.3086 63.0762 27.29C63.0762 28.2715 63.8818 29.0771 64.8633 29.0771H66.1816C67.1631 29.0771 67.9687 28.2715 67.9687 27.29C67.9687 26.3086 67.1631 25.5029 66.1816 25.5029Z" fill="#B1D239"/>
        <path d="M10.1367 25.5029H8.81836C7.83691 25.5029 7.03125 26.3086 7.03125 27.29C7.03125 28.2715 7.83691 29.0771 8.81836 29.0771H10.1367C11.1182 29.0771 11.9238 28.2715 11.9238 27.29C11.9238 26.3086 11.1182 25.5029 10.1367 25.5029Z" fill="#B1D239"/>
        <path d="M51.2695 29.5312C51.2695 27.8906 50.625 26.3379 49.5264 25.1953C49.7754 24.6094 49.9072 23.9648 49.9072 23.3057C49.9072 20.625 47.7246 18.457 45.0586 18.457C42.3926 18.457 44.8975 18.457 44.8242 18.457C44.5752 18.0176 44.2676 17.6221 43.8867 17.2705C42.9932 16.4355 41.8213 15.9814 40.5908 15.9814C39.3604 15.9814 39.7119 16.04 39.3018 16.1572C38.6426 16.333 38.042 16.6553 37.5146 17.0801C37.002 16.6553 36.3867 16.333 35.7275 16.1572C35.3174 16.04 34.8926 15.9814 34.4385 15.9814C32.6514 15.9814 31.0547 16.9775 30.2051 18.457C30.1318 18.457 30.0439 18.457 29.9561 18.457C27.2754 18.457 25.1074 20.6396 25.1074 23.3057C25.1074 25.9717 25.2393 24.5947 25.4883 25.1953C24.375 26.3379 23.7451 27.876 23.7451 29.5312C23.7451 31.1865 24.3896 32.7246 25.4883 33.8672C25.2393 34.4531 25.1074 35.0977 25.1074 35.7568C25.1074 38.4375 27.29 40.6055 29.9561 40.6055C32.6221 40.6055 30.1172 40.6055 30.2051 40.6055C31.04 42.085 32.6367 43.0811 34.4385 43.0811C36.2402 43.0811 35.3174 43.0225 35.7275 42.9053V50.0098H39.3018V42.9053C39.7119 43.0225 40.1514 43.0811 40.5908 43.0811C41.8213 43.0811 42.9932 42.6269 43.8867 41.792C44.2676 41.4404 44.5752 41.0449 44.8242 40.6055C44.8975 40.6055 44.9854 40.6055 45.0586 40.6055C47.7393 40.6055 49.9072 38.4228 49.9072 35.7568C49.9072 33.0908 49.7754 34.4678 49.5264 33.8672C50.6396 32.7246 51.2695 31.1865 51.2695 29.5312ZM35.7129 38.2178C35.7129 38.9209 35.1416 39.5068 34.4238 39.5068C33.7061 39.5068 33.1934 38.9941 33.1494 38.335C33.1055 37.7344 32.7539 37.207 32.2412 36.9141C31.9775 36.7676 31.6699 36.6943 31.377 36.6943C31.084 36.6943 30.8057 36.7676 30.5566 36.8994C30.3662 36.9873 30.1758 37.0459 29.9707 37.0459C29.2676 37.0459 28.6816 36.4746 28.6816 35.7568C28.6816 35.0391 28.6816 35.6689 28.6816 35.6396C29.1064 35.7275 29.5459 35.7715 29.9707 35.7715C30.9521 35.7715 31.7578 34.9658 31.7578 33.9844C31.7578 33.0029 30.9521 32.1973 29.9707 32.1973C28.9893 32.1973 29.1211 32.0947 28.7402 31.8896C27.8613 31.4209 27.3193 30.5273 27.3193 29.5312C27.3193 28.5352 27.8613 27.627 28.7402 27.1729C29.1211 26.9678 29.5312 26.8652 29.9707 26.8652C30.9521 26.8652 31.7578 26.0596 31.7578 25.0781C31.7578 24.0967 30.9521 23.291 29.9707 23.291C28.9893 23.291 29.1064 23.335 28.6816 23.4229C28.6816 23.3789 28.6816 23.335 28.6816 23.3057C28.6816 22.6025 29.2529 22.0166 29.9707 22.0166C30.6885 22.0166 30.3809 22.0605 30.5566 22.1631C31.084 22.4414 31.7139 22.4268 32.2412 22.1338C32.7686 21.8408 33.1055 21.3135 33.1494 20.7129C33.208 20.0537 33.7646 19.541 34.4238 19.541C35.083 19.541 35.7129 20.1123 35.7129 20.8301V38.2178ZM46.2744 31.8896C45.8936 32.0947 45.4834 32.1826 45.0439 32.1826C44.0625 32.1826 43.2568 32.9883 43.2568 33.9697C43.2568 34.9512 44.0625 35.7568 45.0439 35.7568C46.0254 35.7568 45.9082 35.7129 46.333 35.625C46.333 35.6689 46.333 35.7129 46.333 35.7422C46.333 36.4453 45.7617 37.0312 45.0439 37.0312C44.3262 37.0312 44.6338 36.9873 44.458 36.8848C43.9307 36.6064 43.3008 36.6211 42.7734 36.9141C42.2461 37.207 41.9092 37.7344 41.8652 38.335C41.8066 38.9941 41.25 39.5068 40.5908 39.5068C39.9316 39.5068 39.3018 38.9355 39.3018 38.2178C39.3018 37.5 39.3018 38.1152 39.3018 38.0566V20.9912C39.3018 20.9326 39.3018 20.8887 39.3018 20.8301C39.3018 20.127 39.873 19.541 40.5908 19.541C41.3086 19.541 41.8213 20.0537 41.8652 20.7129C41.9092 21.3135 42.2607 21.8408 42.7734 22.1338C43.3008 22.4268 43.9307 22.4268 44.458 22.1631C44.6484 22.0752 44.8389 22.0166 45.0439 22.0166C45.7471 22.0166 46.333 22.5879 46.333 23.3057C46.333 24.0234 46.333 23.3936 46.333 23.4229C45.9082 23.335 45.4688 23.291 45.0439 23.291C44.0625 23.291 43.2568 24.0967 43.2568 25.0781C43.2568 26.0596 44.0625 26.8652 45.0439 26.8652C46.0254 26.8652 45.8936 26.9678 46.2744 27.1729C47.1533 27.6416 47.6953 28.5352 47.6953 29.5312C47.6953 30.5273 47.1533 31.4355 46.2744 31.8896Z" fill="white"/>
    </g>
    <defs>
        <clipPath id="clip0_179_204">
            <rect width="75" height="75" fill="white"/>
        </clipPath>
    </defs>
</svg>
