<svg width="40" height="30" viewBox="0 0 40 30" fill="none" xmlns="http://www.w3.org/2000/svg">
    <path d="M0 30V22.1053C0 19.7076 0.433483 17.1637 1.30045 14.4737C2.19731 11.7544 3.48281 9.13743 5.15695 6.62281C6.86099 4.07895 8.90882 1.87134 11.3004 0L17.0404 4.5614C15.1569 7.19298 13.5127 9.94152 12.1076 12.807C10.7324 15.6433 10.0448 18.6842 10.0448 21.9298V30H0ZM22.9596 30V22.1053C22.9596 19.7076 23.3931 17.1637 24.2601 14.4737C25.1569 11.7544 26.4425 9.13743 28.1166 6.62281C29.8206 4.07895 31.8685 1.87134 34.2601 0L40 4.5614C38.1166 7.19298 36.4723 9.94152 35.0673 12.807C33.6921 15.6433 33.0045 18.6842 33.0045 21.9298V30H22.9596Z" fill="#111212"/>
</svg>
