<?xml version="1.0" encoding="UTF-8"?><svg id="Calque_1" xmlns="http://www.w3.org/2000/svg" viewBox="0 0 170 100"><defs><style>.cls-1{fill:#bdcd12;}</style></defs><path class="cls-1" d="M77.13,41.07c-5.29-10.96-19.46-13.97-28.86-6.15-2.65,2.2-4.45,5.13-6.89,7.52-3.13,3.07-7.07,4.49-11.35,5.13-5.35.8-7.85-3.26-9.96-7.59-1.2-2.46-2.22-4.6-.9-7.17.24-1.66,1.23-2.5,2.97-2.53,1.53-.7,2.97-.62,4.34.23-4.27,1.01-2.46,7.58,1.81,6.57,3.53-.83,6.09-4.12,5.23-7.88-1-4.39-5.56-6.29-9.64-6.08-11.21.58-14.56,10.1-10.16,19.39,2.13,4.5,5.57,10.49,10.78,11.82,4.69,1.2,11.01-.52,15.28-2.49,5.74-2.65,8.28-8.02,13.03-11.78,6.48-5.12,14.96-2.74,18.43,4.45,1.91,3.95,7.78.5,5.88-3.44h0Z"/><path class="cls-1" d="M99.76,49.33c2.63-1.75,5.76-4.13,9.06-4.12,4.22.02,6.38,4.29,8.57,7.26,3.98,5.4,7.78,11.01,12.03,16.2,5.69,6.95,16.65,12.34,23.71,3.91,5.17-6.17,6.75-19.76,2.87-26.88-2.02-3.7-6.02-6.55-10.36-5.86-4,.63-6.54,4.14-6.1,8.09.48,4.31,7.3,4.36,6.81,0,1.66-1.62,2.92-1.22,3.76,1.21l.69,2.1c.43,1.8.31,3.76.19,5.59-.22,3.29-.61,7.93-2.59,10.73-7.02,9.93-18.45-9.46-21.85-14.07s-7.17-12.12-13.1-14.33-12.13.95-17.13,4.28c-3.63,2.42-.22,8.33,3.44,5.88h0Z"/></svg>