<svg width="908" height="90" viewBox="0 0 908 90" fill="none" xmlns="http://www.w3.org/2000/svg">
    <path d="M63.92 76.24C62.24 76.24 60.72 75.2 60.16 73.6L44.8 29.28L29.68 73.6C29.12 75.2 27.6 76.24 25.92 76.24C24.24 76.24 22.72 75.2 22.16 73.6L3.44 18.24C2.72 16.16 3.76 13.92 5.84 13.12C7.92 12.4 10.24 13.44 10.96 15.52L25.92 59.84L41.04 15.52C41.6 13.92 43.12 12.88 44.8 12.88C46.48 12.88 48 13.92 48.56 15.52L63.92 59.84L78.64 15.52C79.36 13.44 81.68 12.4 83.76 13.12C85.84 13.92 86.88 16.16 86.16 18.24L67.68 73.6C67.12 75.2 65.6 76.24 63.92 76.24ZM135.049 68C137.289 68 139.049 69.76 139.049 72C139.049 74.24 137.289 76 135.049 76H96.8094C94.6494 76 92.8094 74.24 92.8094 72V17.12C92.8094 14.88 94.6494 13.12 96.8094 13.12H134.249C136.489 13.12 138.249 14.88 138.249 17.12C138.249 19.36 136.489 21.12 134.249 21.12H100.809V40.4H130.409C132.649 40.4 134.409 42.24 134.409 44.4C134.409 46.64 132.649 48.4 130.409 48.4H100.809V68H135.049ZM195.866 60C195.066 69.92 187.626 76 176.986 76H149.466C148.426 76 147.386 75.6 146.666 74.88C145.946 74.08 145.466 73.12 145.466 72V17.12C145.466 14.88 147.306 13.12 149.466 13.12H173.146C183.626 13.12 190.906 17.84 192.266 27.52C193.306 35.04 190.106 39.68 186.346 42.4C191.626 44.24 196.586 50.96 195.866 60ZM187.866 59.28C188.666 51.44 184.346 47.6 176.506 47.6H176.266L170.026 47.68H169.946C167.786 47.68 166.026 45.84 165.946 43.68C165.946 41.44 167.786 39.68 169.946 39.68L176.026 39.6C181.946 38.96 185.066 34.96 184.346 28.48C183.706 23.28 179.946 21.12 173.146 21.12H153.466V67.92H176.986C183.466 67.92 187.306 65.2 187.866 59.28ZM352.877 77.44C348.397 77.44 344.077 76.56 340.077 74.8C336.157 73.2 332.637 70.8 329.597 67.76C326.557 64.8 324.237 61.28 322.557 57.44C320.797 53.36 319.997 49.12 319.997 44.8C319.997 40.4 320.877 36.16 322.557 32.16C324.237 28.32 326.637 24.8 329.677 21.84C332.717 18.8 336.317 16.48 340.237 14.8C344.317 13.12 348.637 12.24 353.037 12.24C359.837 12.24 366.237 14.32 371.677 18.16C373.517 19.44 373.917 21.92 372.637 23.76C371.357 25.52 368.877 26 367.037 24.72C362.957 21.76 358.157 20.24 353.037 20.24C349.677 20.24 346.397 20.88 343.277 22.24C340.317 23.44 337.597 25.28 335.357 27.52C333.037 29.84 331.197 32.4 329.917 35.36C328.637 38.4 327.997 41.52 327.997 44.8C327.997 48.08 328.637 51.28 329.917 54.24C331.197 57.2 332.957 59.84 335.277 62.08C339.997 66.8 346.237 69.44 352.877 69.44C356.397 69.44 359.837 68.72 362.957 67.28C365.517 66.08 367.917 64.48 369.917 62.48V45.84C369.917 43.6 371.677 41.84 373.917 41.84C376.157 41.84 377.917 43.6 377.917 45.84V64.16C377.917 65.12 377.517 66.08 376.877 66.8C373.837 70.08 370.317 72.72 366.237 74.56C362.077 76.48 357.517 77.44 352.877 77.44ZM427.174 75.92C425.334 75.92 423.654 74.56 423.254 72.64C422.294 67.76 420.774 63.84 418.694 60.88C417.174 58.64 415.254 57.04 413.094 56C411.414 55.12 409.734 54.8 408.454 54.72C407.414 54.72 406.294 54.8 405.174 54.8C403.174 54.8 401.414 53.2 401.254 51.12C401.014 49.12 402.454 47.2 404.454 46.88C404.774 46.8 406.294 46.48 408.534 46.64C412.694 46.4 415.974 45.52 418.374 44.16C421.894 42.16 423.574 39.04 423.574 34.32C423.574 31.12 422.934 28.48 421.814 26.4C420.934 24.88 419.654 23.68 418.134 22.72C415.254 21.12 412.294 21.04 412.054 21.04H392.294V71.92C392.294 74.08 390.534 75.92 388.294 75.92C386.134 75.92 384.294 74.08 384.294 71.92V17.04C384.294 14.8 386.134 13.04 388.294 13.04H412.054C412.374 13.04 414.294 13.04 416.774 13.68C420.294 14.56 423.414 16.24 425.814 18.64C427.574 20.4 429.014 22.56 429.974 25.04C431.014 27.76 431.574 30.88 431.574 34.32C431.574 41.84 428.374 47.68 422.374 51.12C421.974 51.36 421.574 51.52 421.094 51.76C422.534 52.96 423.814 54.32 425.014 55.92C427.894 59.84 429.894 64.96 431.094 71.12C431.494 73.28 430.134 75.44 427.974 75.84C427.654 75.84 427.414 75.92 427.174 75.92ZM493.646 75.68C491.806 76.48 489.406 75.84 488.286 73.68L482.766 61.36C477.566 60.08 472.366 60 467.326 61.12C463.246 61.92 459.246 63.44 455.326 65.84C451.326 68.32 447.166 71.6 444.126 74.56C442.606 76.08 440.606 76.56 438.926 75.52C437.166 74.4 437.406 72.16 438.206 70.32L463.486 15.44C464.206 14 465.566 13.12 467.166 13.12C468.686 13.12 470.206 14.08 470.766 15.44L495.646 70.32C496.526 72.4 495.646 74.72 493.646 75.68ZM467.086 26.72L451.726 59.44C455.966 57.04 461.566 54.88 466.046 54C470.366 53.04 474.766 52.88 479.166 53.28L467.086 26.72ZM505.95 76C503.79 76 501.95 74.24 501.95 72V17.12C501.95 14.88 503.79 13.12 505.95 13.12H529.71C530.03 13.12 531.95 13.12 534.43 13.76C537.95 14.64 541.07 16.4 543.47 18.72C545.23 20.48 546.67 22.64 547.63 25.12C548.67 27.84 549.23 30.96 549.23 34.4C549.23 42 546.03 47.76 540.03 51.2C535.71 53.68 529.95 54.88 522.83 54.88C520.67 54.88 518.83 53.12 518.83 50.88C518.83 48.64 520.67 46.88 522.83 46.88C528.51 46.88 532.99 46 536.03 44.24C539.55 42.24 541.23 39.12 541.23 34.4C541.23 31.2 540.59 28.56 539.47 26.56C538.59 24.96 537.31 23.76 535.79 22.88C532.91 21.2 529.95 21.12 529.71 21.12H509.95V72C509.95 74.24 508.19 76 505.95 76ZM602.102 13.12C604.342 13.12 606.102 14.88 606.102 17.12V72C606.102 74.16 604.342 76 602.102 76C599.942 76 598.102 74.16 598.102 72V47.84H563.622V72C563.622 74.16 561.862 76 559.622 76C557.382 76 555.622 74.16 555.622 72V17.12C555.622 14.88 557.382 13.12 559.622 13.12C561.862 13.12 563.622 14.88 563.622 17.12V39.84H598.102V17.12C598.102 14.88 599.942 13.12 602.102 13.12ZM616.897 76C614.737 76 612.897 74.24 612.897 72V17.12C612.897 14.96 614.737 13.12 616.897 13.12C619.137 13.12 620.897 14.96 620.897 17.12V72C620.897 74.24 619.137 76 616.897 76ZM651.251 77.28C649.171 77.28 647.011 77.12 644.931 76.8C641.091 76.16 637.491 75.04 634.691 73.44C631.171 71.6 628.851 69.12 627.891 66.4C626.931 63.6 629.891 60.08 632.771 61.52C633.491 61.92 633.971 62.64 634.451 63.28C637.331 66.8 641.811 68.32 646.131 69.04C649.811 69.6 653.571 69.52 656.611 68.88C660.371 68.08 663.971 66.16 665.411 62.48C666.131 60.64 666.291 58.56 665.651 56.72C663.811 51.28 657.011 49.28 651.251 48.08C647.411 47.28 643.571 46.32 639.971 44.8C636.131 43.28 632.291 40.96 630.131 37.28C627.491 32.88 627.971 25.92 629.571 22.64C634.451 12.88 643.891 11.76 649.411 11.76C653.571 11.76 657.891 12.48 661.331 13.84C665.731 15.52 669.171 18.4 670.211 21.44C670.691 22.72 670.371 24.16 669.491 25.2C668.531 26.4 666.771 26.96 665.331 26.16C664.931 25.92 664.611 25.52 664.211 25.2C662.611 23.44 660.211 21.76 657.251 20.64C654.771 19.68 652.051 19.6 649.411 19.6C643.171 19.6 636.051 22 636.051 29.28C636.051 36 641.891 38 655.251 41.28C672.371 45.44 674.611 54.88 673.011 62.88C670.611 74.8 656.531 77.28 651.251 77.28ZM737.919 76C735.759 76 733.839 74.16 733.839 72V31.6L714.159 64.64C713.439 65.68 712.239 66.24 710.959 66.24C709.679 66.24 708.479 65.68 707.679 64.64L687.919 31.6V72C687.919 74.16 686.159 76 683.919 76C681.759 76 679.919 74.16 679.919 72V16.96C679.919 15.2 681.039 13.68 682.719 13.12C684.319 12.56 686.159 13.2 687.199 14.56L710.959 54.64L734.639 14.56C735.759 13.2 737.519 12.56 739.199 13.12C740.799 13.68 741.919 15.2 741.919 16.96V72C741.919 74.16 740.159 76 737.919 76ZM790.596 68C792.836 68 794.596 69.76 794.596 72C794.596 74.24 792.836 76 790.596 76H752.356C750.196 76 748.356 74.24 748.356 72V17.12C748.356 14.88 750.196 13.12 752.356 13.12H789.796C792.036 13.12 793.796 14.88 793.796 17.12C793.796 19.36 792.036 21.12 789.796 21.12H756.356V40.4H785.956C788.196 40.4 789.956 42.24 789.956 44.4C789.956 46.64 788.196 48.4 785.956 48.4H756.356V68H790.596Z" fill="#B1D239"/>
    <path d="M251.63 76.72C250.27 76.72 248.03 76.64 245.55 76.16C241.71 75.36 238.59 73.84 236.27 71.6C233.47 68.72 231.95 64.96 231.95 60.32C231.95 56.96 232.75 53.92 234.35 51.12C235.63 48.8 237.47 46.72 239.87 44.8C241.47 43.52 243.23 42.4 244.91 41.52C242.99 39.2 241.47 36.48 240.59 33.6C239.95 31.6 239.63 29.68 239.63 27.76C239.63 23.84 241.47 19.84 244.59 16.88C246.11 15.44 247.87 14.24 249.79 13.44C251.79 12.56 253.95 12.16 256.11 12.16C260.59 12.16 264.75 13.36 267.87 15.52C271.71 18.32 273.79 22.4 273.79 27.2C273.79 31.36 271.55 35.28 267.07 38.8C264.11 41.2 260.67 42.96 258.43 44.08L270.59 56.64C271.07 55.92 271.55 55.2 272.03 54.4L276.43 46.8C277.55 44.96 280.03 44.24 281.87 45.36C283.79 46.48 284.43 48.96 283.39 50.88L278.99 58.4C278.91 58.48 278.91 58.48 278.91 58.48C278.11 59.92 277.15 61.2 276.27 62.48L282.75 69.2C284.35 70.8 284.27 73.28 282.67 74.88C281.07 76.4 278.59 76.32 276.99 74.8L270.91 68.48C268.99 70.16 266.99 71.68 264.91 72.96C260.75 75.36 256.27 76.72 252.43 76.72C252.43 76.72 252.43 76.72 252.35 76.72C252.35 76.72 252.19 76.72 252.11 76.72C251.95 76.72 251.79 76.72 251.63 76.72ZM250.67 47.6C248.75 48.48 246.67 49.6 244.83 51.04C241.55 53.68 239.95 56.72 239.95 60.32C239.95 62.72 240.59 64.56 241.95 65.92C243.07 67.04 244.83 67.84 247.15 68.32C249.23 68.72 251.15 68.72 252.11 68.72C252.19 68.72 252.35 68.72 252.43 68.72C253.39 68.72 256.59 68.48 260.83 66C262.43 65.12 263.87 64 265.31 62.72L250.67 47.6ZM256.11 20.16C253.95 20.16 251.79 21.04 250.11 22.64C248.59 24.08 247.63 26 247.63 27.76C247.63 28.8 247.87 30 248.27 31.2C248.91 33.44 250.19 35.6 251.95 37.36L252.67 38.08C252.75 38 252.83 38 252.91 37.92C253.31 37.76 253.87 37.44 254.43 37.2C256.51 36.16 259.55 34.56 262.11 32.56C263.79 31.2 265.79 29.2 265.79 27.2C265.79 24.96 264.99 23.36 263.23 22.08C261.47 20.88 258.91 20.16 256.11 20.16Z" fill="white"/>
    <path d="M907.454 82.1053L868.193 3.08271C868.115 3.00752 868.115 2.93233 868.036 2.78196C867.957 2.70677 867.957 2.63158 867.878 2.4812C867.799 2.40601 867.72 2.25564 867.642 2.18045C867.563 2.10526 867.484 2.03007 867.484 1.95489C867.405 1.8797 867.405 1.80451 867.326 1.80451C867.326 1.80451 867.326 1.72932 867.247 1.72932C867.168 1.57895 867.011 1.50376 866.932 1.42857C866.853 1.35338 866.853 1.35338 866.774 1.2782C866.695 1.20301 866.617 1.12782 866.538 1.12782C866.459 1.05263 866.38 1.05263 866.301 0.977443C866.144 0.902255 866.065 0.827068 865.907 0.75188C865.828 0.75188 865.828 0.67669 865.749 0.67669C865.671 0.601502 865.592 0.601504 865.513 0.526316C865.434 0.526316 865.434 0.451127 865.434 0.451127C865.434 0.451127 865.434 0.451127 865.355 0.451127C865.276 0.375939 865.119 0.375938 865.04 0.30075C864.961 0.30075 864.882 0.225563 864.803 0.225563C864.646 0.150375 864.567 0.150377 864.409 0.150377C864.33 0.150377 864.252 0.150375 864.173 0.0751868C864.094 0.0751868 864.015 0.075188 863.936 0C863.857 0 863.857 0 863.778 0C863.621 0 863.463 0 863.384 0C863.305 0 863.227 0 863.148 0C863.069 0 863.069 0 862.99 0L862.911 0C862.754 0 862.596 0 862.438 0C862.281 0 862.123 -1.1484e-06 861.886 0.0751868C861.808 0.0751868 861.729 0.0751868 861.65 0.0751868C861.571 0.0751868 861.413 0.150377 861.335 0.150377C861.098 0.225564 860.94 0.300752 860.704 0.37594C860.625 0.37594 860.546 0.451127 860.467 0.451127C860.388 0.451127 860.31 0.526315 860.231 0.601503C860.073 0.676691 859.837 0.827068 859.679 0.902256C859.521 0.977444 859.364 1.12782 859.285 1.20301C859.127 1.35338 858.969 1.42857 858.891 1.57895C858.733 1.72932 858.654 1.80451 858.496 1.95489C858.418 2.10526 858.26 2.25564 858.181 2.40602C858.102 2.55639 857.945 2.70677 857.866 2.93233C857.787 3.00752 857.787 3.08271 857.708 3.1579L851.953 14.7368L818.605 81.8797C817.422 84.3609 817.974 87.3684 820.26 88.9474C821.285 89.6992 822.468 90 823.729 90C825.148 90 826.567 89.4737 827.671 88.5714L853.451 65.9398C855.264 64.2857 855.264 61.5038 853.451 59.9248C853.451 59.9248 853.451 59.9248 853.372 59.8496C850.534 57.3684 846.277 57.1429 843.438 59.6241L841.704 61.1278L858.339 27.594L862.911 18.3459L884.197 61.1278L866.853 45.9399C866.774 45.8647 866.695 45.7895 866.538 45.7143C866.38 45.6391 866.222 45.4887 866.144 45.4135C866.065 45.3383 865.986 45.3383 865.907 45.2632C865.828 45.188 865.671 45.188 865.592 45.1128C865.434 45.0376 865.276 44.9624 865.119 44.8872C865.04 44.8872 864.961 44.812 864.882 44.812C864.725 44.7368 864.646 44.7368 864.488 44.7368C864.33 44.6617 864.173 44.6617 864.094 44.6617C864.015 44.6617 863.936 44.6617 863.857 44.5865C863.7 44.5865 863.542 44.5865 863.463 44.5113C863.305 44.5113 863.227 44.5113 863.069 44.5113C862.99 44.5113 862.99 44.5113 862.911 44.5113H862.832C862.675 44.5113 862.517 44.5113 862.359 44.5113C862.202 44.5113 862.044 44.5113 861.886 44.5865C861.808 44.5865 861.729 44.5865 861.65 44.6617C861.492 44.6617 861.413 44.7368 861.256 44.7368C861.098 44.812 860.94 44.812 860.783 44.8872C860.704 44.8872 860.625 44.9624 860.546 44.9624C860.388 45.0376 860.31 45.1128 860.231 45.1128C860.073 45.188 859.915 45.2632 859.758 45.3383C859.679 45.4135 859.6 45.4135 859.521 45.4887C859.442 45.5639 859.285 45.6391 859.206 45.7143C858.969 45.8647 858.812 46.015 858.575 46.2406C856.368 48.4962 856.525 51.9549 858.891 54.0601L862.832 57.5188L898.152 88.5714C899.255 89.5489 900.674 90 902.093 90C903.276 90 904.537 89.6241 905.562 88.9474C907.849 87.3684 908.637 84.5113 907.454 82.1053Z" fill="white"/>
</svg>
