<svg xmlns:xlink="http://www.w3.org/1999/xlink" width="40.922" xmlns="http://www.w3.org/2000/svg" height="419.998" id="screenshot-d33ed7fe-980b-803c-8001-bf5bc8925459" viewBox="540 376 40.922 419.998" style="-webkit-print-color-adjust: exact;" fill="none" version="1.1"><g id="shape-d33ed7fe-980b-803c-8001-bf5bc8925459"><g id="fills-d33ed7fe-980b-803c-8001-bf5bc8925459"><path rx="0" ry="0" d="M577.352,376C570.611,376.032,563.98,376.731,557.486,378.053C558.558,429.714,559.088,481.475,561.205,533.116C562.039,553.463,559.129,568.295,545.916,579.714C537.779,586.746,538.366,595.732,545.657,604.281C550.642,610.129,555.768,615.758,559.267,619.717C559.267,654.453,559.534,686.827,559.193,719.19C558.93,744.118,558.291,769.037,557.738,793.959C564.149,795.285,570.729,795.97,577.416,795.998C578.457,743.467,579.204,690.861,580.814,638.307C581.379,619.865,580.26,603.566,564.336,591.825C580.927,579.78,581.352,562.619,580.775,543.8C579.165,491.309,578.42,438.77,577.369,386.249C577.302,382.917,577.305,379.566,577.352,376Z" style="fill: rgb(255, 255, 255); fill-opacity: 1;"/></g></g></svg>