<svg xmlns="http://www.w3.org/2000/svg" xmlns:svg="http://www.w3.org/2000/svg" width="330" height="90" viewBox="0 0 87.312497 23.8125" version="1.1" id="svg10749">
  <defs id="defs10746">
    <clipPath clipPathUnits="userSpaceOnUse" id="clipPath9138">
      <path d="M 0,1397 H 1671 V 0 H 0 Z" id="path9136"/>
    </clipPath>
    <rect x="15494.571" y="192.34641" width="497.53601" height="345.36865" id="rect9964"/>
  </defs>
  <g id="layer1" transform="translate(63.563567,-50.907646)">
    <g id="g12513" transform="matrix(0.35227297,0,0,-0.35277776,-83.802623,572.06823)" style="display:inline">
      <g id="g12457" transform="matrix(0.35833769,0,0,0.35782626,30.161723,1036.3267)" style="display:inline">
        <g id="g9134" clip-path="url(#clipPath9138)">
          <g id="g9140" transform="translate(128.9571,1215.2625)" style="fill:#7a9a3d;fill-opacity:1">
            <path d="m 0,0 c -14.448,-2.3 -25.735,-13.587 -28.035,-28.035 -2.469,-15.505 -3.802,-32.022 -3.802,-49.164 0,-17.141 1.333,-33.658 3.802,-49.163 2.3,-14.448 13.587,-25.735 28.035,-28.035 15.505,-2.468 32.022,-3.802 49.163,-3.802 17.141,0 33.658,1.334 49.163,3.802 14.449,2.3 25.736,13.587 28.036,28.035 2.468,15.505 3.801,32.022 3.801,49.163 0,17.142 -1.333,33.659 -3.801,49.164 C 124.062,-13.587 112.775,-2.3 98.326,0 82.821,2.468 66.304,3.801 49.163,3.801 32.022,3.801 15.505,2.468 0,0" style="fill:#7a9a3d;fill-opacity:1;fill-rule:nonzero;stroke:none" id="path9142"/>
          </g>
        </g>
        <g id="g9144" transform="translate(162.0892,1095.2549)" style="display:inline;fill:#ffffff">
          <path d="m 0,0 c 0.35,11.183 0.076,22.37 0.076,34.373 -3.593,1.368 -8.857,3.313 -13.976,5.334 -7.487,2.954 -8.09,6.059 0.266,8.489 13.568,3.946 16.557,9.071 15.7,16.102 -2.202,18.074 -2.732,36.191 -3.883,54.292 -8.596,-0.588 -16.968,-1.527 -25.035,-2.811 -13.378,-2.13 -23.829,-12.581 -25.959,-25.959 -2.285,-14.357 -3.52,-29.65 -3.52,-45.522 0,-15.871 1.235,-31.165 3.52,-45.521 2.13,-13.378 12.581,-23.829 25.959,-25.959 8.085,-1.287 16.476,-2.227 25.092,-2.815 C -1.148,-19.998 -0.313,-10.001 0,0" style="fill:#ffffff;fill-opacity:1;fill-rule:nonzero;stroke:none" id="path9146"/>
        </g>
        <g id="g9148" transform="translate(252.2389,1185.0747)" style="display:inline;fill:#ffffff">
          <path d="m 0,0 c -2.13,13.378 -12.581,23.829 -25.959,25.959 -14.296,2.275 -29.522,3.507 -45.322,3.518 -0.022,-1.469 -0.043,-2.856 0.039,-4.234 1.077,-18.152 1.84,-36.31 3.49,-54.452 0.591,-6.504 0.156,-12.435 -16.843,-16.598 16.315,-4.058 17.462,-9.691 16.883,-16.065 -1.665,-18.334 -2.429,-36.686 -3.515,-55.031 -0.069,-1.158 -0.059,-2.333 -0.041,-3.617 15.795,0.012 31.017,1.243 45.309,3.518 13.378,2.13 23.829,12.581 25.959,25.959 2.285,14.356 3.52,29.65 3.52,45.522 C 3.52,-29.65 2.285,-14.356 0,0" style="fill:#ffffff;fill-opacity:1;fill-rule:nonzero;stroke:none" id="path9150"/>
        </g>
        <g id="g9156" transform="translate(397.32881,1162.1447)" style="display:inline;fill:#ffffff">
          <path d="m 0,0 v 1.426 c 0,1.052 0.204,1.798 0.611,2.24 0.407,0.441 0.916,0.662 1.527,0.662 0.645,0 1.171,-0.221 1.579,-0.662 C 4.124,3.224 4.328,2.478 4.328,1.426 V -8.248 C 4.294,-9.3 4.082,-10.047 3.691,-10.488 3.301,-10.929 2.783,-11.15 2.138,-11.15 c -0.577,0 -1.06,0.195 -1.451,0.585 -0.39,0.391 -0.619,1.044 -0.687,1.961 -0.204,2.41 -1.79,4.701 -4.76,6.873 -2.97,2.172 -6.967,3.258 -11.99,3.258 -6.348,0 -11.167,-1.985 -14.46,-5.956 -3.292,-3.972 -4.938,-8.52 -4.938,-13.645 0,-5.533 1.815,-10.098 5.447,-13.696 3.632,-3.598 8.333,-5.397 14.103,-5.397 3.327,0 6.712,0.611 10.157,1.833 3.446,1.222 6.56,3.191 9.343,5.906 0.713,0.679 1.341,1.018 1.884,1.018 0.577,0 1.061,-0.195 1.451,-0.585 0.39,-0.39 0.585,-0.874 0.585,-1.451 0,-1.46 -1.714,-3.309 -5.142,-5.55 -5.532,-3.632 -11.693,-5.447 -18.481,-5.447 -6.891,0 -12.551,2.197 -16.98,6.593 -4.429,4.395 -6.644,9.97 -6.644,16.725 0,6.89 2.265,12.609 6.797,17.158 4.531,4.548 10.242,6.822 17.132,6.822 C -9.945,5.855 -4.446,3.903 0,0" style="fill:#ffffff;fill-opacity:1;fill-rule:nonzero;stroke:none" id="path9158"/>
        </g>
        <g id="g9160" transform="translate(454.6883,1162.1447)" style="display:inline;fill:#7a9a3d;fill-opacity:1">
          <path d="m 0,0 v 1.426 c 0,1.052 0.204,1.798 0.611,2.24 0.407,0.441 0.916,0.662 1.527,0.662 0.645,0 1.171,-0.221 1.579,-0.662 C 4.124,3.224 4.328,2.478 4.328,1.426 V -8.248 C 4.294,-9.3 4.082,-10.047 3.691,-10.488 3.301,-10.929 2.783,-11.15 2.138,-11.15 c -0.577,0 -1.06,0.195 -1.451,0.585 -0.39,0.391 -0.619,1.044 -0.687,1.961 -0.204,2.41 -1.79,4.701 -4.76,6.873 -2.97,2.172 -6.967,3.258 -11.99,3.258 -6.348,0 -11.167,-1.985 -14.46,-5.956 -3.292,-3.972 -4.938,-8.52 -4.938,-13.645 0,-5.533 1.815,-10.098 5.447,-13.696 3.632,-3.598 8.333,-5.397 14.103,-5.397 3.327,0 6.712,0.611 10.157,1.833 3.446,1.222 6.56,3.191 9.343,5.906 0.713,0.679 1.341,1.018 1.884,1.018 0.577,0 1.061,-0.195 1.451,-0.585 0.39,-0.39 0.585,-0.874 0.585,-1.451 0,-1.46 -1.714,-3.309 -5.142,-5.55 -5.532,-3.632 -11.693,-5.447 -18.481,-5.447 -6.891,0 -12.551,2.197 -16.98,6.593 -4.429,4.395 -6.644,9.97 -6.644,16.725 0,6.89 2.265,12.609 6.797,17.158 4.531,4.548 10.242,6.822 17.132,6.822 C -9.945,5.855 -4.446,3.903 0,0" style="fill:#7a9a3d;fill-opacity:1;fill-rule:nonzero;stroke:none" id="path9162"/>
        </g>
        <g id="g9164" transform="translate(513.77601,1144.325)" style="display:inline;fill:#7a9a3d;fill-opacity:1">
          <path d="m 0,0 c 0,5.363 -1.909,9.928 -5.728,13.696 -3.818,3.767 -8.443,5.651 -13.874,5.651 -5.43,0 -10.055,-1.892 -13.873,-5.677 -3.819,-3.784 -5.728,-8.341 -5.728,-13.67 0,-5.295 1.909,-9.843 5.728,-13.645 3.818,-3.801 8.443,-5.702 13.873,-5.702 5.431,0 10.056,1.892 13.874,5.677 C -1.909,-9.886 0,-5.329 0,0 m 4.328,0 c 0,-6.517 -2.334,-12.083 -7.001,-16.7 -4.667,-4.616 -10.293,-6.924 -16.878,-6.924 -6.652,0 -12.304,2.317 -16.954,6.95 -4.65,4.633 -6.975,10.191 -6.975,16.674 0,6.517 2.325,12.092 6.975,16.725 4.65,4.633 10.302,6.95 16.954,6.95 6.585,0 12.211,-2.308 16.878,-6.925 C 1.994,12.134 4.328,6.551 4.328,0" style="fill:#7a9a3d;fill-opacity:1;fill-rule:nonzero;stroke:none" id="path9166"/>
        </g>
        <g id="g9168" transform="translate(553.72309,1186.2775)" style="display:inline;fill:#ffffff">
          <path d="m 0,0 v -59.619 h 16.801 c 1.053,0 1.799,-0.196 2.241,-0.586 0.441,-0.39 0.661,-0.908 0.661,-1.553 0,-0.611 -0.22,-1.12 -0.661,-1.527 -0.442,-0.408 -1.188,-0.611 -2.241,-0.611 h -37.879 c -1.018,0 -1.748,0.203 -2.189,0.611 -0.442,0.407 -0.662,0.916 -0.662,1.527 0,0.645 0.22,1.163 0.662,1.553 0.441,0.39 1.171,0.586 2.189,0.586 h 16.801 v 55.291 h -12.321 c -1.018,0 -1.756,0.204 -2.214,0.611 -0.459,0.408 -0.688,0.934 -0.688,1.579 0,0.611 0.221,1.12 0.662,1.527 0.441,0.407 1.188,0.611 2.24,0.611 z" style="fill:#ffffff;fill-opacity:1;fill-rule:nonzero;stroke:none" id="path9170"/>
        </g>
        <g id="g9172" transform="translate(621.2144,1143.6631)" style="display:inline;fill:#ffffff">
          <path d="m 0,0 c -2.003,0.577 -4.124,1.001 -6.364,1.273 -2.24,0.271 -4.599,0.407 -7.077,0.407 -6.212,0 -11.065,-1.341 -14.561,-4.022 -2.648,-2.003 -3.972,-4.396 -3.972,-7.179 0,-2.579 1.01,-4.752 3.03,-6.517 2.019,-1.765 4.964,-2.647 8.833,-2.647 3.7,0 7.137,0.738 10.31,2.215 3.174,1.476 6.441,3.827 9.801,7.051 z m 0,-21.282 v 6.161 c -6.211,-5.227 -12.847,-7.841 -19.907,-7.841 -5.125,0 -9.131,1.298 -12.016,3.895 -2.885,2.597 -4.327,5.779 -4.327,9.546 0,4.141 1.901,7.756 5.702,10.845 3.802,3.088 9.351,4.633 16.649,4.633 1.968,0 4.107,-0.127 6.415,-0.382 C -5.176,5.32 -2.681,4.922 0,4.379 v 6.924 c 0,2.342 -1.086,4.378 -3.258,6.109 -2.173,1.731 -5.431,2.597 -9.776,2.597 -3.326,0 -7.993,-0.967 -14.001,-2.902 -1.086,-0.34 -1.782,-0.509 -2.087,-0.509 -0.543,0 -1.01,0.203 -1.401,0.611 -0.39,0.407 -0.585,0.916 -0.585,1.527 0,0.577 0.17,1.035 0.509,1.375 0.475,0.509 2.393,1.205 5.753,2.087 5.295,1.426 9.3,2.139 12.016,2.139 5.397,0 9.606,-1.333 12.626,-3.997 3.021,-2.665 4.532,-5.677 4.532,-9.037 v -28.308 h 5.702 c 1.052,0 1.799,-0.195 2.24,-0.586 0.441,-0.39 0.662,-0.908 0.662,-1.552 0,-0.611 -0.221,-1.12 -0.662,-1.528 -0.441,-0.407 -1.188,-0.611 -2.24,-0.611 z" style="fill:#ffffff;fill-opacity:1;fill-rule:nonzero;stroke:none" id="path9174"/>
        </g>
        <g id="g9176" transform="translate(682.90139,1144.325)" style="display:inline;fill:#7a9a3d;fill-opacity:1">
          <path d="m 0,0 c 0,5.431 -1.833,10.013 -5.499,13.747 -3.665,3.733 -8.027,5.6 -13.084,5.6 -5.092,0 -9.47,-1.867 -13.136,-5.6 -3.666,-3.734 -5.499,-8.316 -5.499,-13.747 0,-5.397 1.833,-9.97 5.499,-13.721 3.666,-3.751 8.044,-5.626 13.136,-5.626 5.057,0 9.419,1.875 13.084,5.626 C -1.833,-9.97 0,-5.397 0,0 m 4.328,41.953 v -59.62 h 5.702 c 1.052,0 1.799,-0.195 2.24,-0.585 0.441,-0.391 0.662,-0.908 0.662,-1.553 0,-0.611 -0.221,-1.12 -0.662,-1.528 -0.441,-0.407 -1.188,-0.611 -2.24,-0.611 H 0 v 8.503 c -4.956,-6.788 -11.252,-10.183 -18.889,-10.183 -3.869,0 -7.577,1.027 -11.124,3.081 -3.547,2.053 -6.348,4.98 -8.401,8.782 -2.054,3.802 -3.08,7.722 -3.08,11.761 0,4.073 1.026,8.002 3.08,11.786 2.053,3.785 4.854,6.713 8.401,8.783 3.547,2.071 7.272,3.106 11.175,3.106 7.467,0 13.747,-3.394 18.838,-10.183 v 24.133 h -5.702 c -1.052,0 -1.799,0.204 -2.24,0.611 -0.442,0.407 -0.662,0.933 -0.662,1.578 0,0.611 0.22,1.12 0.662,1.528 0.441,0.407 1.188,0.611 2.24,0.611 z" style="fill:#7a9a3d;fill-opacity:1;fill-rule:nonzero;stroke:none" id="path9178"/>
        </g>
        <g id="g9180" transform="translate(742.45019,1147.7362)" style="display:inline;fill:#7a9a3d;fill-opacity:1">
          <path d="m 0,0 c -0.849,4.718 -3.08,8.553 -6.695,11.506 -3.615,2.953 -7.917,4.43 -12.907,4.43 -4.989,0 -9.283,-1.46 -12.881,-4.379 C -36.081,8.638 -38.321,4.786 -39.203,0 Z m 4.328,-4.328 h -43.582 c 0.747,-5.532 3.063,-9.987 6.95,-13.364 3.886,-3.378 8.697,-5.066 14.433,-5.066 3.191,0 6.534,0.526 10.03,1.578 3.496,1.052 6.348,2.444 8.554,4.175 0.645,0.509 1.205,0.764 1.68,0.764 0.543,0 1.018,-0.212 1.425,-0.637 0.408,-0.424 0.611,-0.925 0.611,-1.502 0,-0.577 -0.271,-1.137 -0.814,-1.68 -1.629,-1.697 -4.523,-3.284 -8.681,-4.76 -4.158,-1.477 -8.426,-2.215 -12.805,-2.215 -7.331,0 -13.449,2.401 -18.354,7.204 -4.904,4.803 -7.357,10.616 -7.357,17.438 0,6.211 2.3,11.54 6.899,15.987 4.599,4.446 10.293,6.669 17.081,6.669 6.993,0 12.746,-2.282 17.26,-6.847 C 2.172,8.85 4.396,2.936 4.328,-4.328" style="fill:#7a9a3d;fill-opacity:1;fill-rule:nonzero;stroke:none" id="path9182"/>
        </g>
        <text xml:space="preserve" transform="matrix(1.373013,0,0,-1.2505929,-20996.895,1469.3015)" id="text9962" style="font-size:96px;white-space:pre;shape-inside:url(#rect9964);display:inline;fill:#ffffff"><tspan x="15494.57" y="279.92941" id="tspan2026"><tspan style="font-family:'Courier New';-inkscape-font-specification:'Courier New, Normal'" id="tspan2024">A</tspan></tspan></text>
        <g aria-label="Vers le numérique éco-responsable" transform="matrix(0.99999995,0,0,-1.1015491,376.54591,1083.2533)" id="text9186" style="font-weight:300;font-size:20.9614px;font-family:'Remora Sans W1 Light';-inkscape-font-specification:RemoraSansW1-Light;letter-spacing:0px;word-spacing:0px;white-space:pre;inline-size:476.929;display:inline;fill:#b3b3b3">
          <path d="M 14.06297,-15.240002 8.5155684,0 H 5.813513 L 0.26611151,-15.240002 H 2.4359438 L 7.215716,-1.8320754 11.995488,-15.240002 Z" id="path1035"/>
          <path d="m 24.76884,-5.5166963 h -8.423452 q 0,1.0542109 0.317286,1.8423104 0.317287,0.7778644 0.86998,1.2793823 0.532223,0.4912828 1.258913,0.7369242 0.736924,0.2456414 1.617139,0.2456414 1.166796,0 2.343828,-0.4605776 1.187267,-0.4708127 1.688785,-0.9211553 h 0.10235 v 2.09818695 q -0.97233,0.40940232 -1.985601,0.68574889 -1.013271,0.27634657 -2.128892,0.27634657 -2.845346,0 -4.442015,-1.53525871 -1.596669,-1.5454938 -1.596669,-4.3806049 0,-2.8044059 1.525023,-4.4522499 1.535259,-1.647845 4.032613,-1.647845 2.313123,0 3.5618,1.351028 1.258912,1.3510276 1.258912,3.8381467 z m -1.873015,-1.4738484 q -0.01023,-1.5147886 -0.76763,-2.3438283 -0.747159,-0.82904 -2.282417,-0.82904 -1.545494,0 -2.466649,0.9109204 -0.910921,0.9109202 -1.033741,2.2619479 z" id="path1037"/>
          <path d="m 34.819668,-9.334373 h -0.10235 q -0.429873,-0.1023506 -0.839275,-0.1432908 -0.399167,-0.051175 -0.951861,-0.051175 -0.89045,0 -1.719489,0.3991672 -0.82904,0.3889322 -1.596669,1.0132708 V 0 h -1.924191 v -11.43256 h 1.924191 v 1.6887846 q 1.146326,-0.9211556 2.016306,-1.2998526 0.880215,-0.388932 1.791135,-0.388932 0.501518,0 0.726689,0.03071 0.225172,0.02047 0.675514,0.09212 z" id="path1039"/>
          <path d="m 44.798847,-3.2956887 q 0,1.5659639 -1.299852,2.56899957 -1.289617,1.0030357 -3.531095,1.0030357 -1.269147,0 -2.333593,-0.29681669 -1.054211,-0.30705174 -1.770665,-0.66527878 v -2.1595973 h 0.10235 q 0.91092,0.6857489 2.026542,1.0951513 1.115621,0.3991672 2.139127,0.3991672 1.269147,0 1.985601,-0.4094023 0.716454,-0.4094023 0.716454,-1.2896173 0,-0.6755139 -0.388932,-1.0235058 -0.388932,-0.347992 -1.494318,-0.5936334 -0.409403,-0.092116 -1.074681,-0.2149362 -0.655044,-0.1228207 -1.197502,-0.2661115 -1.504554,-0.3991673 -2.139127,-1.1667967 -0.624339,-0.7778644 -0.624339,-1.9037208 0,-0.706219 0.286582,-1.3305575 0.296816,-0.6243388 0.89045,-1.1156218 0.573163,-0.481047 1.453378,-0.757394 0.89045,-0.286582 1.985601,-0.286582 1.023506,0 2.067482,0.255877 1.054211,0.245641 1.750195,0.603868 v 2.0572471 h -0.102351 q -0.736924,-0.5424581 -1.791135,-0.9109202 -1.054211,-0.3786969 -2.067482,-0.3786969 -1.054211,0 -1.7809,0.4094021 -0.726689,0.3991672 -0.726689,1.1975018 0,0.706219 0.440108,1.064446 0.429872,0.358227 1.391968,0.5833983 0.532223,0.1228207 1.187266,0.2456414 0.665279,0.1228207 1.105387,0.2251713 1.340792,0.3070517 2.067481,1.054211 0.726689,0.7573943 0.726689,2.0060714 z" id="path1041"/>
          <path d="m 56.865983,0 h -1.924191 v -15.92575 h 1.924191 z" id="path1043"/>
          <path d="M 70.243203,-5.5166963 H 61.81975 q 0,1.0542109 0.317287,1.8423104 0.317287,0.7778644 0.86998,1.2793823 0.532223,0.4912828 1.258912,0.7369242 0.736924,0.2456414 1.617139,0.2456414 1.166797,0 2.343828,-0.4605776 1.187267,-0.4708127 1.688785,-0.9211553 h 0.102351 v 2.09818695 q -0.972331,0.40940232 -1.985602,0.68574889 -1.01327,0.27634657 -2.128892,0.27634657 -2.845346,0 -4.442015,-1.53525871 -1.596669,-1.5454938 -1.596669,-4.3806049 0,-2.8044059 1.525024,-4.4522499 1.535258,-1.647845 4.032612,-1.647845 2.313124,0 3.561801,1.351028 1.258912,1.3510276 1.258912,3.8381467 z m -1.873016,-1.4738484 q -0.01023,-1.5147886 -0.767629,-2.3438283 -0.747159,-0.82904 -2.282418,-0.82904 -1.545494,0 -2.466649,0.9109204 -0.91092,0.9109202 -1.033741,2.2619479 z" id="path1045"/>
          <path d="m 90.088978,0 h -1.924191 v -6.509497 q 0,-0.7880995 -0.09212,-1.4738484 -0.09212,-0.6959839 -0.337757,-1.0849161 -0.255877,-0.4298725 -0.736924,-0.6345736 -0.481048,-0.2149362 -1.248677,-0.2149362 -0.7881,0 -1.647845,0.3889322 -0.859745,0.3889322 -1.647844,0.9928006 V 0 h -1.924191 v -11.43256 h 1.924191 v 1.269147 q 0.900685,-0.747159 1.86278,-1.166796 0.962096,-0.419638 1.975367,-0.419638 1.852545,0 2.824876,1.115622 0.97233,1.1156209 0.97233,3.2138078 z" id="path1047"/>
          <path d="m 103.27174,0 h -1.92419 v -1.2691472 q -0.97233,0.76762935 -1.862783,1.17703168 -0.89045,0.40940232 -1.965131,0.40940232 -1.80137,0 -2.804406,-1.09515122 Q 93.712194,-1.8832507 93.712194,-4.0121428 V -11.43256 h 1.924191 v 6.509497 q 0,0.86998 0.08188,1.4943185 0.08188,0.6141035 0.347992,1.054211 0.276346,0.4503426 0.716454,0.6550437 0.440107,0.2047012 1.279382,0.2047012 0.747159,0 1.627374,-0.3889322 0.890453,-0.3889322 1.658083,-0.9928007 V -11.43256 h 1.92419 z" id="path1049"/>
          <path d="m 123.74185,0 h -1.92419 v -6.509497 q 0,-0.7369242 -0.0716,-1.4226731 -0.0614,-0.6857489 -0.27635,-1.0951512 -0.23541,-0.4401075 -0.67551,-0.6652788 -0.44011,-0.2251712 -1.26915,-0.2251712 -0.80857,0 -1.61714,0.4094023 -0.80857,0.3991673 -1.61714,1.0235058 0.0307,0.2354063 0.0512,0.5526931 0.0205,0.3070518 0.0205,0.6141035 V 0 h -1.9242 v -6.509497 q 0,-0.7573943 -0.0716,-1.4329081 -0.0614,-0.6857489 -0.27635,-1.0951512 -0.2354,-0.4401075 -0.67551,-0.6550438 -0.44011,-0.2251712 -1.26915,-0.2251712 -0.7881,0 -1.58643,0.3889322 -0.7881,0.3889322 -1.5762,0.9928006 V 0 h -1.92419 v -11.43256 h 1.92419 v 1.269147 q 0.90068,-0.747159 1.79113,-1.166796 0.90069,-0.419638 1.91396,-0.419638 1.1668,0 1.97537,0.491283 0.8188,0.491283 1.21797,1.3612628 1.16679,-0.9825658 2.12889,-1.4124378 0.9621,-0.440108 2.05725,-0.440108 1.88325,0 2.7737,1.146327 0.90068,1.1360912 0.90068,3.1831028 z" id="path1051"/>
          <path d="m 137.01672,-5.5166963 h -8.42345 q 0,1.0542109 0.31729,1.8423104 0.31729,0.7778644 0.86998,1.2793823 0.53222,0.4912828 1.25891,0.7369242 0.73692,0.2456414 1.61714,0.2456414 1.1668,0 2.34383,-0.4605776 1.18726,-0.4708127 1.68878,-0.9211553 h 0.10235 v 2.09818695 q -0.97233,0.40940232 -1.9856,0.68574889 -1.01327,0.27634657 -2.12889,0.27634657 -2.84535,0 -4.44202,-1.53525871 -1.59666,-1.5454938 -1.59666,-4.3806049 0,-2.8044059 1.52502,-4.4522499 1.53526,-1.647845 4.03261,-1.647845 2.31313,0 3.5618,1.351028 1.25891,1.3510276 1.25891,3.8381467 z m -1.87301,-1.4738484 q -0.0102,-1.5147886 -0.76763,-2.3438283 -0.74716,-0.82904 -2.28242,-0.82904 -1.54549,0 -2.46665,0.9109204 -0.91092,0.9109202 -1.03374,2.2619479 z m 0.2354,-10.1634123 -2.79417,3.827911 h -1.52502 l 1.83208,-3.827911 z" id="path1053"/>
          <path d="m 147.06754,-9.334373 h -0.10235 q -0.42987,-0.1023506 -0.83927,-0.1432908 -0.39917,-0.051175 -0.95186,-0.051175 -0.89045,0 -1.71949,0.3991672 -0.82904,0.3889322 -1.59667,1.0132708 V 0 h -1.92419 v -11.43256 h 1.92419 v 1.6887846 q 1.14633,-0.9211556 2.01631,-1.2998526 0.88021,-0.388932 1.79113,-0.388932 0.50152,0 0.72669,0.03071 0.22517,0.02047 0.67551,0.09212 z" id="path1055"/>
          <path d="m 150.94664,-13.346516 h -2.16983 v -1.995836 h 2.16983 z M 150.82382,0 h -1.92419 v -11.43256 h 1.92419 z" id="path1057"/>
          <path d="m 163.90423,4.216844 h -1.92419 v -5.5064613 q -0.89045,0.76762933 -1.77067,1.14632649 -0.88021,0.36846209 -1.90372,0.36846209 -2.03678,0 -3.25475,-1.56596388 -1.20774,-1.576199 -1.20774,-4.3396647 0,-1.4738483 0.41964,-2.5997047 0.42987,-1.1360915 1.12586,-1.903721 0.67551,-0.747159 1.58643,-1.156561 0.91092,-0.409403 1.92419,-0.409403 0.92116,0 1.62738,0.204701 0.71645,0.204702 1.45338,0.603869 l 0.12282,-0.491283 h 1.80137 z m -1.92419,-7.1236005 v -6.4685568 q -0.79834,-0.358227 -1.41244,-0.5015178 -0.61411,-0.1432909 -1.33056,-0.1432909 -1.66831,0 -2.53829,1.1360915 -0.86998,1.1258564 -0.86998,3.1114577 0,2.0060714 0.69598,3.0909876 0.70622,1.0746811 2.21077,1.0746811 0.83928,0 1.67855,-0.3582271 0.83928,-0.3684621 1.56597,-0.9416253 z" id="path1059"/>
          <path d="m 177.16885,0 h -1.92419 v -1.2691472 q -0.97233,0.76762935 -1.86278,1.17703168 -0.89045,0.40940232 -1.96513,0.40940232 -1.80137,0 -2.80441,-1.09515122 Q 167.6093,-1.8832507 167.6093,-4.0121428 V -11.43256 h 1.9242 v 6.509497 q 0,0.86998 0.0819,1.4943185 0.0819,0.6141035 0.34799,1.054211 0.27634,0.4503426 0.71645,0.6550437 0.44011,0.2047012 1.27938,0.2047012 0.74716,0 1.62738,-0.3889322 0.89045,-0.3889322 1.65808,-0.9928007 V -11.43256 h 1.92419 z" id="path1061"/>
          <path d="m 190.52561,-5.5166963 h -8.42345 q 0,1.0542109 0.31729,1.8423104 0.31728,0.7778644 0.86998,1.2793823 0.53222,0.4912828 1.25891,0.7369242 0.73692,0.2456414 1.61714,0.2456414 1.16679,0 2.34383,-0.4605776 1.18726,-0.4708127 1.68878,-0.9211553 h 0.10235 v 2.09818695 q -0.97233,0.40940232 -1.9856,0.68574889 -1.01327,0.27634657 -2.12889,0.27634657 -2.84535,0 -4.44202,-1.53525871 -1.59667,-1.5454938 -1.59667,-4.3806049 0,-2.8044059 1.52503,-4.4522499 1.53526,-1.647845 4.03261,-1.647845 2.31312,0 3.5618,1.351028 1.25891,1.3510276 1.25891,3.8381467 z m -1.87301,-1.4738484 q -0.0102,-1.5147886 -0.76763,-2.3438283 -0.74716,-0.82904 -2.28242,-0.82904 -1.54549,0 -2.46665,0.9109204 -0.91092,0.9109202 -1.03374,2.2619479 z" id="path1063"/>
          <path d="m 210.38162,-5.5166963 h -8.42346 q 0,1.0542109 0.31729,1.8423104 0.31729,0.7778644 0.86998,1.2793823 0.53222,0.4912828 1.25891,0.7369242 0.73693,0.2456414 1.61714,0.2456414 1.1668,0 2.34383,-0.4605776 1.18727,-0.4708127 1.68878,-0.9211553 h 0.10235 v 2.09818695 q -0.97233,0.40940232 -1.9856,0.68574889 -1.01327,0.27634657 -2.12889,0.27634657 -2.84535,0 -4.44201,-1.53525871 -1.59667,-1.5454938 -1.59667,-4.3806049 0,-2.8044059 1.52502,-4.4522499 1.53526,-1.647845 4.03261,-1.647845 2.31313,0 3.5618,1.351028 1.25892,1.3510276 1.25892,3.8381467 z m -1.87302,-1.4738484 q -0.0102,-1.5147886 -0.76763,-2.3438283 -0.74716,-0.82904 -2.28242,-0.82904 -1.54549,0 -2.46665,0.9109204 -0.91092,0.9109202 -1.03374,2.2619479 z m 0.23541,-10.1634123 -2.79417,3.827911 h -1.52503 l 1.83208,-3.827911 z" id="path1065"/>
          <path d="M 221.75276,-0.71645407 Q 220.79067,-0.25587645 219.92069,0 q -0.85975,0.25587645 -1.83208,0.25587645 -1.23844,0 -2.27218,-0.35822703 -1.03374,-0.36846209 -1.77066,-1.10538632 -0.74716,-0.7369241 -1.15657,-1.8627805 -0.4094,-1.1258564 -0.4094,-2.63041 0,-2.8044059 1.53526,-4.4010746 1.54549,-1.596669 4.07355,-1.596669 0.98257,0 1.92419,0.276346 0.95187,0.276347 1.73996,0.675514 v 2.1391271 h -0.10235 q -0.88021,-0.6857489 -1.82184,-1.054211 -0.93139,-0.3684621 -1.82184,-0.3684621 -1.63761,0 -2.58947,1.1053863 -0.94162,1.0951512 -0.94162,3.2240433 0,2.0674818 0.92115,3.1831031 0.93139,1.1053863 2.60994,1.1053863 0.5834,0 1.18727,-0.1535259 0.60387,-0.1535259 1.08492,-0.3991673 0.41963,-0.2149362 0.7881,-0.4503425 0.36846,-0.2456414 0.58339,-0.4196374 h 0.10235 z" id="path1067"/>
          <path d="m 233.96319,-5.7111624 q 0,2.7941708 -1.43291,4.41131 -1.43291,1.6171392 -3.83815,1.6171392 -2.4257,0 -3.85861,-1.6171392 -1.42268,-1.6171392 -1.42268,-4.41131 0,-2.7941709 1.42268,-4.4113106 1.43291,-1.627374 3.85861,-1.627374 2.40524,0 3.83815,1.627374 1.43291,1.6171397 1.43291,4.4113106 z m -1.9856,0 q 0,-2.2210077 -0.86998,-3.2956888 -0.86998,-1.0849158 -2.41548,-1.0849158 -1.56596,0 -2.43594,1.0849158 -0.85974,1.0746811 -0.85974,3.2956888 0,2.1493622 0.86998,3.2649835 0.86998,1.1053863 2.4257,1.1053863 1.53526,0 2.40524,-1.0951512 0.88022,-1.1053863 0.88022,-3.2752186 z" id="path1069"/>
          <path d="m 243.00075,-5.7418676 h -6.38668 v -1.8525455 h 6.38668 z" id="path1071"/>
          <path d="m 253.59403,-9.334373 h -0.10235 q -0.42987,-0.1023506 -0.83927,-0.1432908 -0.39917,-0.051175 -0.95186,-0.051175 -0.89045,0 -1.71949,0.3991672 -0.82904,0.3889322 -1.59667,1.0132708 V 0 h -1.92419 v -11.43256 h 1.92419 v 1.6887846 q 1.14632,-0.9211556 2.0163,-1.2998526 0.88022,-0.388932 1.79114,-0.388932 0.50152,0 0.72669,0.03071 0.22517,0.02047 0.67551,0.09212 z" id="path1073"/>
          <path d="m 264.97541,-5.5166963 h -8.42345 q 0,1.0542109 0.31729,1.8423104 0.31728,0.7778644 0.86998,1.2793823 0.53222,0.4912828 1.25891,0.7369242 0.73692,0.2456414 1.61714,0.2456414 1.16679,0 2.34382,-0.4605776 1.18727,-0.4708127 1.68879,-0.9211553 h 0.10235 v 2.09818695 q -0.97233,0.40940232 -1.9856,0.68574889 -1.01327,0.27634657 -2.12889,0.27634657 -2.84535,0 -4.44202,-1.53525871 -1.59667,-1.5454938 -1.59667,-4.3806049 0,-2.8044059 1.52503,-4.4522499 1.53525,-1.647845 4.03261,-1.647845 2.31312,0 3.5618,1.351028 1.25891,1.3510276 1.25891,3.8381467 z m -1.87301,-1.4738484 q -0.0102,-1.5147886 -0.76763,-2.3438283 -0.74716,-0.82904 -2.28242,-0.82904 -1.5455,0 -2.46665,0.9109204 -0.91092,0.9109202 -1.03374,2.2619479 z" id="path1075"/>
          <path d="m 276.05999,-3.2956887 q 0,1.5659639 -1.29985,2.56899957 -1.28962,1.0030357 -3.53109,1.0030357 -1.26915,0 -2.3336,-0.29681669 -1.05421,-0.30705174 -1.77066,-0.66527878 v -2.1595973 h 0.10235 q 0.91092,0.6857489 2.02654,1.0951513 1.11562,0.3991672 2.13913,0.3991672 1.26914,0 1.9856,-0.4094023 0.71645,-0.4094023 0.71645,-1.2896173 0,-0.6755139 -0.38893,-1.0235058 -0.38893,-0.347992 -1.49432,-0.5936334 -0.4094,-0.092116 -1.07468,-0.2149362 -0.65504,-0.1228207 -1.1975,-0.2661115 -1.50455,-0.3991673 -2.13913,-1.1667967 -0.62434,-0.7778644 -0.62434,-1.9037208 0,-0.706219 0.28659,-1.3305575 0.29681,-0.6243388 0.89045,-1.1156218 0.57316,-0.481047 1.45337,-0.757394 0.89045,-0.286582 1.9856,-0.286582 1.02351,0 2.06749,0.255877 1.05421,0.245641 1.75019,0.603868 v 2.0572471 h -0.10235 q -0.73692,-0.5424581 -1.79113,-0.9109202 -1.05422,-0.3786969 -2.06749,-0.3786969 -1.05421,0 -1.7809,0.4094021 -0.72669,0.3991672 -0.72669,1.1975018 0,0.706219 0.44011,1.064446 0.42987,0.358227 1.39197,0.5833983 0.53222,0.1228207 1.18727,0.2456414 0.66528,0.1228207 1.10538,0.2251713 1.3408,0.3070517 2.06748,1.054211 0.72669,0.7573943 0.72669,2.0060714 z" id="path1077"/>
          <path d="m 288.87429,-5.8544533 q 0,1.3919679 -0.39917,2.5485295 -0.39917,1.1463265 -1.12586,1.9446611 -0.67551,0.75739427 -1.59667,1.17703165 -0.91092,0.40940233 -1.93442,0.40940233 -0.89045,0 -1.61714,-0.19446611 -0.71646,-0.1944661 -1.46361,-0.60386843 V 4.216844 h -1.9242 V -11.43256 h 1.9242 v 1.197502 q 0.76762,-0.644809 1.71949,-1.074681 0.96209,-0.440108 2.04701,-0.440108 2.06748,0 3.21381,1.565964 1.15656,1.555729 1.15656,4.3294297 z m -1.9856,0.051175 q 0,-2.0674817 -0.70622,-3.0909875 -0.70622,-1.0235058 -2.16984,-1.0235058 -0.82904,0 -1.66831,0.358227 -0.83928,0.358227 -1.6069,0.9416253 v 6.4787918 q 0.8188,0.3684621 1.4022,0.5015179 0.59363,0.1330558 1.34079,0.1330558 1.60691,0 2.50759,-1.0849162 0.90069,-1.0849162 0.90069,-3.2138083 z" id="path1079"/>
          <path d="m 301.61694,-5.7111624 q 0,2.7941708 -1.43291,4.41131 -1.43291,1.6171392 -3.83815,1.6171392 -2.42571,0 -3.85862,-1.6171392 -1.42267,-1.6171392 -1.42267,-4.41131 0,-2.7941709 1.42267,-4.4113106 1.43291,-1.627374 3.85862,-1.627374 2.40524,0 3.83815,1.627374 1.43291,1.6171397 1.43291,4.4113106 z m -1.9856,0 q 0,-2.2210077 -0.86998,-3.2956888 -0.86998,-1.0849158 -2.41548,-1.0849158 -1.56596,0 -2.43594,1.0849158 -0.85975,1.0746811 -0.85975,3.2956888 0,2.1493622 0.86998,3.2649835 0.86998,1.1053863 2.42571,1.1053863 1.53526,0 2.40524,-1.0951512 0.88022,-1.1053863 0.88022,-3.2752186 z" id="path1081"/>
          <path d="m 314.15487,0 h -1.92419 v -6.509497 q 0,-0.7880995 -0.0921,-1.4738484 -0.0921,-0.6959839 -0.33776,-1.0849161 -0.25588,-0.4298725 -0.73692,-0.6345736 -0.48105,-0.2149362 -1.24868,-0.2149362 -0.7881,0 -1.64785,0.3889322 -0.85974,0.3889322 -1.64784,0.9928006 V 0 h -1.92419 v -11.43256 h 1.92419 v 1.269147 q 0.90069,-0.747159 1.86278,-1.166796 0.9621,-0.419638 1.97537,-0.419638 1.85254,0 2.82487,1.115622 0.97233,1.1156209 0.97233,3.2138078 z" id="path1083"/>
          <path d="m 326.02755,-3.2956887 q 0,1.5659639 -1.29985,2.56899957 -1.28962,1.0030357 -3.53109,1.0030357 -1.26915,0 -2.3336,-0.29681669 -1.05421,-0.30705174 -1.77066,-0.66527878 v -2.1595973 h 0.10235 q 0.91092,0.6857489 2.02654,1.0951513 1.11562,0.3991672 2.13913,0.3991672 1.26914,0 1.9856,-0.4094023 0.71645,-0.4094023 0.71645,-1.2896173 0,-0.6755139 -0.38893,-1.0235058 -0.38893,-0.347992 -1.49432,-0.5936334 -0.4094,-0.092116 -1.07468,-0.2149362 -0.65504,-0.1228207 -1.1975,-0.2661115 -1.50455,-0.3991673 -2.13913,-1.1667967 -0.62434,-0.7778644 -0.62434,-1.9037208 0,-0.706219 0.28659,-1.3305575 0.29681,-0.6243388 0.89045,-1.1156218 0.57316,-0.481047 1.45337,-0.757394 0.89045,-0.286582 1.9856,-0.286582 1.02351,0 2.06749,0.255877 1.05421,0.245641 1.75019,0.603868 v 2.0572471 h -0.10235 q -0.73692,-0.5424581 -1.79113,-0.9109202 -1.05422,-0.3786969 -2.06749,-0.3786969 -1.05421,0 -1.7809,0.4094021 -0.72669,0.3991672 -0.72669,1.1975018 0,0.706219 0.44011,1.064446 0.42987,0.358227 1.39197,0.5833983 0.53222,0.1228207 1.18727,0.2456414 0.66528,0.1228207 1.10538,0.2251713 1.3408,0.3070517 2.06748,1.054211 0.72669,0.7573943 0.72669,2.0060714 z" id="path1085"/>
          <path d="m 337.66481,0 h -1.91395 v -1.2179719 q -0.25588,0.173996 -0.69599,0.49128277 -0.42987,0.30705175 -0.83927,0.49128279 Q 333.73455,0 333.11021,0.15352587 332.48588,0.3172868 331.6466,0.3172868 q -1.54549,0 -2.62017,-1.02350581 -1.07469,-1.02350579 -1.07469,-2.60993979 0,-1.2998524 0.5527,-2.098187 0.56293,-0.8085696 1.59667,-1.2691472 1.04397,-0.4605776 2.50759,-0.6243385 1.46361,-0.1637609 3.14216,-0.2456414 v -0.2968167 q 0,-0.6550437 -0.23541,-1.0849162 -0.22517,-0.4298724 -0.65504,-0.6755138 -0.4094,-0.2354063 -0.98257,-0.3172868 -0.57316,-0.081881 -1.1975,-0.081881 -0.75739,0 -1.68878,0.2046981 -0.93139,0.1944661 -1.92419,0.5731633 h -0.10235 v -1.9548934 q 0.56292,-0.153525 1.62737,-0.337756 1.06445,-0.184232 2.09819,-0.184232 1.20773,0 2.09818,0.204702 0.90069,0.194466 1.55573,0.675513 0.64481,0.470813 0.98257,1.2179692 0.33775,0.7471592 0.33775,1.8525455 z m -1.91395,-2.814641 v -3.1831031 q -0.88022,0.051175 -2.07772,0.1535259 -1.18726,0.1023506 -1.88325,0.2968167 -0.82904,0.2354063 -1.34079,0.7369242 -0.51175,0.4912828 -0.51175,1.3612627 0,0.9825656 0.59363,1.4840834 0.59363,0.4912828 1.8116,0.4912828 1.01328,0 1.85255,-0.3889322 0.83927,-0.3991672 1.55573,-0.9518604 z" id="path1087"/>
          <path d="m 351.43096,-5.803278 q 0,1.4329082 -0.4094,2.5792347 -0.39917,1.1463265 -1.08492,1.9241909 -0.72669,0.80856961 -1.59667,1.21797193 -0.86998,0.39916727 -1.91396,0.39916727 -0.97233,0 -1.69902,-0.23540633 -0.72668,-0.22517128 -1.4329,-0.61410349 L 343.17127,0 h -1.80137 v -15.92575 h 1.92419 v 5.690692 q 0.80857,-0.665279 1.71949,-1.084916 0.91092,-0.429873 2.04701,-0.429873 2.02654,0 3.19334,1.555729 1.17703,1.5557289 1.17703,4.39084 z m -1.9856,0.051175 q 0,-2.0470116 -0.67552,-3.1012226 -0.67551,-1.064446 -2.18006,-1.064446 -0.83928,0 -1.69902,0.3684621 -0.85975,0.358227 -1.59667,0.9313902 v 6.5504373 q 0.8188,0.368462 1.4022,0.5117529 0.59363,0.1432908 1.34079,0.1432908 1.59667,0 2.49736,-1.043976 0.91092,-1.0542109 0.91092,-3.2956887 z" id="path1089"/>
          <path d="m 356.37449,0 h -1.92419 v -15.92575 h 1.92419 z" id="path1091"/>
          <path d="m 369.75172,-5.5166963 h -8.42346 q 0,1.0542109 0.31729,1.8423104 0.31729,0.7778644 0.86998,1.2793823 0.53222,0.4912828 1.25891,0.7369242 0.73693,0.2456414 1.61714,0.2456414 1.1668,0 2.34383,-0.4605776 1.18727,-0.4708127 1.68879,-0.9211553 h 0.10235 v 2.09818695 q -0.97233,0.40940232 -1.98561,0.68574889 -1.01327,0.27634657 -2.12889,0.27634657 -2.84534,0 -4.44201,-1.53525871 -1.59667,-1.5454938 -1.59667,-4.3806049 0,-2.8044059 1.52502,-4.4522499 1.53526,-1.647845 4.03261,-1.647845 2.31313,0 3.56181,1.351028 1.25891,1.3510276 1.25891,3.8381467 z m -1.87302,-1.4738484 q -0.0102,-1.5147886 -0.76763,-2.3438283 -0.74716,-0.82904 -2.28242,-0.82904 -1.54549,0 -2.46664,0.9109204 -0.91092,0.9109202 -1.03375,2.2619479 z" id="path1093"/>
        </g>
      </g>
    </g>
  </g>
</svg>
