<svg xmlns:xlink="http://www.w3.org/1999/xlink" width="882" xmlns="http://www.w3.org/2000/svg" height="220" id="screenshot-9eb9e3a2-c7df-8095-8001-bf3e05408aa4" viewBox="-0 0 882 220" style="-webkit-print-color-adjust: exact;" fill="none" version="1.1"><g id="shape-9eb9e3a2-c7df-8095-8001-bf3e05408aa4" xml:space="preserve" width="930" version="1.1" height="231.8714" rx="0" ry="0" style="fill: rgb(0, 0, 0);"><g id="shape-9eb9e3a2-c7df-8095-8001-bf3e0541135d" rx="0" ry="0" style="fill: rgb(0, 0, 0);"><g id="shape-9eb9e3a2-c7df-8095-8001-bf3e05417dc8" rx="0" ry="0" style="display: inline; fill: rgb(0, 0, 0);"><g id="shape-9eb9e3a2-c7df-8095-8001-bf3e0541d149" clip-path="url(#ff5f347a-a5e4-80cd-8001-bf8dfcda50f6-clipPath9138)" rx="0" ry="0" style="fill: rgb(0, 0, 0);"><defs><clipPath clipPathUnits="userSpaceOnUse" id="ff5f347a-a5e4-80cd-8001-bf8dfcda50f6-clipPath9138" class="svg-def" transform="matrix(1.358025,0,0,-1.358025,-131.891494,1655.518333)"><path d="M 0,1397 H 1671 V 0 H 0 Z" id="path9136"/></clipPath></defs><g id="shape-9eb9e3a2-c7df-8095-8001-bf3e054273dc" rx="0" ry="0" style="fill: rgb(122, 154, 61); fill-opacity: 1;"><g id="shape-9eb9e3a2-c7df-8095-8001-bf3e0543fde3"><g id="fills-9eb9e3a2-c7df-8095-8001-bf3e0543fde3"><path rx="0" ry="0" d="M43.235,5.162C23.615,8.285,8.287,23.613,5.163,43.234C1.81,64.29,0,86.721,0,110C0,133.278,1.81,155.708,5.163,176.765C8.287,196.385,23.615,211.713,43.235,214.837C64.292,218.188,86.722,220,110,220C133.278,220,155.708,218.188,176.765,214.837C196.387,211.713,211.715,196.385,214.838,176.765C218.19,155.708,220,133.278,220,110C220,86.721,218.19,64.29,214.838,43.234C211.715,23.613,196.387,8.285,176.765,5.162C155.708,1.81,133.278,0,110,0C86.722,0,64.292,1.81,43.235,5.162Z" style="fill-rule: nonzero; stroke: none; fill: rgb(122, 154, 61); fill-opacity: 1;"/></g></g></g></g><g id="shape-9eb9e3a2-c7df-8095-8001-bf3e05440372" rx="0" ry="0" style="display: inline; fill: rgb(255, 255, 255);"><g id="shape-9eb9e3a2-c7df-8095-8001-bf3e0545361c"><g id="fills-9eb9e3a2-c7df-8095-8001-bf3e0545361c"><path rx="0" ry="0" d="M88.029,168.22C88.502,153.017,88.132,137.808,88.132,121.491C83.282,119.631,76.178,116.987,69.269,114.239C59.163,110.223,58.35,106.002,69.628,102.699C87.94,97.334,91.974,90.367,90.818,80.809C87.846,56.237,87.13,31.608,85.577,7C73.975,7.799,62.675,9.076,51.787,10.821C33.731,13.717,19.626,27.925,16.751,46.112C13.667,65.63,12,86.42,12,107.998C12,129.574,13.667,150.366,16.751,169.883C19.626,188.07,33.731,202.277,51.787,205.173C62.7,206.923,74.025,208.201,85.654,209C86.48,195.407,87.607,181.816,88.029,168.22Z" style="fill-rule: nonzero; stroke: none; fill: rgb(255, 255, 255); fill-opacity: 1;"/></g></g></g><g id="shape-9eb9e3a2-c7df-8095-8001-bf3e054543b0" rx="0" ry="0" style="display: inline; fill: rgb(255, 255, 255);"><g id="shape-9eb9e3a2-c7df-8095-8001-bf3e054617e9"><g id="fills-9eb9e3a2-c7df-8095-8001-bf3e054617e9"><path rx="0" ry="0" d="M211.206,46.09C208.306,27.895,194.073,13.681,175.854,10.785C156.385,7.691,135.649,6.015,114.132,6C114.102,7.998,114.073,9.884,114.185,11.758C115.652,36.446,116.691,61.141,118.938,85.815C119.743,94.66,119.15,102.726,96,108.388C118.219,113.907,119.781,121.568,118.992,130.237C116.725,155.172,115.684,180.131,114.205,205.081C114.111,206.656,114.125,208.254,114.149,210C135.66,209.984,156.39,208.309,175.854,205.215C194.073,202.319,208.306,188.105,211.206,169.91C214.318,150.386,216,129.586,216,107.999C216,86.414,214.318,65.614,211.206,46.09Z" style="fill-rule: nonzero; stroke: none; fill: rgb(255, 255, 255); fill-opacity: 1;"/></g></g></g><g id="shape-9eb9e3a2-c7df-8095-8001-bf3e05465d7c" rx="0" ry="0" style="display: inline; fill: rgb(255, 255, 255);"><g id="shape-9eb9e3a2-c7df-8095-8001-bf3e0547bee0"><g id="fills-9eb9e3a2-c7df-8095-8001-bf3e0547bee0"><path rx="0" ry="0" d="M407.759,76.923L407.759,74.993C407.759,73.569,408.035,72.56,408.587,71.962C409.138,71.365,409.827,71.066,410.655,71.066C411.529,71.066,412.241,71.365,412.794,71.962C413.345,72.56,413.622,73.569,413.622,74.993L413.622,88.083C413.576,89.507,413.288,90.517,412.759,91.114C412.231,91.711,411.529,92.01,410.655,92.01C409.874,92.01,409.219,91.746,408.69,91.218C408.161,90.689,407.851,89.806,407.759,88.565C407.483,85.304,405.334,82.204,401.311,79.265C397.288,76.326,391.874,74.856,385.07,74.856C376.471,74.856,369.943,77.542,365.482,82.916C361.023,88.29,358.794,94.444,358.794,101.379C358.794,108.866,361.252,115.043,366.172,119.911C371.092,124.78,377.46,127.214,385.276,127.214C389.782,127.214,394.368,126.387,399.034,124.734C403.702,123.08,407.92,120.416,411.69,116.742C412.656,115.823,413.507,115.365,414.242,115.365C415.024,115.365,415.679,115.629,416.208,116.156C416.736,116.684,417,117.339,417,118.12C417,120.095,414.678,122.597,410.035,125.63C402.541,130.544,394.196,133,385.001,133C375.666,133,367.999,130.027,362,124.079C356,118.132,353,110.588,353,101.448C353,92.125,356.068,84.386,362.207,78.231C368.345,72.077,376.081,69,385.414,69C394.288,69,401.737,71.641,407.759,76.923Z" style="fill-rule: nonzero; stroke: none; fill: rgb(255, 255, 255); fill-opacity: 1;"/></g></g></g><g id="shape-9eb9e3a2-c7df-8095-8001-bf3e0547fa00" rx="0" ry="0" style="display: inline; fill: rgb(122, 154, 61); fill-opacity: 1;"><g id="shape-9eb9e3a2-c7df-8095-8001-bf3e0549343d"><g id="fills-9eb9e3a2-c7df-8095-8001-bf3e0549343d"><path rx="0" ry="0" d="M484.759,76.923L484.759,74.993C484.759,73.569,485.035,72.56,485.587,71.962C486.138,71.365,486.827,71.066,487.655,71.066C488.529,71.066,489.241,71.365,489.794,71.962C490.345,72.56,490.622,73.569,490.622,74.993L490.622,88.083C490.576,89.507,490.288,90.517,489.759,91.114C489.231,91.711,488.529,92.01,487.655,92.01C486.874,92.01,486.219,91.746,485.69,91.218C485.161,90.689,484.851,89.806,484.759,88.565C484.483,85.304,482.334,82.204,478.311,79.265C474.288,76.326,468.874,74.856,462.07,74.856C453.471,74.856,446.943,77.542,442.482,82.916C438.023,88.29,435.794,94.444,435.794,101.379C435.794,108.866,438.252,115.043,443.172,119.911C448.092,124.78,454.46,127.214,462.276,127.214C466.782,127.214,471.368,126.387,476.034,124.734C480.702,123.08,484.92,120.416,488.69,116.742C489.656,115.823,490.507,115.365,491.242,115.365C492.024,115.365,492.679,115.629,493.208,116.156C493.736,116.684,494,117.339,494,118.12C494,120.095,491.678,122.597,487.035,125.63C479.541,130.544,471.196,133,462.001,133C452.666,133,444.999,130.027,439,124.079C433,118.132,430,110.588,430,101.448C430,92.125,433.068,84.386,439.207,78.231C445.345,72.077,453.081,69,462.414,69C471.288,69,478.737,71.641,484.759,76.923Z" style="fill-rule: nonzero; stroke: none; fill: rgb(122, 154, 61); fill-opacity: 1;"/></g></g></g><g id="shape-9eb9e3a2-c7df-8095-8001-bf3e05495da9" rx="0" ry="0" style="display: inline; fill: rgb(122, 154, 61); fill-opacity: 1;"><g id="shape-9eb9e3a2-c7df-8095-8001-bf3e054a25c7"><g id="fills-9eb9e3a2-c7df-8095-8001-bf3e054a25c7"><path rx="0" ry="0" d="M566.116,101.035C566.116,93.778,563.52,87.601,558.328,82.503C553.137,77.405,546.849,74.856,539.465,74.856C532.082,74.856,525.794,77.416,520.603,82.538C515.411,87.658,512.815,93.824,512.815,101.035C512.815,108.199,515.411,114.353,520.603,119.497C525.794,124.641,532.082,127.213,539.465,127.213C546.849,127.213,553.137,124.653,558.328,119.531C563.52,114.411,566.116,108.245,566.116,101.035ZM572,101.035C572,109.853,568.827,117.384,562.481,123.631C556.136,129.877,548.487,133,539.534,133C530.49,133,522.805,129.865,516.483,123.596C510.161,117.327,507,109.807,507,101.035C507,92.216,510.161,84.673,516.483,78.404C522.805,72.135,530.49,69,539.534,69C548.487,69,556.136,72.123,562.481,78.37C568.827,84.616,572,92.17,572,101.035Z" style="fill-rule: nonzero; stroke: none; fill: rgb(122, 154, 61); fill-opacity: 1;"/></g></g></g><g id="shape-9eb9e3a2-c7df-8095-8001-bf3e054a7a16" rx="0" ry="0" style="display: inline; fill: rgb(255, 255, 255);"><g id="shape-9eb9e3a2-c7df-8095-8001-bf3e054b30ae"><g id="fills-9eb9e3a2-c7df-8095-8001-bf3e054b30ae"><path rx="0" ry="0" d="M619.357,45L619.357,126.176L642.076,126.176C643.5,126.176,644.509,126.443,645.106,126.974C645.703,127.505,646,128.211,646,129.089C646,129.921,645.703,130.614,645.106,131.168C644.509,131.724,643.5,132,642.076,132L590.855,132C589.479,132,588.491,131.724,587.895,131.168C587.297,130.614,587,129.921,587,129.089C587,128.211,587.297,127.505,587.895,126.974C588.491,126.443,589.479,126.176,590.855,126.176L613.574,126.176L613.574,50.893L596.913,50.893C595.537,50.893,594.539,50.615,593.919,50.061C593.299,49.505,592.989,48.789,592.989,47.911C592.989,47.079,593.288,46.386,593.884,45.832C594.48,45.278,595.491,45,596.913,45Z" style="fill-rule: nonzero; stroke: none; fill: rgb(255, 255, 255); fill-opacity: 1;"/></g></g></g><g id="shape-9eb9e3a2-c7df-8095-8001-bf3e054b5c83" rx="0" ry="0" style="display: inline; fill: rgb(255, 255, 255);"><g id="shape-9eb9e3a2-c7df-8095-8001-bf3e054c8211"><g id="fills-9eb9e3a2-c7df-8095-8001-bf3e054c8211"><path rx="0" ry="0" d="M711.383,101.93C708.654,101.15,705.765,100.576,702.713,100.208C699.662,99.841,696.448,99.657,693.072,99.657C684.61,99.657,677.999,101.472,673.236,105.099C669.629,107.809,667.825,111.047,667.825,114.813C667.825,118.303,669.201,121.243,671.953,123.631C674.703,126.019,678.715,127.213,683.986,127.213C689.026,127.213,693.709,126.214,698.031,124.216C702.355,122.219,706.806,119.037,711.383,114.675ZM711.383,130.727L711.383,122.39C702.922,129.463,693.882,133,684.264,133C677.282,133,671.825,131.244,667.895,127.73C663.964,124.216,662,119.91,662,114.813C662,109.21,664.59,104.318,669.768,100.139C674.947,95.96,682.507,93.87,692.448,93.87C695.129,93.87,698.043,94.042,701.188,94.387C704.332,94.732,707.731,95.27,711.383,96.005L711.383,86.636C711.383,83.467,709.903,80.712,706.945,78.37C703.984,76.028,699.546,74.856,693.627,74.856C689.096,74.856,682.738,76.165,674.553,78.783C673.074,79.243,672.126,79.472,671.71,79.472C670.971,79.472,670.334,79.197,669.802,78.645C669.271,78.094,669.005,77.405,669.005,76.579C669.005,75.798,669.236,75.178,669.698,74.718C670.345,74.029,672.958,73.088,677.536,71.894C684.749,69.965,690.205,69,693.905,69C701.257,69,706.991,70.804,711.105,74.408C715.22,78.014,717.279,82.09,717.279,86.636L717.279,124.94L725.047,124.94C726.48,124.94,727.497,125.203,728.098,125.733C728.699,126.26,729,126.961,729,127.833C729,128.659,728.699,129.348,728.098,129.9C727.497,130.451,726.48,130.727,725.047,130.727Z" style="fill-rule: nonzero; stroke: none; fill: rgb(255, 255, 255); fill-opacity: 1;"/></g></g></g><g id="shape-9eb9e3a2-c7df-8095-8001-bf3e054d2eb8" rx="0" ry="0" style="display: inline; fill: rgb(122, 154, 61); fill-opacity: 1;"><g id="shape-9eb9e3a2-c7df-8095-8001-bf3e054df8fa"><g id="fills-9eb9e3a2-c7df-8095-8001-bf3e054df8fa"><path rx="0" ry="0" d="M795.417,101.938C795.417,94.567,792.925,88.348,787.94,83.281C782.957,78.214,777.027,75.68,770.151,75.68C763.228,75.68,757.275,78.214,752.291,83.281C747.306,88.348,744.814,94.567,744.814,101.938C744.814,109.263,747.306,115.469,752.291,120.56C757.275,125.651,763.228,128.195,770.151,128.195C777.027,128.195,782.957,125.651,787.94,120.56C792.925,115.469,795.417,109.263,795.417,101.938ZM801.302,45L801.302,125.915L809.054,125.915C810.485,125.915,811.5,126.18,812.1,126.709C812.7,127.24,813,127.942,813,128.817C813,129.646,812.7,130.337,812.1,130.891C811.5,131.443,810.485,131.72,809.054,131.72L795.417,131.72L795.417,120.18C788.679,129.392,780.118,134,769.735,134C764.474,134,759.433,132.606,754.61,129.819C749.787,127.032,745.979,123.06,743.188,117.9C740.395,112.74,739,107.42,739,101.938C739,96.41,740.395,91.078,743.188,85.942C745.979,80.805,749.787,76.831,754.61,74.022C759.433,71.211,764.497,69.807,769.804,69.807C779.957,69.807,788.495,74.413,795.417,83.627L795.417,50.874L787.664,50.874C786.234,50.874,785.218,50.597,784.619,50.045C784.018,49.492,783.719,48.778,783.719,47.903C783.719,47.074,784.018,46.383,784.619,45.829C785.218,45.277,786.234,45,787.664,45Z" style="fill-rule: nonzero; stroke: none; fill: rgb(122, 154, 61); fill-opacity: 1;"/></g></g></g><g id="shape-9eb9e3a2-c7df-8095-8001-bf3e054e5ff8" rx="0" ry="0" style="display: inline; fill: rgb(122, 154, 61); fill-opacity: 1;"><g id="shape-9eb9e3a2-c7df-8095-8001-bf3e054ec4d2"><g id="fills-9eb9e3a2-c7df-8095-8001-bf3e054ec4d2"><path rx="0" ry="0" d="M876.004,96.418C874.854,90.034,871.834,84.845,866.94,80.849C862.046,76.854,856.221,74.855,849.465,74.855C842.711,74.855,836.898,76.831,832.026,80.78C827.155,84.73,824.123,89.942,822.929,96.418ZM881.863,102.275L822.859,102.275C823.871,109.76,827.006,115.788,832.269,120.358C837.53,124.929,844.043,127.213,851.809,127.213C856.129,127.213,860.655,126.501,865.388,125.077C870.121,123.654,873.982,121.77,876.969,119.428C877.842,118.739,878.6,118.394,879.244,118.394C879.979,118.394,880.622,118.681,881.173,119.256C881.725,119.83,882,120.508,882,121.289C882,122.069,881.633,122.827,880.898,123.562C878.693,125.858,874.774,128.006,869.145,130.003C863.516,132.001,857.738,133,851.809,133C841.884,133,833.601,129.751,826.96,123.252C820.321,116.753,817,108.887,817,99.656C817,91.252,820.114,84.041,826.34,78.024C832.567,72.008,840.275,69,849.465,69C858.933,69,866.722,72.088,872.833,78.265C878.944,84.443,881.955,92.446,881.863,102.275Z" style="fill-rule: nonzero; stroke: none; fill: rgb(122, 154, 61); fill-opacity: 1;"/></g></g></g><g id="shape-9eb9e3a2-c7df-8095-8001-bf3e054f17b0" rx="0" ry="0" style="font-size: 96px; white-space: pre; display: inline; fill: rgb(255, 255, 255);"><defs><rect x="15494.571" y="192.34641" width="497.53601" height="345.36865" id="ff5f347a-a5e4-80cd-8001-bf8dfce4cc03-rect9964"/></defs><g id="shape-9eb9e3a2-c7df-8095-8001-bf3e0553a988"><g id="fills-9eb9e3a2-c7df-8095-8001-bf3e0553a988"><path rx="0" ry="0" d="M322.603,103.921L274.223,103.921L264.318,128.323L278.43,128.323C280.182,128.323,281.439,128.641,282.199,129.277C282.958,129.86,283.338,130.655,283.338,131.662C283.338,132.615,282.958,133.41,282.199,134.046C281.439,134.682,280.182,135,278.43,135L250.908,135C249.156,135,247.9,134.682,247.141,134.046C246.38,133.41,246,132.615,246,131.662C246,130.655,246.38,129.86,247.141,129.277C247.9,128.641,249.156,128.323,250.908,128.323L256.605,128.323L289.123,48.677L267.387,48.677C265.633,48.677,264.376,48.385,263.617,47.803C262.858,47.167,262.478,46.345,262.478,45.338C262.478,44.332,262.858,43.537,263.617,42.954C264.376,42.318,265.633,42,267.387,42L304.461,42L340.396,128.323L346.092,128.323C347.846,128.323,349.102,128.641,349.861,129.277C350.62,129.86,351,130.655,351,131.662C351,132.615,350.62,133.41,349.861,134.046C349.102,134.682,347.846,135,346.092,135L318.66,135C316.848,135,315.562,134.682,314.803,134.046C314.044,133.41,313.664,132.615,313.664,131.662C313.664,130.655,314.044,129.86,314.803,129.277C315.562,128.641,316.848,128.323,318.66,128.323L332.684,128.323ZM319.799,97.244L299.465,48.677L296.748,48.677L277.027,97.244Z" style="font-family: &quot;Courier New&quot;;"/></g></g></g><g id="shape-9eb9e3a2-c7df-8095-8001-bf3e0553d903" rx="0" ry="0" style="word-spacing: 0px; font-family: &quot;Remora Sans W1 Light&quot;; letter-spacing: 0px; font-weight: 300; white-space: pre; display: inline; font-size: 20.9614px; fill: rgb(179, 179, 179);"><g id="shape-9eb9e3a2-c7df-8095-8001-bf3e055442b4"><g id="fills-9eb9e3a2-c7df-8095-8001-bf3e055442b4"><path rx="0" ry="0" d="M399,162L391.361,185L387.639,185L380,162L382.988,162L389.57,182.235L396.153,162Z"/></g></g><g id="shape-9eb9e3a2-c7df-8095-8001-bf3e05554fba"><g id="fills-9eb9e3a2-c7df-8095-8001-bf3e05554fba"><path rx="0" ry="0" d="M413,176.337L401.637,176.337C401.637,177.39,401.78,178.31,402.065,179.097C402.35,179.874,402.742,180.513,403.239,181.014C403.717,181.504,404.283,181.872,404.937,182.118C405.6,182.363,406.327,182.486,407.118,182.486C408.168,182.486,409.222,182.256,410.28,181.796C411.348,181.325,412.107,180.865,412.558,180.416L412.696,180.416L412.696,183.559C411.822,183.968,410.929,184.31,410.018,184.586C409.107,184.862,408.149,185,407.146,185C404.587,185,402.59,184.233,401.154,182.7C399.718,181.157,399,178.969,399,176.138C399,173.337,399.686,171.114,401.057,169.468C402.438,167.823,404.251,167,406.497,167C408.577,167,410.179,167.675,411.302,169.024C412.434,170.373,413,172.29,413,174.773ZM410.473,174.129C410.464,172.617,410.119,171.446,409.438,170.618C408.766,169.79,407.74,169.376,406.359,169.376C404.969,169.376,403.86,169.831,403.032,170.741C402.212,171.651,401.748,172.78,401.637,174.129Z"/></g></g><g id="shape-9eb9e3a2-c7df-8095-8001-bf3e0555e5b2"><g id="fills-9eb9e3a2-c7df-8095-8001-bf3e0555e5b2"><path rx="0" ry="0" d="M427,171.12L426.857,171.12C426.455,171.019,426.063,170.947,425.68,170.907C425.307,170.856,424.862,170.831,424.346,170.831C423.514,170.831,422.71,171.029,421.935,171.424C421.161,171.81,420.415,172.312,419.697,172.931L419.697,185L417,185L417,168L419.697,168L419.697,170.511C420.769,169.598,421.711,168.954,422.524,168.578C423.346,168.193,424.183,168,425.034,168C425.503,168,425.843,168.015,426.053,168.046C426.264,168.066,426.579,168.112,427,168.183Z"/></g></g><g id="shape-9eb9e3a2-c7df-8095-8001-bf3e055691de"><g id="fills-9eb9e3a2-c7df-8095-8001-bf3e055691de"><path rx="0" ry="0" d="M440,179.635C440,181.203,439.418,182.489,438.254,183.494C437.1,184.498,435.519,185,433.512,185C432.376,185,431.331,184.851,430.378,184.554C429.434,184.247,428.641,183.914,428,183.555L428,180.312L428.137,180.312C428.953,180.998,429.86,181.547,430.859,181.956C431.858,182.356,432.816,182.556,433.732,182.556C434.868,182.556,435.757,182.351,436.399,181.941C437.04,181.531,437.361,180.886,437.361,180.004C437.361,179.328,437.187,178.816,436.838,178.467C436.49,178.119,435.821,177.822,434.832,177.576C434.465,177.483,433.984,177.376,433.388,177.253C432.802,177.13,432.266,176.997,431.78,176.853C430.433,176.453,429.475,175.869,428.907,175.101C428.348,174.322,428.069,173.369,428.069,172.242C428.069,171.535,428.197,170.868,428.454,170.243C428.719,169.618,429.118,169.06,429.649,168.568C430.163,168.086,430.813,167.707,431.601,167.43C432.399,167.143,433.288,167,434.268,167C435.184,167,436.11,167.128,437.045,167.384C437.989,167.63,438.772,167.933,439.395,168.291L439.395,171.381L439.258,171.381C438.598,170.838,437.796,170.382,436.852,170.013C435.908,169.634,434.983,169.444,434.076,169.444C433.132,169.444,432.334,169.649,431.684,170.059C431.033,170.459,430.708,171.058,430.708,171.857C430.708,172.564,430.905,173.097,431.299,173.456C431.684,173.815,432.307,174.107,433.168,174.332C433.645,174.455,434.176,174.578,434.763,174.701C435.359,174.824,435.853,174.937,436.247,175.039C437.448,175.347,438.373,175.874,439.024,176.623C439.675,177.381,440,178.385,440,179.635ZZ"/></g></g><g id="shape-9eb9e3a2-c7df-8095-8001-bf3e055721ac"><g id="fills-9eb9e3a2-c7df-8095-8001-bf3e055721ac"><path rx="0" ry="0" d="M457,185L454,185L454,161L457,161Z"/></g></g><g id="shape-9eb9e3a2-c7df-8095-8001-bf3e0557c971"><g id="fills-9eb9e3a2-c7df-8095-8001-bf3e0557c971"><path rx="0" ry="0" d="M475,176.337L463.637,176.337C463.637,177.39,463.78,178.31,464.065,179.097C464.35,179.874,464.742,180.513,465.239,181.014C465.717,181.504,466.283,181.872,466.937,182.118C467.6,182.363,468.327,182.486,469.118,182.486C470.168,182.486,471.222,182.256,472.28,181.796C473.348,181.325,474.107,180.865,474.558,180.416L474.696,180.416L474.696,183.559C473.822,183.968,472.929,184.31,472.018,184.586C471.107,184.862,470.149,185,469.146,185C466.587,185,464.59,184.233,463.154,182.7C461.718,181.157,461,178.969,461,176.138C461,173.337,461.686,171.114,463.057,169.468C464.438,167.823,466.251,167,468.497,167C470.577,167,472.179,167.675,473.302,169.024C474.434,170.373,475,172.29,475,174.773ZM472.473,174.129C472.464,172.617,472.119,171.446,471.438,170.618C470.766,169.79,469.74,169.376,468.359,169.376C466.969,169.376,465.86,169.831,465.032,170.741C464.212,171.651,463.748,172.78,463.637,174.129Z"/></g></g><g id="shape-9eb9e3a2-c7df-8095-8001-bf3e05586d3f"><g id="fills-9eb9e3a2-c7df-8095-8001-bf3e05586d3f"><path rx="0" ry="0" d="M502,185L499.383,185L499.383,175.028C499.383,174.223,499.342,173.47,499.258,172.77C499.175,172.059,499.021,171.505,498.799,171.108C498.567,170.669,498.233,170.345,497.797,170.136C497.36,169.916,496.794,169.807,496.098,169.807C495.384,169.807,494.637,170.005,493.858,170.402C493.078,170.8,492.331,171.307,491.617,171.923L491.617,185L489,185L489,167.486L491.617,167.486L491.617,169.43C492.433,168.667,493.278,168.071,494.15,167.643C495.022,167.214,495.918,167,496.836,167C498.516,167,499.796,167.57,500.678,168.709C501.559,169.848,502,171.49,502,173.632Z"/></g></g><g id="shape-9eb9e3a2-c7df-8095-8001-bf3e0559351d"><g id="fills-9eb9e3a2-c7df-8095-8001-bf3e0559351d"><path rx="0" ry="0" d="M520,185.514L517.383,185.514L517.383,183.57C516.502,184.354,515.657,184.955,514.85,185.373C514.043,185.791,513.152,186,512.178,186C510.545,186,509.273,185.441,508.364,184.322C507.455,183.193,507,181.542,507,179.368L507,168L509.617,168L509.617,177.972C509.617,178.861,509.654,179.624,509.728,180.261C509.802,180.889,509.96,181.427,510.201,181.876C510.452,182.336,510.777,182.671,511.176,182.88C511.575,183.089,512.155,183.193,512.915,183.193C513.593,183.193,514.33,182.995,515.128,182.598C515.936,182.2,516.687,181.693,517.383,181.077L517.383,168L520,168Z"/></g></g><g id="shape-9eb9e3a2-c7df-8095-8001-bf3e0559cbb0"><g id="fills-9eb9e3a2-c7df-8095-8001-bf3e0559cbb0"><path rx="0" ry="0" d="M548,185L545.347,185L545.347,175.028C545.347,174.275,545.314,173.549,545.248,172.848C545.192,172.148,545.065,171.589,544.867,171.171C544.651,170.721,544.341,170.382,543.936,170.152C543.532,169.922,542.948,169.807,542.186,169.807C541.443,169.807,540.7,170.016,539.957,170.434C539.214,170.841,538.471,171.364,537.727,172.002C537.756,172.242,537.779,172.524,537.798,172.848C537.817,173.162,537.826,173.476,537.826,173.789L537.826,185L535.174,185L535.174,175.028C535.174,174.254,535.141,173.523,535.075,172.833C535.018,172.132,534.891,171.573,534.694,171.155C534.478,170.706,534.167,170.371,533.763,170.152C533.358,169.922,532.775,169.807,532.013,169.807C531.289,169.807,530.56,170.005,529.826,170.402C529.101,170.8,528.377,171.307,527.653,171.923L527.653,185L525,185L525,167.486L527.653,167.486L527.653,169.43C528.481,168.667,529.304,168.071,530.122,167.643C530.95,167.214,531.829,167,532.761,167C533.833,167,534.741,167.251,535.484,167.753C536.237,168.254,536.796,168.949,537.163,169.838C538.236,168.834,539.214,168.113,540.098,167.674C540.982,167.225,541.928,167,542.934,167C544.665,167,545.94,167.585,546.758,168.756C547.586,169.916,548,171.542,548,173.632Z"/></g></g><g id="shape-9eb9e3a2-c7df-8095-8001-bf3e055afbcb"><g id="fills-9eb9e3a2-c7df-8095-8001-bf3e055afbcb"><path rx="0" ry="0" d="M566,176.369L554.637,176.369C554.637,177.418,554.78,178.335,555.065,179.119C555.35,179.893,555.742,180.529,556.239,181.028C556.717,181.517,557.283,181.884,557.937,182.128C558.6,182.373,559.327,182.495,560.118,182.495C561.168,182.495,562.222,182.266,563.28,181.807C564.348,181.339,565.107,180.881,565.558,180.432L565.696,180.432L565.696,183.564C564.822,183.971,563.929,184.313,563.018,184.588C562.107,184.863,561.149,185,560.146,185C557.587,185,555.59,184.236,554.154,182.709C552.718,181.171,552,178.991,552,176.17C552,173.38,552.686,171.165,554.057,169.525C555.438,167.886,557.251,167.066,559.497,167.066C561.577,167.066,563.179,167.738,564.302,169.082C565.434,170.427,566,172.336,566,174.811ZM563.473,174.169C563.464,172.662,563.119,171.496,562.438,170.671C561.766,169.846,560.74,169.434,559.359,169.434C557.969,169.434,556.86,169.887,556.032,170.793C555.212,171.7,554.748,172.825,554.637,174.169ZM563.791,159L560.022,164.713L557.964,164.713L560.436,159Z"/></g></g><g id="shape-9eb9e3a2-c7df-8095-8001-bf3e055bada3"><g id="fills-9eb9e3a2-c7df-8095-8001-bf3e055bada3"><path rx="0" ry="0" d="M580,171.12L579.857,171.12C579.455,171.019,579.063,170.947,578.68,170.907C578.307,170.856,577.862,170.831,577.346,170.831C576.514,170.831,575.71,171.029,574.935,171.424C574.161,171.81,573.415,172.312,572.697,172.931L572.697,185L570,185L570,168L572.697,168L572.697,170.511C573.769,169.598,574.711,168.954,575.524,168.578C576.346,168.193,577.183,168,578.034,168C578.503,168,578.843,168.015,579.053,168.046C579.264,168.066,579.579,168.112,580,168.183Z"/></g></g><g id="shape-9eb9e3a2-c7df-8095-8001-bf3e055bdac7"><g id="fills-9eb9e3a2-c7df-8095-8001-bf3e055bdac7"><path rx="0" ry="0" d="M585,164.992L582,164.992L582,162L585,162ZM584.83,185L582.17,185L582.17,167.861L584.83,167.861Z"/></g></g><g id="shape-9eb9e3a2-c7df-8095-8001-bf3e055ce9d0"><g id="fills-9eb9e3a2-c7df-8095-8001-bf3e055ce9d0"><path rx="0" ry="0" d="M603,191L600.322,191L600.322,182.723C599.496,183.492,598.675,184.067,597.859,184.446C597.042,184.815,596.159,185,595.21,185C593.32,185,591.81,184.215,590.681,182.646C589.56,181.067,589,178.892,589,176.123C589,174.646,589.195,173.344,589.584,172.215C589.983,171.077,590.505,170.123,591.151,169.354C591.777,168.605,592.513,168.026,593.358,167.615C594.203,167.205,595.096,167,596.036,167C596.89,167,597.645,167.103,598.3,167.308C598.965,167.513,599.639,167.815,600.322,168.215L600.493,167.477L603,167.477ZM600.322,180.292L600.322,170.569C599.582,170.21,598.927,169.959,598.357,169.815C597.787,169.672,597.17,169.6,596.506,169.6C594.958,169.6,593.781,170.169,592.974,171.308C592.167,172.436,591.763,173.995,591.763,175.985C591.763,177.995,592.086,179.544,592.731,180.631C593.387,181.708,594.412,182.246,595.808,182.246C596.586,182.246,597.365,182.067,598.143,181.708C598.922,181.338,599.648,180.867,600.322,180.292ZZ"/></g></g><g id="shape-9eb9e3a2-c7df-8095-8001-bf3e055dd96b"><g id="fills-9eb9e3a2-c7df-8095-8001-bf3e055dd96b"><path rx="0" ry="0" d="M620,185.514L617.383,185.514L617.383,183.57C616.502,184.354,615.657,184.955,614.85,185.373C614.043,185.791,613.152,186,612.178,186C610.545,186,609.273,185.441,608.364,184.322C607.455,183.193,607,181.542,607,179.368L607,168L609.617,168L609.617,177.972C609.617,178.861,609.654,179.624,609.728,180.261C609.802,180.889,609.96,181.427,610.201,181.876C610.452,182.336,610.777,182.671,611.176,182.88C611.575,183.089,612.155,183.193,612.915,183.193C613.593,183.193,614.33,182.995,615.128,182.598C615.936,182.2,616.687,181.693,617.383,181.077L617.383,168L620,168Z"/></g></g><g id="shape-9eb9e3a2-c7df-8095-8001-bf3e055ed19c"><g id="fills-9eb9e3a2-c7df-8095-8001-bf3e055ed19c"><path rx="0" ry="0" d="M638,176.337L626.637,176.337C626.637,177.39,626.78,178.31,627.065,179.097C627.35,179.874,627.742,180.513,628.239,181.014C628.717,181.504,629.283,181.872,629.937,182.118C630.6,182.363,631.327,182.486,632.118,182.486C633.168,182.486,634.222,182.256,635.28,181.796C636.348,181.325,637.107,180.865,637.558,180.416L637.696,180.416L637.696,183.559C636.822,183.968,635.929,184.31,635.018,184.586C634.107,184.862,633.149,185,632.146,185C629.587,185,627.59,184.233,626.154,182.7C624.718,181.157,624,178.969,624,176.138C624,173.337,624.686,171.114,626.057,169.468C627.438,167.823,629.251,167,631.497,167C633.577,167,635.179,167.675,636.302,169.024C637.434,170.373,638,172.29,638,174.773ZM635.473,174.129C635.464,172.617,635.119,171.446,634.438,170.618C633.766,169.79,632.74,169.376,631.359,169.376C629.969,169.376,628.86,169.831,628.032,170.741C627.212,171.651,626.748,172.78,626.637,174.129Z"/></g></g><g id="shape-9eb9e3a2-c7df-8095-8001-bf3e055fc5bb"><g id="fills-9eb9e3a2-c7df-8095-8001-bf3e055fc5bb"><path rx="0" ry="0" d="M665,176.369L653.637,176.369C653.637,177.418,653.78,178.335,654.065,179.119C654.35,179.893,654.742,180.529,655.239,181.028C655.717,181.517,656.283,181.884,656.937,182.128C657.6,182.373,658.327,182.495,659.118,182.495C660.168,182.495,661.222,182.266,662.28,181.807C663.348,181.339,664.107,180.881,664.558,180.432L664.696,180.432L664.696,183.564C663.822,183.971,662.929,184.313,662.018,184.588C661.106,184.863,660.149,185,659.146,185C656.587,185,654.59,184.236,653.154,182.709C651.718,181.171,651,178.991,651,176.17C651,173.38,651.686,171.165,653.057,169.525C654.438,167.886,656.251,167.066,658.497,167.066C660.577,167.066,662.179,167.738,663.302,169.082C664.434,170.427,665,172.336,665,174.811ZM662.473,174.169C662.464,172.662,662.119,171.496,661.438,170.671C660.766,169.846,659.74,169.434,658.359,169.434C656.969,169.434,655.86,169.887,655.032,170.793C654.212,171.7,653.748,172.825,653.637,174.169ZM662.791,159L659.022,164.713L656.964,164.713L659.436,159Z"/></g></g><g id="shape-9eb9e3a2-c7df-8095-8001-bf3e05609ffb"><g id="fills-9eb9e3a2-c7df-8095-8001-bf3e05609ffb"><path rx="0" ry="0" d="M681,183.536C680.101,183.998,679.245,184.358,678.432,184.615C677.628,184.872,676.772,185,675.863,185C674.706,185,673.644,184.82,672.678,184.461C671.712,184.091,670.884,183.536,670.195,182.796C669.497,182.057,668.957,181.122,668.574,179.991C668.191,178.861,668,177.541,668,176.031C668,173.216,668.717,171.007,670.152,169.404C671.597,167.801,673.5,167,675.863,167C676.781,167,677.681,167.139,678.561,167.416C679.45,167.693,680.263,168.033,681,168.433L681,171.654L680.857,171.654C680.034,170.966,679.182,170.437,678.302,170.067C677.432,169.697,676.581,169.512,675.748,169.512C674.218,169.512,673.008,170.067,672.118,171.176C671.238,172.276,670.798,173.894,670.798,176.031C670.798,178.106,671.228,179.704,672.089,180.824C672.96,181.933,674.18,182.488,675.748,182.488C676.294,182.488,676.848,182.411,677.413,182.257C677.977,182.103,678.484,181.902,678.934,181.656C679.326,181.44,679.694,181.214,680.039,180.978C680.383,180.731,680.656,180.521,680.857,180.346L681,180.346Z"/></g></g><g id="shape-9eb9e3a2-c7df-8095-8001-bf3e05613491"><g id="fills-9eb9e3a2-c7df-8095-8001-bf3e05613491"><path rx="0" ry="0" d="M697,176.008C697,178.786,696.366,180.98,695.099,182.588C693.832,184.196,692.134,185,690.007,185C687.861,185,686.155,184.196,684.887,182.588C683.629,180.98,683,178.786,683,176.008C683,173.229,683.629,171.036,684.887,169.427C686.155,167.809,687.861,167,690.007,167C692.134,167,693.832,167.809,695.099,169.427C696.366,171.036,697,173.229,697,176.008ZZM694.366,176.008C694.366,173.799,693.981,172.16,693.211,171.092C692.442,170.013,691.374,169.473,690.007,169.473C688.622,169.473,687.544,170.013,686.775,171.092C686.015,172.16,685.634,173.799,685.634,176.008C685.634,178.145,686.019,179.768,686.789,180.878C687.558,181.977,688.631,182.527,690.007,182.527C691.365,182.527,692.428,181.982,693.198,180.893C693.976,179.794,694.366,178.165,694.366,176.008ZZ"/></g></g><g id="shape-9eb9e3a2-c7df-8095-8001-bf3e0561567a"><g id="fills-9eb9e3a2-c7df-8095-8001-bf3e0561567a"><path rx="0" ry="0" d="M710,176L701,176L701,173L710,173Z"/></g></g><g id="shape-9eb9e3a2-c7df-8095-8001-bf3e0561f860"><g id="fills-9eb9e3a2-c7df-8095-8001-bf3e0561f860"><path rx="0" ry="0" d="M724,171.12L723.857,171.12C723.455,171.019,723.063,170.947,722.68,170.907C722.307,170.856,721.862,170.831,721.346,170.831C720.514,170.831,719.71,171.029,718.935,171.424C718.161,171.81,717.415,172.312,716.697,172.931L716.697,185L714,185L714,168L716.697,168L716.697,170.511C717.769,169.598,718.711,168.954,719.524,168.578C720.346,168.193,721.183,168,722.034,168C722.503,168,722.843,168.015,723.053,168.046C723.264,168.066,723.579,168.112,724,168.183Z"/></g></g><g id="shape-9eb9e3a2-c7df-8095-8001-bf3e0562a4b0"><g id="fills-9eb9e3a2-c7df-8095-8001-bf3e0562a4b0"><path rx="0" ry="0" d="M740,176.337L728.637,176.337C728.637,177.39,728.78,178.31,729.065,179.097C729.35,179.874,729.742,180.513,730.239,181.014C730.717,181.504,731.283,181.872,731.937,182.118C732.6,182.363,733.327,182.486,734.118,182.486C735.168,182.486,736.222,182.256,737.28,181.796C738.348,181.325,739.107,180.865,739.558,180.416L739.696,180.416L739.696,183.559C738.822,183.968,737.929,184.31,737.018,184.586C736.107,184.862,735.149,185,734.146,185C731.587,185,729.59,184.233,728.154,182.7C726.718,181.157,726,178.969,726,176.138C726,173.337,726.686,171.114,728.057,169.468C729.438,167.823,731.251,167,733.497,167C735.577,167,737.179,167.675,738.302,169.024C739.434,170.373,740,172.29,740,174.773ZM737.473,174.129C737.464,172.617,737.119,171.446,736.438,170.618C735.766,169.79,734.74,169.376,733.359,169.376C731.969,169.376,730.86,169.831,730.032,170.741C729.212,171.651,728.748,172.78,728.637,174.129Z"/></g></g><g id="shape-9eb9e3a2-c7df-8095-8001-bf3e056378c7"><g id="fills-9eb9e3a2-c7df-8095-8001-bf3e056378c7"><path rx="0" ry="0" d="M755,179.635C755,181.203,754.418,182.489,753.254,183.494C752.1,184.498,750.519,185,748.512,185C747.376,185,746.331,184.851,745.378,184.554C744.434,184.247,743.641,183.914,743,183.555L743,180.312L743.137,180.312C743.953,180.998,744.86,181.547,745.859,181.956C746.858,182.356,747.816,182.556,748.732,182.556C749.868,182.556,750.757,182.351,751.399,181.941C752.04,181.531,752.361,180.886,752.361,180.004C752.361,179.328,752.187,178.816,751.838,178.467C751.49,178.119,750.821,177.822,749.832,177.576C749.465,177.483,748.984,177.376,748.388,177.253C747.802,177.13,747.266,176.997,746.78,176.853C745.433,176.453,744.475,175.869,743.907,175.101C743.348,174.322,743.069,173.369,743.069,172.242C743.069,171.535,743.197,170.868,743.454,170.243C743.719,169.618,744.118,169.06,744.649,168.568C745.163,168.086,745.813,167.707,746.601,167.43C747.399,167.143,748.288,167,749.268,167C750.184,167,751.11,167.128,752.045,167.384C752.989,167.63,753.772,167.933,754.395,168.291L754.395,171.381L754.258,171.381C753.598,170.838,752.796,170.382,751.852,170.013C750.908,169.634,749.983,169.444,749.076,169.444C748.132,169.444,747.334,169.649,746.684,170.059C746.033,170.459,745.708,171.058,745.708,171.857C745.708,172.564,745.905,173.097,746.299,173.456C746.684,173.815,747.307,174.107,748.168,174.332C748.645,174.455,749.176,174.578,749.763,174.701C750.359,174.824,750.853,174.937,751.247,175.039C752.448,175.347,753.373,175.874,754.024,176.623C754.675,177.381,755,178.385,755,179.635ZZ"/></g></g><g id="shape-9eb9e3a2-c7df-8095-8001-bf3e056428f7"><g id="fills-9eb9e3a2-c7df-8095-8001-bf3e056428f7"><path rx="0" ry="0" d="M772,175.862C772,177.256,771.815,178.533,771.445,179.692C771.074,180.841,770.552,181.815,769.878,182.615C769.251,183.374,768.511,183.964,767.656,184.385C766.811,184.795,765.914,185,764.964,185C764.138,185,763.388,184.903,762.714,184.708C762.05,184.513,761.371,184.21,760.678,183.8L760.678,191L758,191L758,167.477L760.678,167.477L760.678,169.277C761.39,168.631,762.187,168.092,763.07,167.662C763.963,167.221,764.912,167,765.919,167C767.837,167,769.327,167.785,770.391,169.354C771.464,170.913,772,173.082,772,175.862ZZM769.237,175.938C769.237,173.867,768.909,172.318,768.254,171.292C767.599,170.267,766.593,169.754,765.235,169.754C764.466,169.754,763.692,169.933,762.914,170.292C762.135,170.651,761.39,171.123,760.678,171.708L760.678,181.446C761.437,181.815,762.087,182.067,762.629,182.2C763.179,182.333,763.801,182.4,764.494,182.4C765.985,182.4,767.148,181.856,767.984,180.769C768.819,179.682,769.237,178.072,769.237,175.938ZZ"/></g></g><g id="shape-9eb9e3a2-c7df-8095-8001-bf3e0564d14e"><g id="fills-9eb9e3a2-c7df-8095-8001-bf3e0564d14e"><path rx="0" ry="0" d="M789,176.008C789,178.786,788.366,180.98,787.099,182.588C785.832,184.196,784.134,185,782.007,185C779.861,185,778.155,184.196,776.887,182.588C775.629,180.98,775,178.786,775,176.008C775,173.229,775.629,171.036,776.887,169.427C778.155,167.809,779.861,167,782.007,167C784.134,167,785.832,167.809,787.099,169.427C788.366,171.036,789,173.229,789,176.008ZZM786.366,176.008C786.366,173.799,785.981,172.16,785.211,171.092C784.442,170.013,783.374,169.473,782.007,169.473C780.622,169.473,779.544,170.013,778.775,171.092C778.015,172.16,777.634,173.799,777.634,176.008C777.634,178.145,778.019,179.768,778.789,180.878C779.558,181.977,780.631,182.527,782.007,182.527C783.365,182.527,784.428,181.982,785.198,180.893C785.976,179.794,786.366,178.165,786.366,176.008ZZ"/></g></g><g id="shape-9eb9e3a2-c7df-8095-8001-bf3e056575ce"><g id="fills-9eb9e3a2-c7df-8095-8001-bf3e056575ce"><path rx="0" ry="0" d="M806,185L803.383,185L803.383,175.028C803.383,174.223,803.342,173.47,803.258,172.77C803.175,172.059,803.021,171.505,802.799,171.108C802.567,170.669,802.233,170.345,801.797,170.136C801.36,169.916,800.794,169.807,800.099,169.807C799.384,169.807,798.637,170.005,797.858,170.402C797.078,170.8,796.331,171.307,795.617,171.923L795.617,185L793,185L793,167.486L795.617,167.486L795.617,169.43C796.433,168.667,797.278,168.071,798.15,167.643C799.022,167.214,799.918,167,800.836,167C802.516,167,803.796,167.57,804.678,168.709C805.559,169.848,806,171.49,806,173.632Z"/></g></g><g id="shape-9eb9e3a2-c7df-8095-8001-bf3e05666cef"><g id="fills-9eb9e3a2-c7df-8095-8001-bf3e05666cef"><path rx="0" ry="0" d="M822,179.635C822,181.203,821.418,182.489,820.254,183.494C819.1,184.498,817.519,185,815.512,185C814.376,185,813.331,184.851,812.378,184.554C811.434,184.247,810.641,183.914,810,183.555L810,180.312L810.137,180.312C810.953,180.998,811.86,181.547,812.859,181.956C813.858,182.356,814.816,182.556,815.732,182.556C816.868,182.556,817.757,182.351,818.399,181.941C819.04,181.531,819.361,180.886,819.361,180.004C819.361,179.328,819.187,178.816,818.838,178.467C818.49,178.119,817.821,177.822,816.832,177.576C816.465,177.483,815.984,177.376,815.388,177.253C814.802,177.13,814.266,176.997,813.78,176.853C812.433,176.453,811.475,175.869,810.907,175.101C810.348,174.322,810.069,173.369,810.069,172.242C810.069,171.535,810.197,170.868,810.454,170.243C810.719,169.618,811.118,169.06,811.649,168.568C812.163,168.086,812.813,167.707,813.601,167.43C814.399,167.143,815.288,167,816.268,167C817.184,167,818.11,167.128,819.045,167.384C819.989,167.63,820.772,167.933,821.395,168.291L821.395,171.381L821.258,171.381C820.598,170.838,819.796,170.382,818.852,170.013C817.908,169.634,816.983,169.444,816.076,169.444C815.132,169.444,814.334,169.649,813.684,170.059C813.033,170.459,812.708,171.058,812.708,171.857C812.708,172.564,812.905,173.097,813.299,173.456C813.684,173.815,814.307,174.107,815.168,174.332C815.645,174.455,816.176,174.578,816.763,174.701C817.359,174.824,817.853,174.937,818.247,175.039C819.448,175.347,820.373,175.874,821.024,176.623C821.675,177.381,822,178.385,822,179.635ZZ"/></g></g><g id="shape-9eb9e3a2-c7df-8095-8001-bf3e05676782"><g id="fills-9eb9e3a2-c7df-8095-8001-bf3e05676782"><path rx="0" ry="0" d="M838,184.525L835.438,184.525L835.438,182.702C835.21,182.876,834.9,183.121,834.507,183.437C834.123,183.744,833.749,183.989,833.384,184.173C832.954,184.408,832.461,184.602,831.904,184.755C831.347,184.918,830.694,185,829.945,185C828.566,185,827.397,184.489,826.438,183.468C825.479,182.447,825,181.145,825,179.562C825,178.265,825.247,177.218,825.74,176.421C826.242,175.614,826.954,174.981,827.877,174.522C828.808,174.062,829.927,173.751,831.233,173.587C832.539,173.424,833.941,173.301,835.438,173.22L835.438,172.775C835.438,172.122,835.333,171.58,835.123,171.151C834.922,170.723,834.63,170.386,834.247,170.14C833.881,169.906,833.443,169.747,832.932,169.666C832.42,169.584,831.886,169.543,831.329,169.543C830.653,169.543,829.9,169.645,829.069,169.849C828.237,170.043,827.379,170.329,826.493,170.707L826.356,170.707L826.356,167.781C826.858,167.628,827.584,167.46,828.534,167.276C829.484,167.092,830.42,167,831.342,167C832.42,167,833.356,167.102,834.151,167.306C834.954,167.5,835.648,167.837,836.233,168.317C836.808,168.787,837.247,169.395,837.548,170.14C837.849,170.886,838,171.81,838,172.913ZM835.438,180.312L835.438,175.548C834.653,175.599,833.726,175.676,832.658,175.778C831.598,175.88,830.758,176.028,830.137,176.222C829.397,176.457,828.799,176.825,828.342,177.325C827.886,177.815,827.658,178.494,827.658,179.363C827.658,180.343,827.922,181.083,828.452,181.584C828.982,182.074,829.79,182.319,830.877,182.319C831.781,182.319,832.607,182.125,833.356,181.737C834.105,181.339,834.799,180.864,835.438,180.312ZZ"/></g></g><g id="shape-9eb9e3a2-c7df-8095-8001-bf3e056896c9"><g id="fills-9eb9e3a2-c7df-8095-8001-bf3e056896c9"><path rx="0" ry="0" d="M857,175.957C857,177.368,856.81,178.638,856.43,179.767C856.06,180.897,855.557,181.844,854.921,182.611C854.247,183.407,853.506,184.007,852.699,184.41C851.892,184.803,851.004,185,850.036,185C849.134,185,848.346,184.884,847.671,184.652C846.997,184.43,846.333,184.128,845.678,183.745L845.507,184.531L843,184.531L843,161L845.678,161L845.678,169.408C846.428,168.753,847.225,168.219,848.07,167.805C848.915,167.382,849.865,167.17,850.919,167.17C852.799,167.17,854.28,167.936,855.362,169.469C856.454,171.001,857,173.164,857,175.957ZZM854.237,176.032C854.237,174.016,853.924,172.488,853.297,171.45C852.67,170.401,851.659,169.877,850.263,169.877C849.485,169.877,848.697,170.059,847.899,170.422C847.102,170.774,846.361,171.233,845.678,171.798L845.678,181.476C846.437,181.839,847.087,182.091,847.629,182.233C848.179,182.374,848.801,182.444,849.494,182.444C850.976,182.444,852.134,181.93,852.969,180.902C853.815,179.863,854.237,178.24,854.237,176.032ZZ"/></g></g><g id="shape-9eb9e3a2-c7df-8095-8001-bf3e0568cc7c"><g id="fills-9eb9e3a2-c7df-8095-8001-bf3e0568cc7c"><path rx="0" ry="0" d="M864,185L861,185L861,161L864,161Z"/></g></g><g id="shape-9eb9e3a2-c7df-8095-8001-bf3e0569aeb4"><g id="fills-9eb9e3a2-c7df-8095-8001-bf3e0569aeb4"><path rx="0" ry="0" d="M882,176.337L870.637,176.337C870.637,177.39,870.78,178.31,871.065,179.097C871.35,179.874,871.742,180.513,872.239,181.014C872.717,181.504,873.283,181.872,873.937,182.118C874.6,182.363,875.327,182.486,876.118,182.486C877.168,182.486,878.222,182.256,879.28,181.796C880.348,181.325,881.107,180.865,881.558,180.416L881.696,180.416L881.696,183.559C880.822,183.968,879.929,184.31,879.018,184.586C878.106,184.862,877.149,185,876.146,185C873.587,185,871.59,184.233,870.154,182.7C868.718,181.157,868,178.969,868,176.138C868,173.337,868.686,171.114,870.057,169.468C871.438,167.823,873.251,167,875.497,167C877.577,167,879.179,167.675,880.302,169.024C881.434,170.373,882,172.29,882,174.773ZM879.473,174.129C879.464,172.617,879.119,171.446,878.438,170.618C877.766,169.79,876.74,169.376,875.359,169.376C873.969,169.376,872.86,169.831,872.032,170.741C871.212,171.651,870.748,172.78,870.637,174.129Z"/></g></g></g></g></g></g></svg>