<svg xmlns:xlink="http://www.w3.org/1999/xlink" width="335.5" xmlns="http://www.w3.org/2000/svg" height="335.5" id="screenshot-9eb9e3a2-c7df-8095-8001-bf45518bd054" viewBox="-3 -3 335.5 335.5" style="-webkit-print-color-adjust: exact;" fill="none" version="1.1"><g id="shape-9eb9e3a2-c7df-8095-8001-bf45518bd054" rx="0" ry="0"><g id="shape-9eb9e3a2-c7df-8095-8001-bf4481d5266c"><g id="fills-9eb9e3a2-c7df-8095-8001-bf4481d5266c"><rect rx="0" ry="0" x="0" y="0" transform="matrix(1,0,0,1,0,0)" width="55" height="55" style="fill: rgb(31, 36, 28); fill-opacity: 0.15;"/></g><g id="strokes-9eb9e3a2-c7df-8095-8001-bf4481d5266c"><g class="stroke-shape"><rect rx="0" ry="0" x="0" y="0" transform="matrix(1,0,0,1,0,0)" width="55" height="55" style="fill: none; stroke-width: 3; stroke: rgb(255, 255, 255); stroke-opacity: 1;"/></g></g></g><g id="shape-9eb9e3a2-c7df-8095-8001-bf44ba8e6e91"><g id="fills-9eb9e3a2-c7df-8095-8001-bf44ba8e6e91"><rect rx="0" ry="0" x="0" y="110.99999999999999" transform="matrix(1,0,0,1,0,0)" width="55" height="54.999999999999986" style="fill: rgb(31, 36, 28); fill-opacity: 0.3;"/></g><g id="strokes-9eb9e3a2-c7df-8095-8001-bf44ba8e6e91"><g class="stroke-shape"><rect rx="0" ry="0" x="0" y="110.99999999999999" transform="matrix(1,0,0,1,0,0)" width="55" height="54.999999999999986" style="fill: none; stroke-width: 6; stroke: rgb(255, 255, 255); stroke-opacity: 1;"/></g></g></g><g id="shape-9eb9e3a2-c7df-8095-8001-bf44b4bfe6c0"><g id="fills-9eb9e3a2-c7df-8095-8001-bf44b4bfe6c0"><rect rx="0" ry="0" x="110.99999999999999" y="0" transform="matrix(1,0,0,1,0,0)" width="54.999999999999986" height="55" style="fill: rgb(31, 36, 28); fill-opacity: 0.3;"/></g><g id="strokes-9eb9e3a2-c7df-8095-8001-bf44b4bfe6c0"><g class="stroke-shape"><rect rx="0" ry="0" x="110.99999999999999" y="0" transform="matrix(1,0,0,1,0,0)" width="54.999999999999986" height="55" style="fill: none; stroke-width: 6; stroke: rgb(255, 255, 255); stroke-opacity: 1;"/></g></g></g><g id="shape-9eb9e3a2-c7df-8095-8001-bf4494d345d7"><g id="fills-9eb9e3a2-c7df-8095-8001-bf4494d345d7"><rect rx="0" ry="0" x="56" y="0" transform="matrix(1,0,0,1,0,0)" width="55" height="55" style="fill: rgb(31, 36, 28); fill-opacity: 0.15;"/></g><g id="strokes-9eb9e3a2-c7df-8095-8001-bf4494d345d7"><g class="stroke-shape"><rect rx="0" ry="0" x="56" y="0" transform="matrix(1,0,0,1,0,0)" width="55" height="55" style="fill: none; stroke-width: 6; stroke: rgb(255, 255, 255); stroke-opacity: 1;"/></g></g></g><g id="shape-9eb9e3a2-c7df-8095-8001-bf44ba8e6e8b"><g id="fills-9eb9e3a2-c7df-8095-8001-bf44ba8e6e8b"><rect rx="0" ry="0" x="111" y="111" transform="matrix(1,0,0,1,0,0)" width="54.999999999999986" height="54.999999999999986" style="fill: rgb(31, 36, 28); fill-opacity: 0.9;"/></g><g id="strokes-9eb9e3a2-c7df-8095-8001-bf44ba8e6e8b"><g class="stroke-shape"><rect rx="0" ry="0" x="111" y="111" transform="matrix(1,0,0,1,0,0)" width="54.999999999999986" height="54.999999999999986" style="fill: none; stroke-width: 2; stroke: rgb(255, 255, 255); stroke-opacity: 1;"/></g></g></g><g id="shape-d33ed7fe-980b-803c-8001-bf475ac8c18a"><g id="fills-d33ed7fe-980b-803c-8001-bf475ac8c18a"><rect rx="0" ry="0" x="54.999999999999986" y="110.99999999999999" transform="matrix(1,0,0,1,0,0)" width="54.999999999999986" height="54.999999999999986" style="fill: rgb(31, 36, 28); fill-opacity: 0.7;"/></g><g id="strokes-d33ed7fe-980b-803c-8001-bf475ac8c18a"><g class="stroke-shape"><rect rx="0" ry="0" x="54.999999999999986" y="110.99999999999999" transform="matrix(1,0,0,1,0,0)" width="54.999999999999986" height="54.999999999999986" style="fill: none; stroke-width: 2; stroke: rgb(255, 255, 255); stroke-opacity: 1;"/></g></g></g><g id="shape-9eb9e3a2-c7df-8095-8001-bf44b4bfe6c3"><g id="fills-9eb9e3a2-c7df-8095-8001-bf44b4bfe6c3"><rect rx="0" ry="0" x="167" y="0" transform="matrix(1,0,0,1,0,0)" width="55" height="55" style="fill: rgb(31, 36, 28); fill-opacity: 0.7;"/></g><g id="strokes-9eb9e3a2-c7df-8095-8001-bf44b4bfe6c3"><g class="stroke-shape"><rect rx="0" ry="0" x="167" y="0" transform="matrix(1,0,0,1,0,0)" width="55" height="55" style="fill: none; stroke-width: 3; stroke: rgb(255, 255, 255); stroke-opacity: 1;"/></g></g></g><g id="shape-9eb9e3a2-c7df-8095-8001-bf44c5fbe4ef"><g id="fills-9eb9e3a2-c7df-8095-8001-bf44c5fbe4ef"><rect rx="0" ry="0" x="222" y="0" transform="matrix(1,0,0,1,0,0)" width="55" height="55" style="fill: rgb(31, 36, 28); fill-opacity: 0.9;"/></g><g id="strokes-9eb9e3a2-c7df-8095-8001-bf44c5fbe4ef"><g class="stroke-shape"><rect rx="0" ry="0" x="222" y="0" transform="matrix(1,0,0,1,0,0)" width="55" height="55" style="fill: none; stroke-width: 2; stroke: rgb(255, 255, 255); stroke-opacity: 1;"/></g></g></g><g id="shape-9eb9e3a2-c7df-8095-8001-bf44dd8ef054"><g id="fills-9eb9e3a2-c7df-8095-8001-bf44dd8ef054"><rect rx="0" ry="0" x="276.99999999999994" y="0" transform="matrix(1,0,0,1,0,0)" width="54.99999999999994" height="55" style="fill: rgb(31, 36, 28); fill-opacity: 1;"/></g><g id="strokes-9eb9e3a2-c7df-8095-8001-bf44dd8ef054"><g class="stroke-shape"><rect rx="0" ry="0" x="276.99999999999994" y="0" transform="matrix(1,0,0,1,0,0)" width="54.99999999999994" height="55" style="fill: none; stroke-width: 1; stroke: rgb(255, 255, 255); stroke-opacity: 1;"/></g></g></g><g id="shape-9eb9e3a2-c7df-8095-8001-bf4498fddc25"><g id="fills-9eb9e3a2-c7df-8095-8001-bf4498fddc25"><rect rx="0" ry="0" x="0" y="56" transform="matrix(1,0,0,1,0,0)" width="55" height="55" style="fill: rgb(31, 36, 28); fill-opacity: 0.15;"/></g><g id="strokes-9eb9e3a2-c7df-8095-8001-bf4498fddc25"><g class="stroke-shape"><rect rx="0" ry="0" x="0" y="56" transform="matrix(1,0,0,1,0,0)" width="55" height="55" style="fill: none; stroke-width: 3; stroke: rgb(255, 255, 255); stroke-opacity: 1;"/></g></g></g><g id="shape-9eb9e3a2-c7df-8095-8001-bf44ba8e6e8e"><g id="fills-9eb9e3a2-c7df-8095-8001-bf44ba8e6e8e"><rect rx="0" ry="0" x="167" y="111" transform="matrix(1,0,0,1,0,0)" width="55" height="54.999999999999986" style="fill: rgb(31, 36, 28); fill-opacity: 1;"/></g><g id="strokes-9eb9e3a2-c7df-8095-8001-bf44ba8e6e8e"><g class="stroke-shape"><rect rx="0" ry="0" x="167" y="111" transform="matrix(1,0,0,1,0,0)" width="55" height="54.999999999999986" style="fill: none; stroke-width: 1; stroke: rgb(255, 255, 255); stroke-opacity: 1;"/></g></g></g><g id="shape-9eb9e3a2-c7df-8095-8001-bf44a2e51d96"><g id="fills-9eb9e3a2-c7df-8095-8001-bf44a2e51d96"><rect rx="0" ry="0" x="57" y="56" transform="matrix(1,0,0,1,0,0)" width="55" height="55" style="fill: rgb(31, 36, 28); fill-opacity: 0.3;"/></g><g id="strokes-9eb9e3a2-c7df-8095-8001-bf44a2e51d96"><g class="stroke-shape"><rect rx="0" ry="0" x="57" y="56" transform="matrix(1,0,0,1,0,0)" width="55" height="55" style="fill: none; stroke-width: 3; stroke: rgb(255, 255, 255); stroke-opacity: 1;"/></g></g></g><g id="shape-9eb9e3a2-c7df-8095-8001-bf44ba8e6e90"><g id="fills-9eb9e3a2-c7df-8095-8001-bf44ba8e6e90"><rect rx="0" ry="0" x="0" y="167" transform="matrix(1,0,0,1,0,0)" width="55" height="55" style="fill: rgb(31, 36, 28); fill-opacity: 0.7;"/></g><g id="strokes-9eb9e3a2-c7df-8095-8001-bf44ba8e6e90"><g class="stroke-shape"><rect rx="0" ry="0" x="0" y="167" transform="matrix(1,0,0,1,0,0)" width="55" height="55" style="fill: none; stroke-width: 3; stroke: rgb(255, 255, 255); stroke-opacity: 1;"/></g></g></g><g id="shape-9eb9e3a2-c7df-8095-8001-bf44cf9106ef"><g id="fills-9eb9e3a2-c7df-8095-8001-bf44cf9106ef"><rect rx="0" ry="0" x="0" y="222" transform="matrix(1,0,0,1,0,0)" width="55" height="55" style="fill: rgb(31, 36, 28); fill-opacity: 0.9;"/></g><g id="strokes-9eb9e3a2-c7df-8095-8001-bf44cf9106ef"><g class="stroke-shape"><rect rx="0" ry="0" x="0" y="222" transform="matrix(1,0,0,1,0,0)" width="55" height="55" style="fill: none; stroke-width: 2; stroke: rgb(255, 255, 255); stroke-opacity: 1;"/></g></g></g><g id="shape-9eb9e3a2-c7df-8095-8001-bf44d86ad4eb"><g id="fills-9eb9e3a2-c7df-8095-8001-bf44d86ad4eb"><rect rx="0" ry="0" x="0" y="276.99999999999994" transform="matrix(1,0,0,1,0,0)" width="55" height="54.99999999999994" style="fill: rgb(31, 36, 28); fill-opacity: 1;"/></g><g id="strokes-9eb9e3a2-c7df-8095-8001-bf44d86ad4eb"><g class="stroke-shape"><rect rx="0" ry="0" x="0" y="276.99999999999994" transform="matrix(1,0,0,1,0,0)" width="55" height="54.99999999999994" style="fill: none; stroke-width: 1; stroke: rgb(255, 255, 255); stroke-opacity: 1;"/></g></g></g><g id="shape-9eb9e3a2-c7df-8095-8001-bf44b4bfe6c1"><g id="fills-9eb9e3a2-c7df-8095-8001-bf44b4bfe6c1"><rect rx="0" ry="0" x="112.99999999999999" y="56" transform="matrix(1,0,0,1,0,0)" width="54.999999999999986" height="55" style="fill: rgb(31, 36, 28); fill-opacity: 0.7;"/></g><g id="strokes-9eb9e3a2-c7df-8095-8001-bf44b4bfe6c1"><g class="stroke-shape"><rect rx="0" ry="0" x="112.99999999999999" y="56" transform="matrix(1,0,0,1,0,0)" width="54.999999999999986" height="55" style="fill: none; stroke-width: 3; stroke: rgb(255, 255, 255); stroke-opacity: 1;"/></g></g></g><g id="shape-9eb9e3a2-c7df-8095-8001-bf44b4bfe6c2"><g id="fills-9eb9e3a2-c7df-8095-8001-bf44b4bfe6c2"><rect rx="0" ry="0" x="167" y="56" transform="matrix(1,0,0,1,0,0)" width="55" height="55" style="fill: rgb(31, 36, 28); fill-opacity: 0.9;"/></g><g id="strokes-9eb9e3a2-c7df-8095-8001-bf44b4bfe6c2"><g class="stroke-shape"><rect rx="0" ry="0" x="167" y="56" transform="matrix(1,0,0,1,0,0)" width="55" height="55" style="fill: none; stroke-width: 2; stroke: rgb(255, 255, 255); stroke-opacity: 1;"/></g></g></g><g id="shape-9eb9e3a2-c7df-8095-8001-bf44c5fbe4f0"><g id="fills-9eb9e3a2-c7df-8095-8001-bf44c5fbe4f0"><rect rx="0" ry="0" x="222" y="56" transform="matrix(1,0,0,1,0,0)" width="55" height="55" style="fill: rgb(31, 36, 28); fill-opacity: 1;"/></g><g id="strokes-9eb9e3a2-c7df-8095-8001-bf44c5fbe4f0"><g class="stroke-shape"><rect rx="0" ry="0" x="222" y="56" transform="matrix(1,0,0,1,0,0)" width="55" height="55" style="fill: none; stroke-width: 1; stroke: rgb(255, 255, 255); stroke-opacity: 1;"/></g></g></g><g id="shape-9eb9e3a2-c7df-8095-8001-bf44ba8e6e8f"><g id="fills-9eb9e3a2-c7df-8095-8001-bf44ba8e6e8f"><rect rx="0" ry="0" x="56" y="167" transform="matrix(1,0,0,1,0,0)" width="55" height="55" style="fill: rgb(31, 36, 28); fill-opacity: 0.9;"/></g><g id="strokes-9eb9e3a2-c7df-8095-8001-bf44ba8e6e8f"><g class="stroke-shape"><rect rx="0" ry="0" x="56" y="167" transform="matrix(1,0,0,1,0,0)" width="55" height="55" style="fill: none; stroke-width: 2; stroke: rgb(255, 255, 255); stroke-opacity: 1;"/></g></g></g><g id="shape-9eb9e3a2-c7df-8095-8001-bf44cf9106f0"><g id="fills-9eb9e3a2-c7df-8095-8001-bf44cf9106f0"><rect rx="0" ry="0" x="56" y="222" transform="matrix(1,0,0,1,0,0)" width="55" height="55" style="fill: rgb(31, 36, 28); fill-opacity: 1;"/></g><g id="strokes-9eb9e3a2-c7df-8095-8001-bf44cf9106f0"><g class="stroke-shape"><rect rx="0" ry="0" x="56" y="222" transform="matrix(1,0,0,1,0,0)" width="55" height="55" style="fill: none; stroke-width: 1; stroke: rgb(255, 255, 255); stroke-opacity: 1;"/></g></g></g><g id="shape-9eb9e3a2-c7df-8095-8001-bf44ba8e6e8c"><g id="fills-9eb9e3a2-c7df-8095-8001-bf44ba8e6e8c"><rect rx="0" ry="0" x="111" y="167" transform="matrix(1,0,0,1,0,0)" width="54.999999999999986" height="55" style="fill: rgb(31, 36, 28); fill-opacity: 1;"/></g><g id="strokes-9eb9e3a2-c7df-8095-8001-bf44ba8e6e8c"><g class="stroke-shape"><rect rx="0" ry="0" x="111" y="167" transform="matrix(1,0,0,1,0,0)" width="54.999999999999986" height="55" style="fill: none; stroke-width: 1; stroke: rgb(255, 255, 255); stroke-opacity: 1;"/></g></g></g></g></svg>