<svg xmlns:xlink="http://www.w3.org/1999/xlink" width="330" xmlns="http://www.w3.org/2000/svg" height="330" id="screenshot-9eb9e3a2-c7df-8095-8001-bf45518bd054" viewBox="0 -0 330 330" style="-webkit-print-color-adjust: exact;" fill="none" version="1.1"><g id="shape-9eb9e3a2-c7df-8095-8001-bf45518bd054" rx="0" ry="0"><g id="shape-9eb9e3a2-c7df-8095-8001-bf4481d5266c"><g id="fills-9eb9e3a2-c7df-8095-8001-bf4481d5266c"><rect rx="0" ry="0" x="1.4901164524516753e-8" y="1.4378315427165944e-8" transform="matrix(1,0,0,1,0,0)" width="54.99999999999999" height="54.99999999999999" style="fill: rgb(31, 36, 28); fill-opacity: 0.15;"/></g><g id="strokes-9eb9e3a2-c7df-8095-8001-bf4481d5266c"><g class="inner-stroke-shape" transform="matrix(1,0,0,1,0,0)"><defs><clipPath id="inner-stroke-b7ae45ef-cd08-80e4-8001-c08125e7c4ab--0"><use href="#stroke-shape-b7ae45ef-cd08-80e4-8001-c08125e7c4ab--0"/></clipPath><rect rx="0" ry="0" x="1.4901164524516753e-8" y="1.4378315427165944e-8" width="54.99999999999999" height="54.99999999999999" id="stroke-shape-b7ae45ef-cd08-80e4-8001-c08125e7c4ab--0" style="fill: none; stroke-width: 12; stroke: rgb(255, 255, 255); stroke-opacity: 1;"/></defs><use href="#stroke-shape-b7ae45ef-cd08-80e4-8001-c08125e7c4ab--0" clip-path="url('#inner-stroke-b7ae45ef-cd08-80e4-8001-c08125e7c4ab--0')"/></g></g></g><g id="shape-9eb9e3a2-c7df-8095-8001-bf44ba8e6e91"><g id="fills-9eb9e3a2-c7df-8095-8001-bf44ba8e6e91"><rect rx="0" ry="0" x="0" y="109.99999999999999" transform="matrix(1,0,0,1,0,0)" width="55" height="54.999999999999986" style="fill: rgb(31, 36, 28); fill-opacity: 0.3;"/></g><g id="strokes-9eb9e3a2-c7df-8095-8001-bf44ba8e6e91"><g class="inner-stroke-shape" transform="matrix(1,0,0,1,0,0)"><defs><clipPath id="inner-stroke-b7ae45ef-cd08-80e4-8001-c08125e982d3--0"><use href="#stroke-shape-b7ae45ef-cd08-80e4-8001-c08125e982d3--0"/></clipPath><rect rx="0" ry="0" x="0" y="109.99999999999999" width="55" height="54.999999999999986" id="stroke-shape-b7ae45ef-cd08-80e4-8001-c08125e982d3--0" style="fill: none; stroke-width: 12; stroke: rgb(255, 255, 255); stroke-opacity: 1;"/></defs><use href="#stroke-shape-b7ae45ef-cd08-80e4-8001-c08125e982d3--0" clip-path="url('#inner-stroke-b7ae45ef-cd08-80e4-8001-c08125e982d3--0')"/></g></g></g><g id="shape-9eb9e3a2-c7df-8095-8001-bf44b4bfe6c0"><g id="fills-9eb9e3a2-c7df-8095-8001-bf44b4bfe6c0"><rect rx="0" ry="0" x="109.99999999999999" y="0" transform="matrix(1,0,0,1,0,0)" width="54.999999999999986" height="55" style="fill: rgb(31, 36, 28); fill-opacity: 0.3;"/></g><g id="strokes-9eb9e3a2-c7df-8095-8001-bf44b4bfe6c0"><g class="inner-stroke-shape" transform="matrix(1,0,0,1,0,0)"><defs><clipPath id="inner-stroke-b7ae45ef-cd08-80e4-8001-c08125eaa0b4--0"><use href="#stroke-shape-b7ae45ef-cd08-80e4-8001-c08125eaa0b4--0"/></clipPath><rect rx="0" ry="0" x="109.99999999999999" y="0" width="54.999999999999986" height="55" id="stroke-shape-b7ae45ef-cd08-80e4-8001-c08125eaa0b4--0" style="fill: none; stroke-width: 12; stroke: rgb(255, 255, 255); stroke-opacity: 1;"/></defs><use href="#stroke-shape-b7ae45ef-cd08-80e4-8001-c08125eaa0b4--0" clip-path="url('#inner-stroke-b7ae45ef-cd08-80e4-8001-c08125eaa0b4--0')"/></g></g></g><g id="shape-9eb9e3a2-c7df-8095-8001-bf4494d345d7"><g id="fills-9eb9e3a2-c7df-8095-8001-bf4494d345d7"><rect rx="0" ry="0" x="55" y="0" transform="matrix(1,0,0,1,0,0)" width="55" height="55" style="fill: rgb(31, 36, 28); fill-opacity: 0.15;"/></g><g id="strokes-9eb9e3a2-c7df-8095-8001-bf4494d345d7"><g class="inner-stroke-shape" transform="matrix(1,0,0,1,0,0)"><defs><clipPath id="inner-stroke-b7ae45ef-cd08-80e4-8001-c08125eb0d18--0"><use href="#stroke-shape-b7ae45ef-cd08-80e4-8001-c08125eb0d18--0"/></clipPath><rect rx="0" ry="0" x="55" y="0" width="55" height="55" id="stroke-shape-b7ae45ef-cd08-80e4-8001-c08125eb0d18--0" style="fill: none; stroke-width: 12; stroke: rgb(255, 255, 255); stroke-opacity: 1;"/></defs><use href="#stroke-shape-b7ae45ef-cd08-80e4-8001-c08125eb0d18--0" clip-path="url('#inner-stroke-b7ae45ef-cd08-80e4-8001-c08125eb0d18--0')"/></g></g></g><g id="shape-9eb9e3a2-c7df-8095-8001-bf44ba8e6e8b"><g id="fills-9eb9e3a2-c7df-8095-8001-bf44ba8e6e8b"><rect rx="0" ry="0" x="109.99999999999999" y="109.99999999999999" transform="matrix(1,0,0,1,0,0)" width="54.999999999999986" height="54.999999999999986" style="fill: rgb(31, 36, 28); fill-opacity: 0.9;"/></g><g id="strokes-9eb9e3a2-c7df-8095-8001-bf44ba8e6e8b"><g class="inner-stroke-shape" transform="matrix(1,0,0,1,0,0)"><defs><clipPath id="inner-stroke-b7ae45ef-cd08-80e4-8001-c08125ec0129--0"><use href="#stroke-shape-b7ae45ef-cd08-80e4-8001-c08125ec0129--0"/></clipPath><rect rx="0" ry="0" x="109.99999999999999" y="109.99999999999999" width="54.999999999999986" height="54.999999999999986" id="stroke-shape-b7ae45ef-cd08-80e4-8001-c08125ec0129--0" style="fill: none; stroke-width: 4; stroke: rgb(255, 255, 255); stroke-opacity: 1;"/></defs><use href="#stroke-shape-b7ae45ef-cd08-80e4-8001-c08125ec0129--0" clip-path="url('#inner-stroke-b7ae45ef-cd08-80e4-8001-c08125ec0129--0')"/></g></g></g><g id="shape-d33ed7fe-980b-803c-8001-bf475ac8c18a"><g id="fills-d33ed7fe-980b-803c-8001-bf475ac8c18a"><rect rx="0" ry="0" x="54.999999999999986" y="109.99999999999999" transform="matrix(1,0,0,1,0,0)" width="54.999999999999986" height="54.999999999999986" style="fill: rgb(31, 36, 28); fill-opacity: 1;"/></g><g id="strokes-d33ed7fe-980b-803c-8001-bf475ac8c18a"><g class="inner-stroke-shape" transform="matrix(1,0,0,1,0,0)"><defs><clipPath id="inner-stroke-b7ae45ef-cd08-80e4-8001-c08125ec84ba--0"><use href="#stroke-shape-b7ae45ef-cd08-80e4-8001-c08125ec84ba--0"/></clipPath><rect rx="0" ry="0" x="54.999999999999986" y="109.99999999999999" width="54.999999999999986" height="54.999999999999986" id="stroke-shape-b7ae45ef-cd08-80e4-8001-c08125ec84ba--0" style="fill: none; stroke-width: 6; stroke: rgb(255, 255, 255); stroke-opacity: 1;"/></defs><use href="#stroke-shape-b7ae45ef-cd08-80e4-8001-c08125ec84ba--0" clip-path="url('#inner-stroke-b7ae45ef-cd08-80e4-8001-c08125ec84ba--0')"/></g></g></g><g id="shape-9eb9e3a2-c7df-8095-8001-bf44b4bfe6c3"><g id="fills-9eb9e3a2-c7df-8095-8001-bf44b4bfe6c3"><rect rx="0" ry="0" x="165" y="0" transform="matrix(1,0,0,1,0,0)" width="55" height="55" style="fill: rgb(31, 36, 28); fill-opacity: 1;"/></g><g id="strokes-9eb9e3a2-c7df-8095-8001-bf44b4bfe6c3"><g class="inner-stroke-shape" transform="matrix(1,0,0,1,0,0)"><defs><clipPath id="inner-stroke-b7ae45ef-cd08-80e4-8001-c08125ed31f3--0"><use href="#stroke-shape-b7ae45ef-cd08-80e4-8001-c08125ed31f3--0"/></clipPath><rect rx="0" ry="0" x="165" y="0" width="55" height="55" id="stroke-shape-b7ae45ef-cd08-80e4-8001-c08125ed31f3--0" style="fill: none; stroke-width: 6; stroke: rgb(255, 255, 255); stroke-opacity: 1;"/></defs><use href="#stroke-shape-b7ae45ef-cd08-80e4-8001-c08125ed31f3--0" clip-path="url('#inner-stroke-b7ae45ef-cd08-80e4-8001-c08125ed31f3--0')"/></g></g></g><g id="shape-9eb9e3a2-c7df-8095-8001-bf44c5fbe4ef"><g id="fills-9eb9e3a2-c7df-8095-8001-bf44c5fbe4ef"><rect rx="0" ry="0" x="220" y="0" transform="matrix(1,0,0,1,0,0)" width="55" height="55" style="fill: rgb(31, 36, 28); fill-opacity: 0.9;"/></g><g id="strokes-9eb9e3a2-c7df-8095-8001-bf44c5fbe4ef"><g class="inner-stroke-shape" transform="matrix(1,0,0,1,0,0)"><defs><clipPath id="inner-stroke-b7ae45ef-cd08-80e4-8001-c08125eda421--0"><use href="#stroke-shape-b7ae45ef-cd08-80e4-8001-c08125eda421--0"/></clipPath><rect rx="0" ry="0" x="220" y="0" width="55" height="55" id="stroke-shape-b7ae45ef-cd08-80e4-8001-c08125eda421--0" style="fill: none; stroke-width: 4; stroke: rgb(255, 255, 255); stroke-opacity: 1;"/></defs><use href="#stroke-shape-b7ae45ef-cd08-80e4-8001-c08125eda421--0" clip-path="url('#inner-stroke-b7ae45ef-cd08-80e4-8001-c08125eda421--0')"/></g></g></g><g id="shape-9eb9e3a2-c7df-8095-8001-bf44dd8ef054"><g id="fills-9eb9e3a2-c7df-8095-8001-bf44dd8ef054"><rect rx="0" ry="0" x="274.99999999999994" y="0" transform="matrix(1,0,0,1,0,0)" width="54.99999999999994" height="55" style="fill: rgb(31, 36, 28); fill-opacity: 1;"/></g><g id="strokes-9eb9e3a2-c7df-8095-8001-bf44dd8ef054"><g class="inner-stroke-shape" transform="matrix(1,0,0,1,0,0)"><defs><clipPath id="inner-stroke-b7ae45ef-cd08-80e4-8001-c08125ee4985--0"><use href="#stroke-shape-b7ae45ef-cd08-80e4-8001-c08125ee4985--0"/></clipPath><rect rx="0" ry="0" x="274.99999999999994" y="0" width="54.99999999999994" height="55" id="stroke-shape-b7ae45ef-cd08-80e4-8001-c08125ee4985--0" style="fill: none; stroke-width: 2; stroke: rgb(255, 255, 255); stroke-opacity: 1;"/></defs><use href="#stroke-shape-b7ae45ef-cd08-80e4-8001-c08125ee4985--0" clip-path="url('#inner-stroke-b7ae45ef-cd08-80e4-8001-c08125ee4985--0')"/></g></g></g><g id="shape-9eb9e3a2-c7df-8095-8001-bf4498fddc25"><g id="fills-9eb9e3a2-c7df-8095-8001-bf4498fddc25"><rect rx="0" ry="0" x="0" y="55" transform="matrix(1,0,0,1,0,0)" width="55" height="55" style="fill: rgb(31, 36, 28); fill-opacity: 0.15;"/></g><g id="strokes-9eb9e3a2-c7df-8095-8001-bf4498fddc25"><g class="inner-stroke-shape" transform="matrix(1,0,0,1,0,0)"><defs><clipPath id="inner-stroke-b7ae45ef-cd08-80e4-8001-c08125ef29d2--0"><use href="#stroke-shape-b7ae45ef-cd08-80e4-8001-c08125ef29d2--0"/></clipPath><rect rx="0" ry="0" x="0" y="55" width="55" height="55" id="stroke-shape-b7ae45ef-cd08-80e4-8001-c08125ef29d2--0" style="fill: none; stroke-width: 12; stroke: rgb(255, 255, 255); stroke-opacity: 1;"/></defs><use href="#stroke-shape-b7ae45ef-cd08-80e4-8001-c08125ef29d2--0" clip-path="url('#inner-stroke-b7ae45ef-cd08-80e4-8001-c08125ef29d2--0')"/></g></g></g><g id="shape-9eb9e3a2-c7df-8095-8001-bf44a2e51d96"><g id="fills-9eb9e3a2-c7df-8095-8001-bf44a2e51d96"><rect rx="0" ry="0" x="55" y="55" transform="matrix(1,0,0,1,0,0)" width="55" height="55" style="fill: rgb(31, 36, 28); fill-opacity: 0.3;"/></g><g id="strokes-9eb9e3a2-c7df-8095-8001-bf44a2e51d96"><g class="inner-stroke-shape" transform="matrix(1,0,0,1,0,0)"><defs><clipPath id="inner-stroke-b7ae45ef-cd08-80e4-8001-c08125ef82e7--0"><use href="#stroke-shape-b7ae45ef-cd08-80e4-8001-c08125ef82e7--0"/></clipPath><rect rx="0" ry="0" x="55" y="55" width="55" height="55" id="stroke-shape-b7ae45ef-cd08-80e4-8001-c08125ef82e7--0" style="fill: none; stroke-width: 12; stroke: rgb(255, 255, 255); stroke-opacity: 1;"/></defs><use href="#stroke-shape-b7ae45ef-cd08-80e4-8001-c08125ef82e7--0" clip-path="url('#inner-stroke-b7ae45ef-cd08-80e4-8001-c08125ef82e7--0')"/></g></g></g><g id="shape-9eb9e3a2-c7df-8095-8001-bf44ba8e6e8e"><g id="fills-9eb9e3a2-c7df-8095-8001-bf44ba8e6e8e"><rect rx="0" ry="0" x="165" y="109.99999999999999" transform="matrix(1,0,0,1,0,0)" width="55" height="54.999999999999986" style="fill: rgb(31, 36, 28); fill-opacity: 1;"/></g><g id="strokes-9eb9e3a2-c7df-8095-8001-bf44ba8e6e8e"><g class="inner-stroke-shape" transform="matrix(1,0,0,1,0,0)"><defs><clipPath id="inner-stroke-b7ae45ef-cd08-80e4-8001-c08125f01557--0"><use href="#stroke-shape-b7ae45ef-cd08-80e4-8001-c08125f01557--0"/></clipPath><rect rx="0" ry="0" x="165" y="109.99999999999999" width="55" height="54.999999999999986" id="stroke-shape-b7ae45ef-cd08-80e4-8001-c08125f01557--0" style="fill: none; stroke-width: 2; stroke: rgb(255, 255, 255); stroke-opacity: 1;"/></defs><use href="#stroke-shape-b7ae45ef-cd08-80e4-8001-c08125f01557--0" clip-path="url('#inner-stroke-b7ae45ef-cd08-80e4-8001-c08125f01557--0')"/></g></g></g><g id="shape-9eb9e3a2-c7df-8095-8001-bf44ba8e6e90"><g id="fills-9eb9e3a2-c7df-8095-8001-bf44ba8e6e90"><rect rx="0" ry="0" x="0" y="165" transform="matrix(1,0,0,1,0,0)" width="55" height="55" style="fill: rgb(31, 36, 28); fill-opacity: 1;"/></g><g id="strokes-9eb9e3a2-c7df-8095-8001-bf44ba8e6e90"><g class="inner-stroke-shape" transform="matrix(1,0,0,1,0,0)"><defs><clipPath id="inner-stroke-b7ae45ef-cd08-80e4-8001-c08125f0b847--0"><use href="#stroke-shape-b7ae45ef-cd08-80e4-8001-c08125f0b847--0"/></clipPath><rect rx="0" ry="0" x="0" y="165" width="55" height="55" id="stroke-shape-b7ae45ef-cd08-80e4-8001-c08125f0b847--0" style="fill: none; stroke-width: 6; stroke: rgb(255, 255, 255); stroke-opacity: 1;"/></defs><use href="#stroke-shape-b7ae45ef-cd08-80e4-8001-c08125f0b847--0" clip-path="url('#inner-stroke-b7ae45ef-cd08-80e4-8001-c08125f0b847--0')"/></g></g></g><g id="shape-9eb9e3a2-c7df-8095-8001-bf44cf9106ef"><g id="fills-9eb9e3a2-c7df-8095-8001-bf44cf9106ef"><rect rx="0" ry="0" x="0" y="220" transform="matrix(1,0,0,1,0,0)" width="55" height="55" style="fill: rgb(31, 36, 28); fill-opacity: 0.9;"/></g><g id="strokes-9eb9e3a2-c7df-8095-8001-bf44cf9106ef"><g class="inner-stroke-shape" transform="matrix(1,0,0,1,0,0)"><defs><clipPath id="inner-stroke-b7ae45ef-cd08-80e4-8001-c08125f1191f--0"><use href="#stroke-shape-b7ae45ef-cd08-80e4-8001-c08125f1191f--0"/></clipPath><rect rx="0" ry="0" x="0" y="220" width="55" height="55" id="stroke-shape-b7ae45ef-cd08-80e4-8001-c08125f1191f--0" style="fill: none; stroke-width: 4; stroke: rgb(255, 255, 255); stroke-opacity: 1;"/></defs><use href="#stroke-shape-b7ae45ef-cd08-80e4-8001-c08125f1191f--0" clip-path="url('#inner-stroke-b7ae45ef-cd08-80e4-8001-c08125f1191f--0')"/></g></g></g><g id="shape-9eb9e3a2-c7df-8095-8001-bf44b4bfe6c1"><g id="fills-9eb9e3a2-c7df-8095-8001-bf44b4bfe6c1"><rect rx="0" ry="0" x="109.99999999999999" y="55" transform="matrix(1,0,0,1,0,0)" width="54.999999999999986" height="55" style="fill: rgb(31, 36, 28); fill-opacity: 1;"/></g><g id="strokes-9eb9e3a2-c7df-8095-8001-bf44b4bfe6c1"><g class="inner-stroke-shape" transform="matrix(1,0,0,1,0,0)"><defs><clipPath id="inner-stroke-b7ae45ef-cd08-80e4-8001-c08125f17c98--0"><use href="#stroke-shape-b7ae45ef-cd08-80e4-8001-c08125f17c98--0"/></clipPath><rect rx="0" ry="0" x="109.99999999999999" y="55" width="54.999999999999986" height="55" id="stroke-shape-b7ae45ef-cd08-80e4-8001-c08125f17c98--0" style="fill: none; stroke-width: 6; stroke: rgb(255, 255, 255); stroke-opacity: 1;"/></defs><use href="#stroke-shape-b7ae45ef-cd08-80e4-8001-c08125f17c98--0" clip-path="url('#inner-stroke-b7ae45ef-cd08-80e4-8001-c08125f17c98--0')"/></g></g></g><g id="shape-9eb9e3a2-c7df-8095-8001-bf44b4bfe6c2"><g id="fills-9eb9e3a2-c7df-8095-8001-bf44b4bfe6c2"><rect rx="0" ry="0" x="165" y="55" transform="matrix(1,0,0,1,0,0)" width="55" height="55" style="fill: rgb(31, 36, 28); fill-opacity: 0.9;"/></g><g id="strokes-9eb9e3a2-c7df-8095-8001-bf44b4bfe6c2"><g class="inner-stroke-shape" transform="matrix(1,0,0,1,0,0)"><defs><clipPath id="inner-stroke-b7ae45ef-cd08-80e4-8001-c08125f29dce--0"><use href="#stroke-shape-b7ae45ef-cd08-80e4-8001-c08125f29dce--0"/></clipPath><rect rx="0" ry="0" x="165" y="55" width="55" height="55" id="stroke-shape-b7ae45ef-cd08-80e4-8001-c08125f29dce--0" style="fill: none; stroke-width: 4; stroke: rgb(255, 255, 255); stroke-opacity: 1;"/></defs><use href="#stroke-shape-b7ae45ef-cd08-80e4-8001-c08125f29dce--0" clip-path="url('#inner-stroke-b7ae45ef-cd08-80e4-8001-c08125f29dce--0')"/></g></g></g><g id="shape-9eb9e3a2-c7df-8095-8001-bf44c5fbe4f0"><g id="fills-9eb9e3a2-c7df-8095-8001-bf44c5fbe4f0"><rect rx="0" ry="0" x="220" y="55" transform="matrix(1,0,0,1,0,0)" width="55" height="55" style="fill: rgb(31, 36, 28); fill-opacity: 1;"/></g><g id="strokes-9eb9e3a2-c7df-8095-8001-bf44c5fbe4f0"><g class="inner-stroke-shape" transform="matrix(1,0,0,1,0,0)"><defs><clipPath id="inner-stroke-b7ae45ef-cd08-80e4-8001-c08125f3158f--0"><use href="#stroke-shape-b7ae45ef-cd08-80e4-8001-c08125f3158f--0"/></clipPath><rect rx="0" ry="0" x="220" y="55" width="55" height="55" id="stroke-shape-b7ae45ef-cd08-80e4-8001-c08125f3158f--0" style="fill: none; stroke-width: 2; stroke: rgb(255, 255, 255); stroke-opacity: 1;"/></defs><use href="#stroke-shape-b7ae45ef-cd08-80e4-8001-c08125f3158f--0" clip-path="url('#inner-stroke-b7ae45ef-cd08-80e4-8001-c08125f3158f--0')"/></g></g></g><g id="shape-9eb9e3a2-c7df-8095-8001-bf44d86ad4eb"><g id="fills-9eb9e3a2-c7df-8095-8001-bf44d86ad4eb"><rect rx="0" ry="0" x="0" y="274.99999999999994" transform="matrix(1,0,0,1,0,0)" width="55" height="54.99999999999994" style="fill: rgb(31, 36, 28); fill-opacity: 1;"/></g><g id="strokes-9eb9e3a2-c7df-8095-8001-bf44d86ad4eb"><g class="inner-stroke-shape" transform="matrix(1,0,0,1,0,0)"><defs><clipPath id="inner-stroke-b7ae45ef-cd08-80e4-8001-c08125f38711--0"><use href="#stroke-shape-b7ae45ef-cd08-80e4-8001-c08125f38711--0"/></clipPath><rect rx="0" ry="0" x="0" y="274.99999999999994" width="55" height="54.99999999999994" id="stroke-shape-b7ae45ef-cd08-80e4-8001-c08125f38711--0" style="fill: none; stroke-width: 2; stroke: rgb(255, 255, 255); stroke-opacity: 1;"/></defs><use href="#stroke-shape-b7ae45ef-cd08-80e4-8001-c08125f38711--0" clip-path="url('#inner-stroke-b7ae45ef-cd08-80e4-8001-c08125f38711--0')"/></g></g></g><g id="shape-9eb9e3a2-c7df-8095-8001-bf44ba8e6e8f"><g id="fills-9eb9e3a2-c7df-8095-8001-bf44ba8e6e8f"><rect rx="0" ry="0" x="55" y="165" transform="matrix(1,0,0,1,0,0)" width="55" height="55" style="fill: rgb(31, 36, 28); fill-opacity: 0.9;"/></g><g id="strokes-9eb9e3a2-c7df-8095-8001-bf44ba8e6e8f"><g class="inner-stroke-shape" transform="matrix(1,0,0,1,0,0)"><defs><clipPath id="inner-stroke-b7ae45ef-cd08-80e4-8001-c08125f3e736--0"><use href="#stroke-shape-b7ae45ef-cd08-80e4-8001-c08125f3e736--0"/></clipPath><rect rx="0" ry="0" x="55" y="165" width="55" height="55" id="stroke-shape-b7ae45ef-cd08-80e4-8001-c08125f3e736--0" style="fill: none; stroke-width: 4; stroke: rgb(255, 255, 255); stroke-opacity: 1;"/></defs><use href="#stroke-shape-b7ae45ef-cd08-80e4-8001-c08125f3e736--0" clip-path="url('#inner-stroke-b7ae45ef-cd08-80e4-8001-c08125f3e736--0')"/></g></g></g><g id="shape-9eb9e3a2-c7df-8095-8001-bf44cf9106f0"><g id="fills-9eb9e3a2-c7df-8095-8001-bf44cf9106f0"><rect rx="0" ry="0" x="55" y="220" transform="matrix(1,0,0,1,0,0)" width="55" height="55" style="fill: rgb(31, 36, 28); fill-opacity: 1;"/></g><g id="strokes-9eb9e3a2-c7df-8095-8001-bf44cf9106f0"><g class="inner-stroke-shape" transform="matrix(1,0,0,1,0,0)"><defs><clipPath id="inner-stroke-b7ae45ef-cd08-80e4-8001-c08125f4440a--0"><use href="#stroke-shape-b7ae45ef-cd08-80e4-8001-c08125f4440a--0"/></clipPath><rect rx="0" ry="0" x="55" y="220" width="55" height="55" id="stroke-shape-b7ae45ef-cd08-80e4-8001-c08125f4440a--0" style="fill: none; stroke-width: 2; stroke: rgb(255, 255, 255); stroke-opacity: 1;"/></defs><use href="#stroke-shape-b7ae45ef-cd08-80e4-8001-c08125f4440a--0" clip-path="url('#inner-stroke-b7ae45ef-cd08-80e4-8001-c08125f4440a--0')"/></g></g></g><g id="shape-9eb9e3a2-c7df-8095-8001-bf44ba8e6e8c"><g id="fills-9eb9e3a2-c7df-8095-8001-bf44ba8e6e8c"><rect rx="0" ry="0" x="109.99999999999999" y="165" transform="matrix(1,0,0,1,0,0)" width="54.999999999999986" height="55" style="fill: rgb(31, 36, 28); fill-opacity: 1;"/></g><g id="strokes-9eb9e3a2-c7df-8095-8001-bf44ba8e6e8c"><g class="inner-stroke-shape" transform="matrix(1,0,0,1,0,0)"><defs><clipPath id="inner-stroke-b7ae45ef-cd08-80e4-8001-c08125f4a76c--0"><use href="#stroke-shape-b7ae45ef-cd08-80e4-8001-c08125f4a76c--0"/></clipPath><rect rx="0" ry="0" x="109.99999999999999" y="165" width="54.999999999999986" height="55" id="stroke-shape-b7ae45ef-cd08-80e4-8001-c08125f4a76c--0" style="fill: none; stroke-width: 2; stroke: rgb(255, 255, 255); stroke-opacity: 1;"/></defs><use href="#stroke-shape-b7ae45ef-cd08-80e4-8001-c08125f4a76c--0" clip-path="url('#inner-stroke-b7ae45ef-cd08-80e4-8001-c08125f4a76c--0')"/></g></g></g></g></svg>
